<svg xmlns="http://www.w3.org/2000/svg" xmlns:xlink="http://www.w3.org/1999/xlink" width="320" zoomAndPan="magnify" viewBox="0 0 240 36.000001" height="48" preserveAspectRatio="xMidYMid meet" version="1.0"><defs><g/></defs><g fill="#ffffff" fill-opacity="1"><g transform="translate(35.775389, 28.194812)"><g><path d="M 5.28125 -21.25 L 5.28125 -13.515625 C 5.28125 -13.066406 5.1875 -12.601562 5 -12.125 C 4.8125 -11.644531 4.640625 -11.195312 4.484375 -10.78125 L 5.125 -10.546875 C 5.257812 -10.984375 5.390625 -11.453125 5.515625 -11.953125 C 5.648438 -12.460938 5.875 -12.882812 6.1875 -13.21875 C 6.707031 -13.78125 7.34375 -14.234375 8.09375 -14.578125 C 8.851562 -14.921875 9.722656 -15.09375 10.703125 -15.09375 C 11.753906 -15.09375 12.722656 -14.878906 13.609375 -14.453125 C 14.503906 -14.035156 15.273438 -13.472656 15.921875 -12.765625 C 16.578125 -12.066406 17.09375 -11.242188 17.46875 -10.296875 C 17.84375 -9.347656 18.039062 -8.347656 18.0625 -7.296875 C 18.070312 -6.203125 17.898438 -5.179688 17.546875 -4.234375 C 17.203125 -3.285156 16.703125 -2.460938 16.046875 -1.765625 C 15.390625 -1.078125 14.609375 -0.53125 13.703125 -0.125 C 12.796875 0.269531 11.796875 0.46875 10.703125 0.46875 C 9.703125 0.46875 8.828125 0.304688 8.078125 -0.015625 C 7.335938 -0.335938 6.695312 -0.78125 6.15625 -1.34375 C 5.84375 -1.65625 5.625 -2.070312 5.5 -2.59375 C 5.382812 -3.113281 5.257812 -3.585938 5.125 -4.015625 L 4.515625 -3.8125 C 4.648438 -3.382812 4.8125 -2.929688 5 -2.453125 C 5.1875 -1.972656 5.28125 -1.507812 5.28125 -1.0625 L 5.28125 0 L 1.703125 -0.03125 L 1.703125 -21.28125 Z M 5.953125 -7.203125 C 5.953125 -6.597656 6.039062 -6.023438 6.21875 -5.484375 C 6.40625 -4.953125 6.679688 -4.492188 7.046875 -4.109375 C 7.410156 -3.734375 7.851562 -3.429688 8.375 -3.203125 C 8.90625 -2.984375 9.515625 -2.875 10.203125 -2.875 C 10.890625 -2.875 11.492188 -2.984375 12.015625 -3.203125 C 12.546875 -3.429688 12.988281 -3.734375 13.34375 -4.109375 C 13.707031 -4.492188 13.984375 -4.953125 14.171875 -5.484375 C 14.359375 -6.023438 14.453125 -6.597656 14.453125 -7.203125 C 14.453125 -7.835938 14.359375 -8.425781 14.171875 -8.96875 C 13.984375 -9.519531 13.707031 -10 13.34375 -10.40625 C 12.988281 -10.8125 12.546875 -11.132812 12.015625 -11.375 C 11.492188 -11.625 10.890625 -11.75 10.203125 -11.75 C 9.515625 -11.75 8.90625 -11.625 8.375 -11.375 C 7.851562 -11.132812 7.410156 -10.8125 7.046875 -10.40625 C 6.679688 -10 6.40625 -9.519531 6.21875 -8.96875 C 6.039062 -8.425781 5.953125 -7.835938 5.953125 -7.203125 Z M 5.953125 -7.203125 "/></g></g></g><g fill="#ffffff" fill-opacity="1"><g transform="translate(54.625826, 28.194812)"><g><path d="M 1.703125 0 L 1.703125 -14.65625 L 5.3125 -14.65625 L 5.3125 -14.25 C 5.3125 -13.675781 5.1875 -13.070312 4.9375 -12.4375 C 4.695312 -11.800781 4.46875 -11.234375 4.25 -10.734375 L 4.84375 -10.46875 C 4.957031 -10.738281 5.070312 -11.019531 5.1875 -11.3125 C 5.300781 -11.601562 5.429688 -11.894531 5.578125 -12.1875 C 5.722656 -12.488281 5.882812 -12.757812 6.0625 -13 C 6.238281 -13.238281 6.445312 -13.445312 6.6875 -13.625 C 7.070312 -13.914062 7.46875 -14.160156 7.875 -14.359375 C 8.289062 -14.554688 8.738281 -14.707031 9.21875 -14.8125 C 9.695312 -14.925781 10.21875 -15 10.78125 -15.03125 C 11.351562 -15.070312 12 -15.09375 12.71875 -15.09375 L 12.71875 -11.75 C 11.820312 -11.75 10.925781 -11.660156 10.03125 -11.484375 C 9.144531 -11.316406 8.347656 -11.023438 7.640625 -10.609375 C 6.941406 -10.203125 6.378906 -9.65625 5.953125 -8.96875 C 5.523438 -8.28125 5.3125 -7.429688 5.3125 -6.421875 L 5.3125 0 Z M 1.703125 0 "/></g></g></g><g fill="#ffffff" fill-opacity="1"><g transform="translate(68.228632, 28.194812)"><g><path d="M 1.8125 -14.65625 L 5.390625 -14.65625 L 5.390625 0 L 1.8125 0 Z M 1.640625 -20.515625 L 5.546875 -20.515625 L 5.546875 -16.859375 L 1.640625 -16.859375 Z M 1.640625 -20.515625 "/></g></g></g><g fill="#ffffff" fill-opacity="1"><g transform="translate(75.352515, 28.194812)"><g><path d="M 1.265625 -7.328125 C 1.265625 -8.441406 1.445312 -9.472656 1.8125 -10.421875 C 2.1875 -11.367188 2.710938 -12.1875 3.390625 -12.875 C 4.078125 -13.570312 4.914062 -14.113281 5.90625 -14.5 C 6.894531 -14.894531 8.003906 -15.09375 9.234375 -15.09375 C 10.523438 -15.09375 11.664062 -14.882812 12.65625 -14.46875 C 13.65625 -14.0625 14.5 -13.507812 15.1875 -12.8125 C 15.882812 -12.125 16.410156 -11.328125 16.765625 -10.421875 C 17.117188 -9.515625 17.285156 -8.570312 17.265625 -7.59375 C 17.265625 -7.394531 17.269531 -7.148438 17.28125 -6.859375 C 17.289062 -6.566406 17.285156 -6.363281 17.265625 -6.25 L 5.015625 -6.25 C 5.015625 -5.832031 5.101562 -5.421875 5.28125 -5.015625 C 5.46875 -4.617188 5.742188 -4.253906 6.109375 -3.921875 C 6.472656 -3.585938 6.929688 -3.316406 7.484375 -3.109375 C 8.046875 -2.910156 8.707031 -2.8125 9.46875 -2.8125 C 10.488281 -2.8125 11.296875 -2.988281 11.890625 -3.34375 C 12.484375 -3.695312 12.859375 -4.054688 13.015625 -4.421875 L 17.328125 -4.421875 C 17.203125 -4.054688 16.960938 -3.585938 16.609375 -3.015625 C 16.265625 -2.453125 15.769531 -1.914062 15.125 -1.40625 C 14.476562 -0.894531 13.679688 -0.453125 12.734375 -0.078125 C 11.785156 0.285156 10.675781 0.46875 9.40625 0.46875 C 8.0625 0.46875 6.875 0.265625 5.84375 -0.140625 C 4.820312 -0.554688 3.972656 -1.113281 3.296875 -1.8125 C 2.617188 -2.519531 2.109375 -3.347656 1.765625 -4.296875 C 1.429688 -5.242188 1.265625 -6.253906 1.265625 -7.328125 Z M 9.109375 -11.8125 C 7.804688 -11.8125 6.796875 -11.515625 6.078125 -10.921875 C 5.367188 -10.335938 5.015625 -9.578125 5.015625 -8.640625 L 13.3125 -8.640625 C 13.3125 -9.660156 12.921875 -10.441406 12.140625 -10.984375 C 11.359375 -11.535156 10.347656 -11.8125 9.109375 -11.8125 Z M 9.109375 -11.8125 "/></g></g></g><g fill="#ffffff" fill-opacity="1"><g transform="translate(93.675258, 28.194812)"><g><path d="M 11 -14.65625 L 11 -11.8125 L 7.296875 -11.8125 L 7.296875 -0.09375 L 3.71875 -0.09375 L 3.71875 -11.8125 L 0.828125 -11.8125 L 0.828125 -14.65625 L 3.71875 -14.65625 L 3.71875 -15.890625 C 3.738281 -16.585938 3.863281 -17.222656 4.09375 -17.796875 C 4.332031 -18.378906 4.644531 -18.867188 5.03125 -19.265625 C 5.425781 -19.671875 5.875 -19.976562 6.375 -20.1875 C 6.875 -20.40625 7.394531 -20.515625 7.9375 -20.515625 L 11.34375 -20.515625 L 11.34375 -17.609375 L 9.265625 -17.609375 C 8.554688 -17.609375 8.050781 -17.457031 7.75 -17.15625 C 7.445312 -16.851562 7.296875 -16.429688 7.296875 -15.890625 L 7.296875 -14.65625 Z M 11 -14.65625 "/></g></g></g><g fill="#ffffff" fill-opacity="1"><g transform="translate(105.90019, 28.194812)"><g><path d="M 1.265625 -7.328125 C 1.265625 -8.441406 1.445312 -9.472656 1.8125 -10.421875 C 2.1875 -11.367188 2.710938 -12.1875 3.390625 -12.875 C 4.078125 -13.570312 4.914062 -14.113281 5.90625 -14.5 C 6.894531 -14.894531 8.003906 -15.09375 9.234375 -15.09375 C 10.523438 -15.09375 11.664062 -14.882812 12.65625 -14.46875 C 13.65625 -14.0625 14.5 -13.507812 15.1875 -12.8125 C 15.882812 -12.125 16.410156 -11.328125 16.765625 -10.421875 C 17.117188 -9.515625 17.285156 -8.570312 17.265625 -7.59375 C 17.265625 -7.394531 17.269531 -7.148438 17.28125 -6.859375 C 17.289062 -6.566406 17.285156 -6.363281 17.265625 -6.25 L 5.015625 -6.25 C 5.015625 -5.832031 5.101562 -5.421875 5.28125 -5.015625 C 5.46875 -4.617188 5.742188 -4.253906 6.109375 -3.921875 C 6.472656 -3.585938 6.929688 -3.316406 7.484375 -3.109375 C 8.046875 -2.910156 8.707031 -2.8125 9.46875 -2.8125 C 10.488281 -2.8125 11.296875 -2.988281 11.890625 -3.34375 C 12.484375 -3.695312 12.859375 -4.054688 13.015625 -4.421875 L 17.328125 -4.421875 C 17.203125 -4.054688 16.960938 -3.585938 16.609375 -3.015625 C 16.265625 -2.453125 15.769531 -1.914062 15.125 -1.40625 C 14.476562 -0.894531 13.679688 -0.453125 12.734375 -0.078125 C 11.785156 0.285156 10.675781 0.46875 9.40625 0.46875 C 8.0625 0.46875 6.875 0.265625 5.84375 -0.140625 C 4.820312 -0.554688 3.972656 -1.113281 3.296875 -1.8125 C 2.617188 -2.519531 2.109375 -3.347656 1.765625 -4.296875 C 1.429688 -5.242188 1.265625 -6.253906 1.265625 -7.328125 Z M 9.109375 -11.8125 C 7.804688 -11.8125 6.796875 -11.515625 6.078125 -10.921875 C 5.367188 -10.335938 5.015625 -9.578125 5.015625 -8.640625 L 13.3125 -8.640625 C 13.3125 -9.660156 12.921875 -10.441406 12.140625 -10.984375 C 11.359375 -11.535156 10.347656 -11.8125 9.109375 -11.8125 Z M 9.109375 -11.8125 "/></g></g></g><g fill="#ffffff" fill-opacity="1"><g transform="translate(124.222935, 28.194812)"><g><path d="M 1.703125 0 L 1.703125 -14.65625 L 5.3125 -14.65625 L 5.3125 -14.25 C 5.3125 -13.675781 5.1875 -13.070312 4.9375 -12.4375 C 4.695312 -11.800781 4.46875 -11.234375 4.25 -10.734375 L 4.84375 -10.46875 C 4.957031 -10.738281 5.070312 -11.019531 5.1875 -11.3125 C 5.300781 -11.601562 5.429688 -11.894531 5.578125 -12.1875 C 5.722656 -12.488281 5.882812 -12.757812 6.0625 -13 C 6.238281 -13.238281 6.445312 -13.445312 6.6875 -13.625 C 7.070312 -13.914062 7.46875 -14.160156 7.875 -14.359375 C 8.289062 -14.554688 8.738281 -14.707031 9.21875 -14.8125 C 9.695312 -14.925781 10.21875 -15 10.78125 -15.03125 C 11.351562 -15.070312 12 -15.09375 12.71875 -15.09375 L 12.71875 -11.75 C 11.820312 -11.75 10.925781 -11.660156 10.03125 -11.484375 C 9.144531 -11.316406 8.347656 -11.023438 7.640625 -10.609375 C 6.941406 -10.203125 6.378906 -9.65625 5.953125 -8.96875 C 5.523438 -8.28125 5.3125 -7.429688 5.3125 -6.421875 L 5.3125 0 Z M 1.703125 0 "/></g></g></g><path fill="#ffffff" d="M 15.867188 9.96875 C 16.035156 9.96875 16.1875 10.019531 16.324219 10.121094 C 16.460938 10.222656 16.550781 10.355469 16.597656 10.519531 L 17.421875 13.402344 C 17.601562 14.035156 17.921875 14.582031 18.386719 15.046875 C 18.851562 15.511719 19.398438 15.832031 20.03125 16.011719 L 22.914062 16.835938 C 23.078125 16.882812 23.210938 16.972656 23.3125 17.109375 C 23.414062 17.246094 23.464844 17.398438 23.464844 17.566406 C 23.464844 17.738281 23.414062 17.890625 23.3125 18.023438 C 23.210938 18.160156 23.078125 18.25 22.914062 18.296875 L 20.03125 19.121094 C 19.398438 19.300781 18.851562 19.625 18.386719 20.089844 C 17.921875 20.554688 17.601562 21.101562 17.421875 21.730469 L 16.597656 24.617188 C 16.550781 24.777344 16.460938 24.910156 16.324219 25.011719 C 16.1875 25.117188 16.035156 25.167969 15.867188 25.167969 C 15.695312 25.167969 15.542969 25.117188 15.410156 25.011719 C 15.273438 24.910156 15.183594 24.777344 15.136719 24.617188 L 14.3125 21.730469 C 14.132812 21.101562 13.808594 20.554688 13.34375 20.089844 C 12.878906 19.625 12.332031 19.300781 11.703125 19.121094 L 8.816406 18.296875 C 8.652344 18.25 8.523438 18.160156 8.417969 18.023438 C 8.316406 17.890625 8.265625 17.738281 8.265625 17.566406 C 8.265625 17.398438 8.316406 17.246094 8.417969 17.109375 C 8.523438 16.972656 8.652344 16.882812 8.816406 16.835938 L 11.703125 16.011719 C 12.332031 15.832031 12.878906 15.511719 13.34375 15.046875 C 13.808594 14.582031 14.132812 14.035156 14.3125 13.402344 L 15.136719 10.519531 C 15.183594 10.355469 15.273438 10.222656 15.410156 10.121094 C 15.542969 10.019531 15.695312 9.96875 15.867188 9.96875 Z M 24.988281 6.925781 C 25.160156 6.925781 25.316406 6.980469 25.453125 7.085938 C 25.59375 7.195312 25.683594 7.332031 25.722656 7.503906 L 25.984375 8.550781 C 26.226562 9.503906 26.96875 10.25 27.921875 10.488281 L 28.972656 10.75 C 29.140625 10.792969 29.277344 10.882812 29.386719 11.019531 C 29.496094 11.15625 29.546875 11.3125 29.546875 11.488281 C 29.546875 11.660156 29.496094 11.816406 29.386719 11.957031 C 29.277344 12.09375 29.140625 12.183594 28.972656 12.226562 L 27.921875 12.484375 C 26.96875 12.726562 26.226562 13.46875 25.984375 14.421875 L 25.722656 15.472656 C 25.683594 15.640625 25.59375 15.78125 25.453125 15.886719 C 25.316406 15.996094 25.160156 16.046875 24.988281 16.046875 C 24.8125 16.046875 24.65625 15.996094 24.519531 15.886719 C 24.378906 15.78125 24.289062 15.640625 24.25 15.472656 L 23.988281 14.421875 C 23.867188 13.945312 23.636719 13.53125 23.289062 13.1875 C 22.941406 12.839844 22.527344 12.605469 22.050781 12.484375 L 21 12.226562 C 20.832031 12.183594 20.695312 12.09375 20.585938 11.957031 C 20.476562 11.816406 20.425781 11.660156 20.425781 11.488281 C 20.425781 11.3125 20.476562 11.15625 20.585938 11.019531 C 20.695312 10.882812 20.832031 10.792969 21 10.75 L 22.050781 10.488281 C 22.527344 10.367188 22.941406 10.136719 23.289062 9.789062 C 23.636719 9.441406 23.867188 9.027344 23.988281 8.550781 L 24.25 7.503906 C 24.289062 7.332031 24.382812 7.195312 24.519531 7.085938 C 24.65625 6.980469 24.8125 6.925781 24.988281 6.925781 Z M 23.464844 20.605469 C 23.628906 20.605469 23.777344 20.65625 23.910156 20.75 C 24.042969 20.847656 24.136719 20.972656 24.1875 21.128906 L 24.585938 22.324219 C 24.738281 22.777344 25.09375 23.136719 25.546875 23.285156 L 26.746094 23.6875 C 26.902344 23.738281 27.027344 23.832031 27.121094 23.964844 C 27.21875 24.097656 27.265625 24.242188 27.265625 24.40625 C 27.265625 24.570312 27.21875 24.71875 27.121094 24.851562 C 27.027344 24.984375 26.902344 25.074219 26.746094 25.128906 L 25.546875 25.527344 C 25.09375 25.679688 24.738281 26.035156 24.585938 26.488281 L 24.1875 27.6875 C 24.136719 27.84375 24.042969 27.96875 23.910156 28.0625 C 23.777344 28.15625 23.628906 28.207031 23.464844 28.207031 C 23.304688 28.207031 23.15625 28.15625 23.023438 28.0625 C 22.890625 27.96875 22.796875 27.84375 22.746094 27.6875 L 22.34375 26.488281 C 22.183594 26.007812 21.863281 25.6875 21.386719 25.527344 L 20.1875 25.128906 C 20.03125 25.074219 19.90625 24.984375 19.8125 24.851562 C 19.714844 24.71875 19.667969 24.570312 19.667969 24.40625 C 19.667969 24.242188 19.714844 24.097656 19.8125 23.964844 C 19.90625 23.832031 20.03125 23.738281 20.1875 23.6875 L 21.386719 23.285156 C 21.835938 23.132812 22.195312 22.78125 22.34375 22.324219 L 22.746094 21.128906 C 22.796875 20.972656 22.890625 20.847656 23.023438 20.75 C 23.15625 20.65625 23.304688 20.605469 23.464844 20.605469 Z M 23.464844 20.605469 " fill-opacity="1" fill-rule="evenodd"/></svg>