<?xml version="1.0" encoding="iso-8859-1"?>
<!-- Generator: Adobe Illustrator 22.1.0, SVG Export Plug-In . SVG Version: 6.00 Build 0)  -->
<svg version="1.1" id="Layer_1" xmlns="http://www.w3.org/2000/svg" xmlns:xlink="http://www.w3.org/1999/xlink" x="0px" y="0px"
	 viewBox="0 0 32 32" style="enable-background:new 0 0 32 32;" xml:space="preserve">
<path d="M21,6.5C21,5.119,19.881,4,18.5,4S16,5.119,16,6.5c0,0.796,0,5.202,0,6c0,1.381,1.119,2.5,2.5,2.5s2.5-1.119,2.5-2.5
	C21,11.702,21,7.296,21,6.5z"/>
<path d="M27,12.5c0,1.381-1.119,2.5-2.5,2.5c-0.621,0-2.5,0-2.5,0s0-1.74,0-2.5c0-1.381,1.119-2.5,2.5-2.5S27,11.119,27,12.5z"/>
<path d="M24.5,21c1.381,0,2.5-1.119,2.5-2.5S25.881,16,24.5,16c-0.796,0-5.202,0-6,0c-1.381,0-2.5,1.119-2.5,2.5s1.119,2.5,2.5,2.5
	C19.298,21,23.704,21,24.5,21z"/>
<path d="M18.5,27c-1.381,0-2.5-1.119-2.5-2.5c0-0.621,0-2.5,0-2.5s1.74,0,2.5,0c1.381,0,2.5,1.119,2.5,2.5S19.881,27,18.5,27z"/>
<path d="M10,24.5c0,1.381,1.119,2.5,2.5,2.5s2.5-1.119,2.5-2.5c0-0.796,0-5.202,0-6c0-1.381-1.119-2.5-2.5-2.5S10,17.119,10,18.5
	C10,19.298,10,23.704,10,24.5z"/>
<path d="M4,18.5C4,17.119,5.119,16,6.5,16C7.121,16,9,16,9,16s0,1.74,0,2.5C9,19.881,7.881,21,6.5,21S4,19.881,4,18.5z"/>
<path d="M6.5,10C5.119,10,4,11.119,4,12.5S5.119,15,6.5,15c0.796,0,5.202,0,6,0c1.381,0,2.5-1.119,2.5-2.5S13.881,10,12.5,10
	C11.702,10,7.296,10,6.5,10z"/>
<path d="M12.5,4C13.881,4,15,5.119,15,6.5C15,7.121,15,9,15,9s-1.74,0-2.5,0C11.119,9,10,7.881,10,6.5S11.119,4,12.5,4z"/>
</svg>