<?xml version="1.0" encoding="utf-8"?>
<svg version="1.1" id="Layer_1" xmlns="http://www.w3.org/2000/svg" xmlns:xlink="http://www.w3.org/1999/xlink" x="0px" y="0px"
	 viewBox="0 0 1920 1919" enable-background="new 0 0 1920 1919" xml:space="preserve">
<g>
	<rect fill="#FFFFFF" width="1918.89" height="1918.14"/>
	<g>
		<path d="M1917.93,1161.08c-80.476-31.44-94.47-35.245-175.63-103.34c-140.737-119.696-36.557-79.239-247.84-229.05
			c-75.295-53.627-83.956-72.492-103.25-92.87c-24.052-26.083-102.831-84.313-129.01-112.05
			c-37.147-40.183-68.893-64.021-199.12-118.65c-20.496-8.885-26.68-0.515-65.02-26.27c66.476,0.498,52.613,0.755,90.6,11.22
			c42.079,12.485,73.065,14.009,100.76,22.25c17.829,4.909,26.673,10.734,62.49,21.74c161.99,49.035,137.097,36.204,226.52,102.46
			c54.202,41.567,65.295,39.153,88.61,54.02c103.69,63.31,200.5,244.772,271.53,326.78c21.75,25.16,48.69,46.58,80.01,58.38
			c1.137-7.061,0.709-68.662,0.7-69.68c1.145-11.845-69.742-48.652-95.78-66.31c-32.018-22.605-60.702-63.783-74.43-88.87
			c-31.521-56.082-15.309-78.825-81.28-157.66c-70.7-83.46-158.189-112.62-159.73-113.32c25.633,1.589,49.385,0.798,65.82,15.37
			c5.796,4.913,10.122,15.122,28.99,20.7c48.319,13.773,115.208,42.501,151.02,82.21c43.324,48.374,39.737,145.144,100.64,155.54
			c20.459,3.332,21.108,10.897,63.97,43.47c1.252-6.855,1.604-122.789-0.57-132.16c-12.651-50.49-65.181-99.643-109.21-127
			c-78.722-48.089-112.938-45.174-161.24-85.42c-74.554-63.423-20.003-18.637-87.51-68.76c-33.683-25.124-42.318-44.758-49.25-53.58
			c-59.66-79.435-184.36-65.761-256.3-111.51c-49.176-30.315-49.354-57.261-71.54-79.68c7.98,2.15,30.377,37.853,123.32,47.7
			c39.302,4.519,87.991,1.083,146.95,9.17c90.583,13.599,89.06,34.537,150.77,60.53c73.94,30.508,75.887-42.821,225.58,73.09
			c48.579,38.127,47.944,31.804,88.92,86.68c1.593-8.941,1.078-75.097,0.4-81.14c0.13-1.97-2.01-2.68-3.16-3.81
			c-15.46-11.76-28.35-26.98-45.75-36.07c-24.096-12.966-33.166-23.675-43-29.82c-25.921-16.982-38.797-10.255-68-24.01
			c-23.427-11.486-74.367-27.183-115.77-44.4c-34.915-14.443-64.705-30.211-113.11-30.88c-78.421,1.426-108.814,2.28-153.09-13.17
			c0,0,13.108,0.064,58.14-5.47c48.357-6.662,122.573,8.447,255.87-58.78c84.524-42.629,84.462-43.555,95.17-54.43
			c11.83-10.13,27.96-11.65,41.93-17.31c25.482-9.925,34.414-21.807,54.14-31.88c11.46-6.06,24.11-9.25,36.23-13.69
			c1.317-5.866,0.771-63.006,0.58-69.09c-2.975-0.03-121.99-0.31-121.99-0.31c-7.319,0.206-57.428,42.748-105.04,80.18
			c-99.746,78.498-102.81,100.079-197.97,98.95c-11.517-0.502-217.907-13.999-280.44-30.9
			c-128.288-33.792-158.191-77.628-210.85-73.61c34.751-11.215,66.243,10.889,99.41,12.63c23.5,0.66,45.55,10.7,69.05,11.28
			c47.258,1.822,96.964-8.358,155.14-3.62c45.698,3.704,117.146,32.5,211.58,15.48c47.094-10.203,50.782-65.972,80.29-109.92
			c-4.514-0.278-180.78-0.121-181.79-0.12c17.207,25.878,48.615,39.043,51.56,63.69c-34.74-10.838-45.131-7.055-81.94-7.97
			c-0.001,0-115.009-4.73-115.01-4.73c-78.588-0.708-110.683,1.97-153.94-3.96c-30.974-4.664-97.622-21.925-130.87-41.57
			c-13.074-7.19,4.97-6.221-92.75-5.57c1.816,44.881,31.46,44.958,36.95,70.39c-35.898-4.516-80.179-39.726-105.48-65.5
			c-1.96-2.04-3.93-4.53-6.91-4.96c-1.001-0.144-76.198-0.221-78.82,0.43c52.805,73.731,114.993,102.344,354.11,229.47
			c-12.477,2.316-55.694,1.612-95.43-9.76c-91.784-26.075-86.045-38.927-152.71-70.43c-34.689-16.222-77.499-35.713-98.42-54.54
			c-3.273-2.736-16.114-18.076-29.68-16.65c-24.131,2.498-66.134-51.589-76.97-74.8c-2.346-4.368,3.096-4.293-43.08-3.62
			c3.714,35.835,16.814,58.443,22.74,64.87c0.22,0.51,0.67,1.54,0.9,2.05c-0.89-0.89-1.67-1.89-2.41-2.88l-0.26,0.28
			c0,0-26.477-26.544-50.36-59.91c-4.06-5.164-4.366-5.127-16.63-4.56c-15.92,0.25-31.87-0.2-47.79,0.22
			c14.835,39.053,50.521,44.073,62.7,70.08c-28.143-6.819-49.601-36.274-82.95-34.43c-20.14,2.314-26.114,0.452-38.01-9.05
			C426.346-2.675,438.709,2.342,417.01,2.05c-67.911,0.668-67.529-1.578-63.9,2.55c29.068,31.025,29.009,21.907,83.07,71.14
			c38.389,34.661,87.103,2.304,154.93,6.59c20.63,0.8,40.38,7.54,59.88,13.75c18.24,5.72,33.39,17.75,49.46,27.64
			c28.882,17.852,37.558,30.09,54.48,49.97c38.46,42.165,180.943,82.292,199.89,93.58c51.318,30.245,75.878,26.479,111.59,52.23
			c29.238,21.771,36,23.112,57.53,28.84c134.282,34.279,139.706,1.209,192.97,18.86c37.724,12.705,55.923,45.615,80.42,73.41
			c34.591,40.662,56.762,45.539,100.23,64.06c4.82,1.73,9.16,4.64,14.06,6.11l-0.39,1.09c0.57-0.16,1.71-0.49,2.28-0.65l0.06,1.4
			c0.5-0.07,1.5-0.21,2-0.29l0.2,1.3c0.45-0.08,1.37-0.24,1.82-0.32l0.03,0.85c2.8,1.11,5.72,2.28,7.89,4.48
			c-2.63-1.23-5.14-2.73-7.95-3.47l-0.18-0.85c-0.48,0.08-1.45,0.25-1.93,0.34l0.05-1.36c-0.51,0.11-1.52,0.34-2.03,0.45l-0.07-1.27
			c-0.73,0-2.18,0.01-2.91,0.01l0.18-1.36c-0.55,0.17-1.65,0.52-2.2,0.69l0.45-1.13c-4.58-0.27-8.71-2.5-13.07-3.69
			c-25.26-8.1-51.57-12.03-77.67-16.36c-80.43-13.557-48.604-13.165-128.06-32.3c-50.319-12.151-66.545-21.838-115.03-39.39
			c-93.368-34.254-112.194-16.805-183.08-27.61c-48.796-8.101-34.076-16.408-50.32-36.02c-11.899-16.104-29.875-16.037-39.63-40.46
			c-6.851-17.149-27.919-28.952-46.7-38.36c-54.467-25.846-57.473-32.358-75.02-42.77c-52.397-31.395-49.529-22.773-72.68-30.18
			c-42.41-12.465-52.712-38.219-82.8-43c-46.72-5.947-145.18,52.932-217.38,27.12c-35.961-12.57-58.503-53.1-92.09-82.05
			c-46.599-39.361-101-94.318-105.09-100.04c-1.39-2.16-3.64-3.72-6.28-3.64c-12.94,0.42-25.89,0.01-38.84,0.27
			c6.779,22.879,45.975,33.518,64.96,75.66C152.567,28.856,122.702,47.017,72.57,5.41C70.45,3.57,68,1.72,65.03,1.9
			c-9.51,0.56-19.05-0.07-28.56,0.39c2.3,3.1,5.76,5.03,8.45,7.75c14.49,13.5,23.91,31.3,37.72,45.43
			c33.701,37.671,42.928-11.723,130.08,58.6c61.481,49.621,90.628,48.249,154.87,85.5c99.99,58.648,126.476,34.607,219.45,33.04
			c71.973-1.867,76.107-18.356,129.02-1.25c50.054,16.373,81.372,50.983,87.52,69.59c-35.808-14.493-64.07-53.628-145.7-36.43
			c-133.242,28.394-257.441,4.318-297.86,0.72c-45.264-4.472-55.762-51.69-88.39-63.72c-17.25-6.1-36.15-1.92-53.59-7.07
			c-16.631-4.901-52.243-37.91-68.62-52.65C91.733,88.566,49.247,107.842,3.37,86.23c-0.882,6.382-0.425,76.634-0.11,83.24
			c21.565,1.1,34.609,0.38,86.56,22.73c62.885,26.765,68.514,51.797,107.19,68.61c16.531,6.776,23.757,5.771,64,5.57
			c31.858-0.254,14.118,8.227,124.03,28.33c76.621,14.756,133.029,15.09,149.97,13.93c63.324-2.938,146.011-52.771,302.83,33.56
			c60.179,34.063,75.718,76.386,136.99,106.18c-11.274,7.294-28.363,4.336-41.22,0.17c-49.368-16.149-73.203-46.847-150.71-75.28
			c-144.678-54.358-249.339,1.348-366.99-24.42c-88.897-20.102-107.747-35.572-133.04-33.44c-7.55,0.57-13.01,8.5-12.12,15.74
			c4.015,22.189,78.114,35.686,100.2,37.4c50.001,3.603,73.694-13.716,148.98,3.21c62.549,13.909,52.337,12.071,142.21,19.39
			c135.589,11.878,176.168,69.103,279.95,120.54c193.331,89.556,158.888,79.731,245.68,150.37
			c25.202,20.57,24.597,30.399,77.6,74.41c17.712,14.842,116.26,88.125,117.26,88.8c28.257,19.576,40.37,20.331,74.38,25.44
			c34.547,5.481,45.183,20.148,59.02,29.41c117.044,81.57,103.714,181.113,265.05,269.67c62.732,34.574,127.766,46.427,137.58,46.94
			c0.87-10.22,0.52-20.48,0.73-30.71C1919.05,1164.4,1919.97,1161.73,1917.93,1161.08z M1367.55,251.48
			c-7.51,0.29-14.99-1.51-21.97-4.14C1353.06,247.03,1360.58,248.82,1367.55,251.48z"/>
		<path d="M1339.55,19.09c-3.31-5.43-8.17-9.61-12.66-14.01c-3.96-3.82-9.82-3.4-14.86-3.01c-16.42,0.23-32.86-0.17-49.27,0.2
			C1284.396,12.597,1320.178,23.773,1339.55,19.09z"/>
		<path d="M1918.66,135.13c-6.629,2.466-29.18-0.549-70.46,28.91c-126.193,88.855-134.925,69.271-167.67,88.25
			c5.07,1.37,10.36,1.58,15.46,2.9c25.036,6.484,35.147,21.368,71.13,28.64c12.032,2.545,33.803,2.907,58.73,13.26
			c19.055,8.125,9.232,4.01,92.77,28.76c0.29-2.29,0.6-4.58,0.71-6.89c0.2-89.741,0.737-85.475-1.78-86.25
			c-46.388-18.581-126.838,4.621-129.7,5.22c13.881-11.67,46.919-19.63,72.22-28.09c20.01-6.99,38.62-17.41,58.68-24.26
			C1920.073,183.068,1919.195,142.807,1918.66,135.13z"/>
		<path d="M1618.1,1814.62c-29.607-23.437-58.802-42.004-90.55-81.17c-84.214-103.326-197.806-171.079-227.99-196.14
			c-66.404-55.983-40.473-106.065-70.51-148.53c-28.429-38.377-51.878-50.433-78.32-77.46
			c-45.994-47.792-38.719-64.474-131.74-153.95c62.778,21.073,55.261,16.712,113.15,51.17c49.559,30.197,57.764,28.903,135.22,91.16
			c135.735,107.973,81.808,77.817,203.38,123.48c25.448,9.56,86.218,42.309,135.04,90.9c43.595,44.033,66.383,59.76,96.35,75.91
			c60.232,32.12,169.734,68.479,217.24,77.58c-0.03-34.76-0.01-69.51,0-104.27c-21.42-17.074-51.713-32.864-82.32-34.11
			c-22.728-0.718-34.531-6.249-57.63-23.45c-66.909-50.683-73.167-112.178-103.83-142.66c-33.905-31.939-77.291-77.6-121.73-92.64
			c-2.88-0.96-5.8-1.77-8.56-3c35.233-3.347,93.361,35.467,121.48,56.64c42.971,31.998,69.215,52.658,131.09,63.31
			c57.71,10.033,96.656,1.076,121.49-0.15c-0.02-10.61-0.02-21.22,0.01-31.83c-8.31-2.56-17.12-2.81-25.54-4.9
			c-20.263-4.896-68.743-19.974-151.75-31.25c-38.527-5.526-87.364-5.805-117.19-37.1c-19.352-20.408-32.775-54.255-57.53-78.44
			c-26.124-26.392-52.697-39.688-94.88-64.17c-23.211-13.135-30.074-30.935-38.7-50.22c-41.027-89.141-101.668-98.08-119.66-148.49
			c-5.956-17.269-16.055-54.766-35.06-106.94c7.814,6.999,120.285,131.511,139.32,147.76c21.595,18.725,86.149,52.048,135.76,90.96
			c69.395,56.09,64.883,122.842,204.94,188.17c20.143,9.423,77.118,33.25,98.06,26.09c-24.14-25.943-63.426-40.5-84.03-49.09
			c-40.421-17.691-73.297-46.79-120.49-103.38c-102.489-122.841-78.646-84.805-118.05-127.01
			c-50.735-53.607-93.882-125.366-159.79-164.28c-31.387-18.704-57.867-20.446-89.17-50.75c-17.51-16.071-39.414-40.279-84.08-54.95
			c-48.662-16.322-106.118-19.466-178.12-74.99c-47.598-35.887-101.467-104.691-172.13-141.73
			c-20.461-10.878-43.973-16.937-100.99-45.87c-62.355-31.023-115.257-35.141-185.2-41.16c-0.002,0-231.07-20.39-231.07-20.39
			c-42.282-2.487-84.513,19.733-124.02-12.22c-38.127-30.327-40.122-70.327-99.94-107.01C44.576,252.318,1.659,265.076,2.8,277.03
			c0.81,11.8-0.75,23.66,0.59,35.44c5.8-1.37,11.57-3.21,17.58-3.27c41.994-1.468,85.345,43.4,110.36,68.47
			c43.439,44.55,73.843,58.176,81.15,63.42c-15.19-1.42-28.7-9.24-42.5-15.11c-30.286-13.534-68.686-12.021-92.53-19.28
			c-24.936-7.45-51.972-25.342-74.21-26.94c-0.283,2.541-0.722,53.08,0.15,65.94c3.46,1.3,7.2,1.61,10.73,2.71
			c17.412,5.104,60.534,26.575,83.35,55.14c27.76,32.64,53.44,66.99,77.62,102.34c13.13,19.32,22.95,40.77,29.39,63.21
			C129.883,540.566,83.237,541.655,3.35,548.19c-1.04,7.57,0.15,15.19-0.43,22.79c-0.356,26.84-0.86,20.241,8.85,27.14
			c92.602,59.811,207.259,132.889,192.14,252.89c-0.6,4.7-1.17,9.46-2.63,14c-2.712-32.165-12.551-61.04-40.18-92.23
			c-68.059-77.7-133.512-58.447-157.79-98.27c-0.959,18.852-0.069,94.114-0.45,133.53c0.28,2.05-0.62,5.48,2.28,5.82
			c34.72,7.22,65.8,25.04,96.77,41.55c36.399,19.887,54.068,24.565,107.55,53.86c76.876,40.092,108.133,34.329,152.66,42.16
			c47.834,8.439,111.784,28.92,147.29,62.15c52.551,51.168,51.462,23.058,168.43,44.49c47.651,9.839,82.456,10.4,112.04,17.92
			c119.314,31.872,192.625,95.538,200.22,110.34c-46.972-29.196-67.963-32.542-106.01-46.26
			c-47.041-15.898-56.169-22.177-125.91-36.21c-28.65-6.169-90.169-20.699-122.3-4.29c10.709,16.952,37.35,11.004,61.23,16.61
			c34.224,7.751,76.711,27.04,114.79,43.18c44.709,19.269,79.637,44.439,108.61,62.32c171.819,108.038,202.161,97.338,236.97,158.71
			c-32.438-20.632-166.827-75.163-195.61-81.91c-47.983-14.808-37.465-18.236-51.84-35.48c-25.244-31.477-64.365-41.653-89.07-49.14
			c-115.504-33.479-176.773-25.7-241.99-25.78c-117.485,2.514-143.235,26.862-244.54-22.21
			c-55.113-24.401-94.574,14.436-158.48-61.84c-23.924-28.725-43.884-72.277-76.3-101.69c-43.438-37.864-63.027-30.7-96.4-31.74
			c-0.484,9.747-0.518,95.727,0.1,100.04c7.9,0.52,15.92-0.3,23.72,1.45c52.215,11.399,148.795,46.049,171.58,94.6
			c-32.745-23.27-24.535-21.961-95.7-41.37c-35.137-9.237-43.839-0.952-82.01-0.42c-6.04,0.21-12.02-0.93-18.05-0.81
			c0.062,20.542-0.813,23.927,2.23,24.4c41.654,9.97,74.774,43.385,109.77,64.57c174.958,104.32,204.071,133.988,202.78,156.9
			c-19.232-28.557-79.97-41.145-139.51-80.34c-38.098-24.183-173.707-83.504-174.71-83.88c-0.23,18.63-0.11,37.27-0.06,55.91
			c66.075-7.348,82.01,81.893,125.59,146.38c21.426,32.138,62.766,77.237,76.74,124.97c-57.7-15.86-66.377-86.654-123.66-111.93
			c-3.26-1.59-7.1-1.93-10.08-4.06c-3.709-3.765-5.776-36.357-33.47-57.35c-10.07-7.49-23.18-7.47-35.16-7.81
			c-1.1,16.36-0.08,32.78-0.51,49.16c0.18,2.58-0.42,6.06,2.26,7.59c59.535,38.201,50.582,95.941,84,129.36
			c23.597,24.053,64.538,32.481,107.32,47.41c86.739,31.436,84.359,102.051,208.14,139.25c40.279,12.126,74.502,16.528,126.62,33.95
			c96.699,33.068,103.461,29.498,125.53,35.31c-14.76,5.228-43.237-4.105-66.56-8.27c-84.102-11.913-114.376,11.504-262.23-49.24
			c-53.955-22.073-140.959-56.481-187.12-16.96c10.137,1.857,30.562-0.788,51.63,27.03c25,32.243,20.002,50.003,67.62,88.27
			c57.566,45.387,97.726,45.806,106.55,47.62c-19.135,8.954-53.296,5.353-74.74,3.06c-88.049-10.095-70.396-40.444-143.65-90.49
			c-0.397-0.276-69.038-42.333-96.2-59.94c-30.534-20.587-30.098-17.7-48.84-40.19c-0.541,18.573-0.217,93.937-0.06,95.28
			c0.03,1.9,2.04,2.61,3.34,3.61c16.13,9.67,28.22,24.35,41.23,37.64c44.896,48.181,56.484,36.4,107.91,52.43
			c26.354,7.994,35.394,19.835,41.05,35.27h272.82c-5.654-34.158-54.214-56.216-85.34-69.3
			c-41.074-16.582-141.26-63.539-149.76-106.48c161.376,128.176,351.295,37.172,428.65,110.83
			c19.735,18.318,41.118,39.865,52.5,64.29c15.436,0.945-46.328,0.66,346.58,0.66c-1.1-1.34-2.23-2.75-3.88-3.36
			c-105.146-48.264-137.737,6.012-216.12-4.82c-29.26-3.841-43.056-20.215-52.42-44.65c-6.474-16.391-8.662-37.658-40.88-61.93
			c-16.46-13.2-35.08-23.35-51.72-36.31c-70.49-53.647-141.369-30.363-146.65-63.04c28.747-6.043,91.46-1.856,157.22,27.32
			c117.506,51.92,48.246,89.751,241.32,102.4c34.082,2.557,78.13,1.898,118.18,22.35c38.467,19.221,47.417,40.453,82.06,62.04
			h125.39c0.14-1.29,0.05-2.53-1.11-3.26c-171.692-153.875-264.139-99.996-425.31-167.09c-7.07-3.12-14.46-5.68-21.11-9.66
			c13.867,0.361,49.145,11.466,62.49,15.58c119.448,36.452,247.102-16.934,444.55,65.99c56.16,23.51,108.91,56.13,152.86,98.44
			h123.15c-2.968-5.719-133.509-68.926-150.95-77.03c-54.382-25.397-88.908-38.948-197.39-75.8
			c-219.012-73.016-243.544-50.346-330.72-64.5c-57.702-8.847-77.133-27.739-100.23-40.29c-57.44-32.346-74.424-27.403-97.12-46.11
			c-37.093-30.869-5.417-94.098-155.12-183.92c-76.832-45.79-154.4-48.39-221.39-98.37c-61.689-45.596-69.772-36.913-122.95-107.41
			c-3.27-4.47-6.55-9.04-8.47-14.27c6.648-1.221,275.75,32.315,276.75,32.44c55.876,7.406,74.315,20.28,104.53,23.42
			c83.59,9.465,180.854,14.889,272.03,45.85c158.562,53.744,190.462,176.496,298.05,237.78c53.779,30.82,90.277,33.636,153.03,82
			c89.153,67.165,282.957,225.943,308.54,258.53c7.04,8.8,13.43,18.09,20.11,27.17c30.31-0.1,60.62,0.16,90.92-0.13
			C1747.249,1915.045,1619.101,1815.397,1618.1,1814.62z M348.95,424.7c1.1,5.3,1.76,10.68,2.36,16.06
			C347.74,436.24,346.93,430.07,348.95,424.7z M295.76,533.14c49.347,39.981,61.678,60.836,138.81,101.34
			c122.082,64.626,259.631,69.034,294.39,62.18c-14.627-43.337-64.395-56.509-101.09-72.55c-27.99-12.783-58.669-8.009-79.86-11.21
			c-4.973-0.646-67.773-12.732-91.81-24.03c-33.713-15.924-92.297-88.1-103.12-143.34c9.333,7.595,3.075,9.395,52.37,40.11
			c84.252,50.78,115.355,48.746,165.02,63.64c157.094,45.276,164.903,62.54,223.26,127.16c53.161,56.832,70.127,79.71,90.14,99.81
			c28.608,28.282,46.721,40.347,90.1,79.86c80.308,70.763,80.163,76.424,99.82,103.15c-2.85-0.8-4.99-2.92-7.35-4.54
			C986.644,898.173,858.519,852.034,797.95,815c-101.285-60.687-234.874-32.226-324.97-74.77
			c-98.263-45.406-195.195-185.657-237.39-224.91c-13.13-13.43-30.47-21.32-46.29-30.98c-0.43-0.44-1.29-1.32-1.72-1.76
			C226.599,481.378,266.475,509.453,295.76,533.14z M379.77,740.22c173.151,100.596,172.28,26.363,252.32,76.3
			c13.627,8.231,35.627,26.349,73.78,31.92c33.662,4.144,109.071,22.497,158.61,54.16c30.166,19.712,53.874,38.485,89.83,48.8
			c-31.413,2.86-68.595-24.272-116.47-37.02c-75.138-19.759-123.096-12.407-137.91-13.8c-58.569-2.644-82.267-58.455-159.9-54.65
			c-34.527,1.036-64.823,10.974-107.15-14.79c-22.103-13.365-49.007-38.074-59.01-60.08c-7.47-16.25-11.67-33.77-19.15-50.02
			c-1.18-1.12-1.23-2.81-1.5-4.29c0.8,1.04,1.14,2.55,2.49,3.08l-0.22,0.32C362.98,727.51,370.58,734.96,379.77,740.22z
			 M658.57,966.11c-18.454-1.755-123.175-3.311-123.5-3.36c-60.709-6.132-78.691-75.51-214.17-94.07
			c-22.129-2.242-53.363,6.389-67.88-3.88c-1.43-0.45-0.29-1.92,0.19-2.61c16.875-24.069,13.599-75.16,16.97-117.14
			c-0.141-39.012-22.739-80.503-40.51-114.93c-19.403-38.652-48.201-63.183-69.75-84.06c-68.714-65.422-58.091-80.577-94.14-92.79
			c73.09-1.671,116.748,57.598,156.08,104.86c12.46,14.89,23.23,31.1,33.18,47.75c11.88,19.25,28.23,35.01,43.03,51.91
			c61.349,67.015,1.531,157.924,142.93,210.09c101.009,37.269,269.492,25.689,356.57,127.41c11.19,13.46,20.56,29.54,22.16,47.28
			C790.678,1036.486,753.008,972.975,658.57,966.11z M807.11,934.11c8.06,0.39,14.46,6.25,19.79,11.77
			C819.86,942.74,813.47,938.4,807.11,934.11z M884.01,1002.04c-31.491-23.507-11.275-4.237-51.97-52.17
			c86.824,42.439,117.618,11.643,164.85,41.33c43.638,26.508,31.439,56.588,179.13,98.18c71.984,19.78,76.693,27.953,94.86,37.08
			c-2.97-6.21-7.39-11.59-10.79-17.56c-24.911-39.799-19.723-43.005-70.53-109.87c-19.581-25.921-114.707-143.254-140.53-167.02
			c-65.637-61.707-102.32-40.179-150.16-140.7c-8.548-16.671-15.754-38.264-43.32-65.78
			C690.667,471.29,541.703,495.478,494.63,464.78c13.357-1.895,103.13-6.111,185.59,20.01
			c106.973,33.088,198.034,123.74,281.08,182.94c52.872,38.859,70.296,77.804,128.55,107.26
			c25.18,13.699,72.392,26.797,102.69,59.47c40.542,41.339,61.092,155.266,93.63,191.42c8.036,9.663,23.015,17.75,40.07,42.66
			c39.433,61.238,103.095,60.767,150.69,129.7c26.787,37.892,35.205,86.865,79.36,156.29c13.103,20.37,36.815,53.005,56.61,66.8
			c-0.98-0.25-1.98-0.75-2.78-1.24c-67.594-41.163-93.534-61.417-155.55-92.69c-147.663-72.524-267.384-195.107-360.46-210.85
			c-17.174-3.415-50.246,0.635-92.65-25.83C976.086,1074.745,919.237,1027.355,884.01,1002.04z M578.64,1491.53
			c78.594,53.65,57.199,128.382,125.22,168.5c23.519,13.767,85.825,39.58,87.08,70.13c-4.21,0-10.5,1.66-12.36-3.5
			c-41.241-100.831-262.431-48.723-311.49-46.14c-172.755,14.736-225.081-121.804-263.09-209.38
			c-16.23-36.29-43.81-65.5-66.52-97.63c-14.44-20.29-20.11-45.44-35.31-65.26c21.82,3.56,41.6,14.02,60.67,24.7
			C253.606,1387.359,440.895,1393.752,578.64,1491.53z M1164.24,1387.73c3.31,1.82,5.83,4.78,7.84,7.94
			C1168.75,1393.83,1166.01,1391.09,1164.24,1387.73z"/>
		<path d="M1919.14,584.02c-38.29-41.478-42.502-47.031-54.07-54.96c-32.54-24.07-72.32-34.56-107.57-53.67
			c-116.548-64.409-92.748-33.201-133.7-53.16c-20.34-11.18-41.42-21.25-60.23-34.99c-5.15-3.44-9.46-7.99-14.87-11.03
			c0.83,0.87,1.73,1.69,2.64,2.53c0.32,2.57,2.63,3.91,3.93,5.93c15.419,22.324,9.986,21.319,34.21,44.8
			c109.605,99.461,161.201,64.236,253.22,141.83c47.778,40.508,52.22,50.16,75.72,85.35
			C1919.85,649.545,1919.296,590.95,1919.14,584.02z"/>
		<path d="M3.36,917.37c30.904,0.204,73.893,26.11,99.08,44.09c54.712,38.8,63.524,61.533,86.53,66.75
			c13.549,3.711,32.054-6.352,79.51,24.28c38.536,24.742,65.019,54.43,119.54,60.49c53.919,5.743,63.95,1.057,85.68,1.59
			c-0.13,0.19-0.4,0.56-0.53,0.75c1.83-0.92,3.9-0.41,5.85-0.32c26.522,2.722,29.159-4.876,47.7-11.38
			c-101.433-6.418-169.548-85.259-233.31-119.14c-36.34-18.875-69.433-20.092-97.97-31.12c-22.523-8.369-49.991-28.536-65.37-36.72
			c-36.528-20.004-50.341-19.429-108.15-36.82c-6.29-1.85-12.33-4.46-18.67-6.09C3.227,874.739,2.774,913.982,3.36,917.37z"/>
		<path d="M411.18,1291.18c0.284,2.273-0.352,0.072,31.85,23.72c33.173,24.35,39.189,18.765,191.45,60.44
			c37.984,10.47,43.065,17.936,77.41,34.98c33.961,15.899,61.81,25.631,83.29,61.67c37.553,64.365,25.899,87.474,101.7,92.97
			c32.007,2.068,97.252,25.346,113.62,33.73c36.403,17.667,62.055,45.018,112.31,67.5c19.475,8.47,59.063,23.569,107.09,46.78
			c46.065,22.219,101.119,57.022,151.14,70.96c68.449,20.178,80.145,13.747,139.58,52.38c3.25,1.9,6.02,4.76,9.83,5.57
			c-5.281-20.717-56.654-40.268-76.38-48.32c-38.534-16.579-63.068-38.747-75.59-48.09c-45.205-34.509-76.793-50.68-140.35-92.56
			c-69.818-45.057-44.338-28.289-78.06-43.9c-25.638-11.963-31.527-20.513-53.54-28.39c-11.491-4.417-25.263-4.119-47.46-18.05
			c-15.132-9.329-26.47-22.811-53.04-30.32c-134.679-38.245-46.362-130.662-247.18-189.98c-70.109-20.613-181.921-29.887-205-30.14
			c-0.13-0.11-0.38-0.33-0.51-0.44c-57.952-1.573-137.479-18.526-149.23-23.81c-7.73-4.78-16.18-8.7-25.09-10.65
			c7.528,5.089,25.324,11.674,30.75,13.41l-0.31,1.21C409.89,1291.68,410.75,1291.35,411.18,1291.18z"/>
		<path d="M235.06,1409.42c0,0,14.938,11.111,21.35,18.36c44.008,47.362,22.067,106.758,82.37,147.3
			c37.404,24.998,86.542,34.014,130.27,42.01c37.669,7.359,65.072-0.735,99.99-5.55c40.421-5.516,69.237,13.265,74.17,15.43
			c-41.266-29.028-91.518-38.456-136.78-62.47c-16.12-8.78-33.8-14.41-49.46-24.09c-14.87-9.567-19.294-20.801-29.38-39.95
			c-20.779-36.144-94.585-66.623-138.65-75.75c-17.76-3.55-35.61-7.55-52.38-14.47C236.19,1410.03,235.43,1409.62,235.06,1409.42z"
			/>
		<path d="M1918.74,1469.52c-7.456-1.888-81.082-38.369-122.98-28.11c20,10.46,42.12,17.44,59.74,32.03
			c25.12,19.995,25.606,43.016,63.16,64.28C1919.58,1529.572,1919.454,1479.271,1918.74,1469.52z"/>
		<path d="M1918.52,1747.33c1.228-8.103,0.832-38.299,0.82-39.3c-1.029-9.65,0.241,1.728-72.36-15.46
			c-83.771-19.03-231.432-83.043-272.81-108.9c-30.235-19.736-51.197-22.693-63.03-27.8c-24.49-9.847-32.036-23.659-46.58-28.18
			c0.54,1,1.25,1.89,2.14,2.64c32.563,24.168,62.114,44.333,84.32,79.68c13.611,20.947,23.777,55.924,50.43,77.54
			c30.005,25.765,64.173,21.967,97.35,59.38c44.845,50.244,74.142,119.069,132.07,136.84c84.205,24.62,33.218,37.311,88.02,34.37
			c-2.76-5-7.87-7.75-12.47-10.74c-2.82-1.62-2.64-5.27-3.81-7.91c-13.981-36.523-91.278-50.963-101.72-91.2
			c10.34,5.66,16.08,17.23,26.99,22.08c10.687,5.187,38.024,5.21,60.21,8.79c11.45,1.77,20.55,9.36,30.5,14.67
			c1.404-8.934,0.749-30.957,0.12-40.24c-35.581-12.017-42.369-21.099-93.71-36.67c-38.873-12.135-51.577-28.36-66.17-42.74
			c-26.906-26.618-42.786-21.617-67.1-39.93c-6.71-5.06-12.24-12.87-11.57-21.63
			C1706.03,1681.156,1767.246,1744.404,1918.52,1747.33z"/>
		<path d="M1368.02,1882.93c-47.687-18.717-88.186-17.052-95.43-15.33c9.399,11.676,48.27,50.455,49.27,51.4
			c1.586,0,98.523,0.143,108.82-0.55C1424.305,1910.734,1398.327,1894.925,1368.02,1882.93z"/>
		<path d="M113.03,1907.81c-28.795,0.396-44.171-1.008-57.75-7.04c-19.719-8.951-41.421-27.189-52.02-30.29
			c-0.417,5.738-0.681,39.327,0.19,48.52h171.28C174.794,1909.982,121.8,1908.098,113.03,1907.81z"/>
		<path d="M542.87,1873.61c-1.53-0.07-3.35,1.16-2.31,2.85c6.28,16.07,21.78,25.28,34.7,35.51c10.389,6.611-5.988,7.905,82.81,6.18
			c-2.47-5.02-6.75-8.72-9.97-13.19C626.226,1875.71,579.243,1870.378,542.87,1873.61z"/>
	</g>
</g>
</svg>
