<svg xmlns="http://www.w3.org/2000/svg" xmlns:xlink="http://www.w3.org/1999/xlink" width="160" zoomAndPan="magnify" viewBox="0 0 120 74.999997" height="100" preserveAspectRatio="xMidYMid meet" version="1.0"><defs><clipPath id="14116d6639"><path d="M 53.078125 9.355469 L 66.746094 9.355469 L 66.746094 61.1875 L 53.078125 61.1875 Z M 53.078125 9.355469 " clip-rule="nonzero"/></clipPath><clipPath id="829a2c5bdc"><path d="M 53.078125 32.289062 L 66.746094 32.289062 L 66.746094 65.644531 L 53.078125 65.644531 Z M 53.078125 32.289062 " clip-rule="nonzero"/></clipPath><clipPath id="f9cf860a90"><path d="M 53.078125 54.527344 L 66.746094 54.527344 L 66.746094 65.644531 L 53.078125 65.644531 Z M 53.078125 54.527344 " clip-rule="nonzero"/></clipPath><clipPath id="63eab4b191"><path d="M 6.417969 39.585938 L 20.085938 39.585938 L 20.085938 65.644531 L 6.417969 65.644531 Z M 6.417969 39.585938 " clip-rule="nonzero"/></clipPath><clipPath id="769fb7e6e3"><path d="M 6.417969 32.289062 L 20.085938 32.289062 L 20.085938 48.851562 L 6.417969 48.851562 Z M 6.417969 32.289062 " clip-rule="nonzero"/></clipPath><clipPath id="74ad91917c"><path d="M 6.417969 9.355469 L 20.085938 9.355469 L 20.085938 34.140625 L 6.417969 34.140625 Z M 6.417969 9.355469 " clip-rule="nonzero"/></clipPath><clipPath id="c543f5d882"><path d="M 29.660156 14.378906 L 43.328125 14.378906 L 43.328125 65.644531 L 29.660156 65.644531 Z M 29.660156 14.378906 " clip-rule="nonzero"/></clipPath><clipPath id="b26987ba74"><path d="M 29.660156 40.710938 L 43.328125 40.710938 L 43.328125 65.644531 L 29.660156 65.644531 Z M 29.660156 40.710938 " clip-rule="nonzero"/></clipPath><clipPath id="8d6c4401ff"><path d="M 29.660156 9.355469 L 43.328125 9.355469 L 43.328125 18.332031 L 29.660156 18.332031 Z M 29.660156 9.355469 " clip-rule="nonzero"/></clipPath><clipPath id="00cf43730a"><path d="M 76.496094 9.355469 L 90.164062 9.355469 L 90.164062 61.1875 L 76.496094 61.1875 Z M 76.496094 9.355469 " clip-rule="nonzero"/></clipPath><clipPath id="3c000d9b01"><path d="M 76.496094 26.132812 L 90.164062 26.132812 L 90.164062 65.644531 L 76.496094 65.644531 Z M 76.496094 26.132812 " clip-rule="nonzero"/></clipPath><clipPath id="1957b0d3c1"><path d="M 76.496094 45.707031 L 90.164062 45.707031 L 90.164062 65.644531 L 76.496094 65.644531 Z M 76.496094 45.707031 " clip-rule="nonzero"/></clipPath><clipPath id="13f43332a0"><path d="M 99.914062 9.355469 L 113.582031 9.355469 L 113.582031 61.1875 L 99.914062 61.1875 Z M 99.914062 9.355469 " clip-rule="nonzero"/></clipPath><clipPath id="0d4e6ea385"><path d="M 99.914062 18.332031 L 113.582031 18.332031 L 113.582031 65.644531 L 99.914062 65.644531 Z M 99.914062 18.332031 " clip-rule="nonzero"/></clipPath><clipPath id="3589a261e0"><path d="M 99.914062 51.246094 L 113.582031 51.246094 L 113.582031 65.644531 L 99.914062 65.644531 Z M 99.914062 51.246094 " clip-rule="nonzero"/></clipPath></defs><g clip-path="url(#14116d6639)"><path fill="#deff80" d="M 53.078125 9.355469 L 66.746094 9.355469 L 66.746094 61.195312 L 53.078125 61.195312 Z M 53.078125 9.355469 " fill-opacity="1" fill-rule="nonzero"/></g><g clip-path="url(#829a2c5bdc)"><path fill="#4adf9f" d="M 53.078125 32.289062 L 66.746094 32.289062 L 66.746094 65.65625 L 53.078125 65.65625 Z M 53.078125 32.289062 " fill-opacity="1" fill-rule="nonzero"/></g><g clip-path="url(#f9cf860a90)"><path fill="#3b9f74" d="M 53.078125 54.527344 L 66.761719 54.527344 L 66.761719 65.644531 L 53.078125 65.644531 Z M 53.078125 54.527344 " fill-opacity="1" fill-rule="nonzero"/></g><g clip-path="url(#63eab4b191)"><path fill="#3b9f74" d="M 6.417969 39.585938 L 20.085938 39.585938 L 20.085938 65.640625 L 6.417969 65.640625 Z M 6.417969 39.585938 " fill-opacity="1" fill-rule="nonzero"/></g><g clip-path="url(#769fb7e6e3)"><path fill="#4adf9f" d="M 6.417969 32.289062 L 20.085938 32.289062 L 20.085938 48.839844 L 6.417969 48.839844 Z M 6.417969 32.289062 " fill-opacity="1" fill-rule="nonzero"/></g><g clip-path="url(#74ad91917c)"><path fill="#deff80" d="M 6.417969 9.355469 L 20.085938 9.355469 L 20.085938 34.125 L 6.417969 34.125 Z M 6.417969 9.355469 " fill-opacity="1" fill-rule="nonzero"/></g><g clip-path="url(#c543f5d882)"><path fill="#4adf9f" d="M 29.660156 14.378906 L 43.328125 14.378906 L 43.328125 65.632812 L 29.660156 65.632812 Z M 29.660156 14.378906 " fill-opacity="1" fill-rule="nonzero"/></g><g clip-path="url(#b26987ba74)"><path fill="#3b9f74" d="M 29.660156 40.710938 L 43.328125 40.710938 L 43.328125 65.644531 L 29.660156 65.644531 Z M 29.660156 40.710938 " fill-opacity="1" fill-rule="nonzero"/></g><g clip-path="url(#8d6c4401ff)"><path fill="#deff80" d="M 29.660156 9.355469 L 43.335938 9.355469 L 43.335938 18.332031 L 29.660156 18.332031 Z M 29.660156 9.355469 " fill-opacity="1" fill-rule="nonzero"/></g><g clip-path="url(#00cf43730a)"><path fill="#deff80" d="M 76.496094 9.355469 L 90.164062 9.355469 L 90.164062 61.195312 L 76.496094 61.195312 Z M 76.496094 9.355469 " fill-opacity="1" fill-rule="nonzero"/></g><g clip-path="url(#3c000d9b01)"><path fill="#4adf9f" d="M 76.496094 26.132812 L 90.164062 26.132812 L 90.164062 65.640625 L 76.496094 65.640625 Z M 76.496094 26.132812 " fill-opacity="1" fill-rule="nonzero"/></g><g clip-path="url(#1957b0d3c1)"><path fill="#3b9f74" d="M 76.496094 45.707031 L 90.164062 45.707031 L 90.164062 65.621094 L 76.496094 65.621094 Z M 76.496094 45.707031 " fill-opacity="1" fill-rule="nonzero"/></g><g clip-path="url(#13f43332a0)"><path fill="#deff80" d="M 99.914062 9.355469 L 113.582031 9.355469 L 113.582031 61.195312 L 99.914062 61.195312 Z M 99.914062 9.355469 " fill-opacity="1" fill-rule="nonzero"/></g><g clip-path="url(#0d4e6ea385)"><path fill="#4adf9f" d="M 99.914062 18.332031 L 113.582031 18.332031 L 113.582031 65.636719 L 99.914062 65.636719 Z M 99.914062 18.332031 " fill-opacity="1" fill-rule="nonzero"/></g><g clip-path="url(#3589a261e0)"><path fill="#3b9f74" d="M 99.914062 51.246094 L 113.582031 51.246094 L 113.582031 65.660156 L 99.914062 65.660156 Z M 99.914062 51.246094 " fill-opacity="1" fill-rule="nonzero"/></g></svg>