<svg xmlns="http://www.w3.org/2000/svg" xmlns:xlink="http://www.w3.org/1999/xlink" width="160" zoomAndPan="magnify" viewBox="0 0 120 74.999997" height="100" preserveAspectRatio="xMidYMid meet" version="1.0"><defs><clipPath id="91fa4279fe"><path d="M 37 21.46875 L 54 21.46875 L 54 31 L 37 31 Z M 37 21.46875 " clip-rule="nonzero"/></clipPath><clipPath id="9de42d7a9f"><path d="M 52.507812 26.023438 C 43.65625 29.925781 40.957031 31.199219 39.382812 30.898438 C 38.40625 30.675781 37.355469 29.773438 37.207031 29.023438 C 36.980469 28.273438 37.804688 26.851562 38.332031 26.398438 C 38.78125 26.101562 39.304688 26.023438 39.832031 26.175781 C 40.429688 26.324219 41.332031 26.851562 41.632812 27.449219 C 41.929688 28.050781 41.855469 29.101562 41.554688 29.699219 C 41.179688 30.226562 40.28125 30.898438 39.679688 30.898438 C 38.929688 30.824219 37.582031 30 37.28125 29.324219 C 36.980469 28.648438 37.28125 27.601562 37.582031 27.074219 C 37.882812 26.625 38.179688 26.550781 38.78125 26.25 C 40.804688 25.199219 49.65625 21.523438 51.832031 21.601562 C 52.582031 21.601562 52.957031 21.898438 53.257812 22.273438 C 53.632812 22.648438 54.007812 23.25 53.929688 23.773438 C 53.855469 24.523438 52.507812 26.023438 52.507812 26.023438 " clip-rule="nonzero"/></clipPath><clipPath id="ea713063bc"><path d="M 13 10.078125 L 76.101562 10.078125 L 76.101562 35.652344 L 13 35.652344 Z M 13 10.078125 " clip-rule="nonzero"/></clipPath><clipPath id="897b3a63a7"><path d="M 44.632812 35.625 C 40.957031 33.523438 40.730469 32.398438 41.03125 31.648438 C 41.332031 30.75 42.082031 30 43.429688 29.398438 C 46.429688 27.976562 55.207031 27.75 60.457031 27.449219 C 64.882812 27.148438 70.207031 26.851562 72.832031 27.375 C 74.179688 27.675781 75.230469 28.050781 75.679688 28.648438 C 75.980469 29.101562 76.054688 29.625 75.980469 30.148438 C 75.832031 30.675781 75.457031 31.351562 74.707031 31.726562 C 73.429688 32.398438 70.882812 32.175781 67.65625 31.875 C 60.304688 31.199219 38.332031 26.851562 32.257812 24.523438 C 29.929688 23.625 28.730469 22.949219 27.757812 21.976562 C 27.082031 21.300781 26.78125 20.773438 26.480469 19.875 C 26.105469 18.675781 25.730469 16.574219 25.882812 15.148438 C 26.03125 13.949219 26.332031 12.449219 27.007812 11.773438 C 27.605469 11.25 28.132812 11.324219 29.40625 11.175781 C 33.605469 10.800781 54.53125 10.273438 57.304688 12.523438 C 58.207031 13.199219 58.28125 14.476562 57.980469 15.148438 C 57.679688 15.898438 57.007812 16.273438 55.730469 16.726562 C 51.382812 18.226562 32.179688 17.699219 24.832031 18.449219 C 20.78125 18.824219 17.179688 20.101562 15.304688 19.800781 C 14.480469 19.726562 13.957031 19.425781 13.65625 19.050781 C 13.28125 18.601562 13.132812 17.699219 13.355469 17.175781 C 13.507812 16.648438 14.105469 16.125 14.707031 15.898438 C 15.53125 15.523438 16.429688 15.75 18.15625 15.824219 C 23.78125 15.976562 49.957031 18.074219 54.15625 19.125 C 55.054688 19.351562 55.429688 19.425781 55.804688 19.800781 C 56.105469 20.101562 56.332031 20.625 56.40625 21.074219 C 56.40625 21.523438 56.332031 22.125 56.03125 22.425781 C 55.65625 22.875 55.054688 23.101562 54.304688 23.25 C 52.730469 23.550781 49.957031 23.023438 46.730469 22.648438 C 41.179688 21.898438 29.480469 18.898438 23.78125 18.449219 C 20.40625 18.148438 17.554688 19.199219 15.679688 18.523438 C 14.554688 18.148438 13.429688 17.324219 13.207031 16.5 C 13.054688 15.675781 13.804688 14.25 14.40625 13.648438 C 14.929688 13.199219 15.757812 13.125 16.582031 13.125 C 17.855469 13.050781 20.332031 13.199219 21.15625 14.023438 C 21.757812 14.625 22.054688 16.199219 21.679688 16.875 C 21.382812 17.550781 19.804688 18.300781 19.054688 18.148438 C 18.304688 18 17.257812 16.726562 17.105469 15.976562 C 17.03125 15.300781 17.554688 14.324219 18.007812 13.949219 C 18.382812 13.574219 18.980469 13.425781 19.507812 13.425781 C 19.957031 13.351562 20.554688 13.5 20.929688 13.875 C 21.382812 14.25 21.980469 15.226562 21.90625 15.898438 C 21.90625 16.5 21.304688 17.476562 20.855469 17.851562 C 20.40625 18.148438 19.882812 18.300781 19.355469 18.226562 C 18.679688 18.074219 17.707031 17.625 17.257812 16.949219 C 16.730469 16.273438 16.28125 14.398438 16.804688 13.875 C 17.40625 13.125 19.429688 13.726562 21.90625 13.949219 C 28.132812 14.550781 51.15625 16.800781 54.90625 19.273438 C 56.03125 20.023438 56.480469 20.925781 56.40625 21.523438 C 56.257812 22.199219 55.582031 22.875 54.304688 23.25 C 49.429688 24.75 19.132812 22.199219 14.855469 19.800781 C 13.730469 19.125 13.28125 18.300781 13.207031 17.625 C 13.207031 17.175781 13.507812 16.648438 13.882812 16.351562 C 14.257812 15.976562 14.632812 15.898438 15.53125 15.675781 C 20.179688 14.625 51.605469 10.125 56.332031 12 C 57.53125 12.449219 57.980469 13.351562 58.132812 14.023438 C 58.28125 14.550781 57.980469 15.226562 57.679688 15.675781 C 57.382812 16.125 57.082031 16.425781 56.332031 16.648438 C 53.332031 17.550781 38.40625 17.175781 34.207031 16.5 C 32.480469 16.273438 31.132812 15.074219 30.679688 15.449219 C 30.230469 15.824219 30.53125 17.175781 30.757812 17.851562 C 30.980469 18.601562 31.207031 19.199219 32.105469 19.800781 C 34.730469 21.601562 45.53125 23.625 51.382812 24.898438 C 56.105469 25.949219 60.457031 26.699219 64.582031 27.148438 C 68.105469 27.601562 72.832031 27.074219 74.480469 27.75 C 75.15625 27.976562 75.457031 28.199219 75.679688 28.648438 C 75.90625 29.175781 76.054688 30.074219 75.832031 30.601562 C 75.53125 31.199219 75.082031 31.574219 74.257812 31.875 C 72.007812 32.550781 65.332031 31.125 60.679688 31.425781 C 55.582031 31.648438 46.65625 35.023438 44.855469 33.675781 C 44.03125 33.074219 44.03125 31.125 44.40625 30.824219 C 44.707031 30.601562 46.054688 31.199219 46.582031 31.574219 C 47.03125 31.949219 47.332031 32.476562 47.40625 33 C 47.40625 33.601562 47.105469 34.574219 46.65625 35.023438 C 46.207031 35.476562 44.632812 35.625 44.632812 35.625 " clip-rule="nonzero"/></clipPath><clipPath id="d35203f57d"><path d="M 68.519531 14.242188 L 96.632812 14.242188 L 96.632812 43 L 68.519531 43 Z M 68.519531 14.242188 " clip-rule="nonzero"/></clipPath><clipPath id="aa9867c50d"><path d="M 96.53125 24.449219 C 96.53125 33.449219 95.480469 35.773438 94.132812 37.5 C 92.78125 39.226562 90.757812 40.800781 88.804688 41.699219 C 86.78125 42.601562 84.230469 43.050781 82.054688 42.898438 C 79.882812 42.824219 77.40625 42.074219 75.53125 40.875 C 73.65625 39.75 71.855469 37.949219 70.730469 36.074219 C 69.605469 34.199219 68.855469 31.800781 68.707031 29.550781 C 68.554688 27.375 69.007812 24.898438 69.90625 22.875 C 70.804688 20.851562 72.382812 18.824219 74.105469 17.476562 C 75.90625 16.125 78.15625 15.074219 80.332031 14.699219 C 82.507812 14.324219 85.054688 14.476562 87.15625 15.074219 C 89.257812 15.75 93.007812 18.675781 93.007812 18.675781 " clip-rule="nonzero"/></clipPath><clipPath id="e2711cdd23"><path d="M 71.667969 12 L 99.785156 12 L 99.785156 40.839844 L 71.667969 40.839844 Z M 71.667969 12 " clip-rule="nonzero"/></clipPath><clipPath id="f66a2396bd"><path d="M 99.679688 22.199219 C 99.679688 31.125 98.632812 33.449219 97.28125 35.175781 C 95.929688 36.898438 93.980469 38.476562 91.957031 39.375 C 89.929688 40.273438 87.457031 40.800781 85.207031 40.648438 C 83.03125 40.5 80.632812 39.75 78.679688 38.625 C 76.804688 37.425781 75.007812 35.699219 73.882812 33.75 C 72.757812 31.875 72.007812 29.476562 71.855469 27.300781 C 71.707031 25.050781 72.15625 22.574219 73.054688 20.550781 C 74.03125 18.523438 75.53125 16.574219 77.332031 15.226562 C 79.054688 13.800781 81.382812 12.75 83.554688 12.375 C 85.65625 12 88.207031 12.148438 90.304688 12.824219 C 92.40625 13.425781 96.15625 16.351562 96.15625 16.351562 " clip-rule="nonzero"/></clipPath><clipPath id="0320efb224"><path d="M 69.578125 12.648438 L 98.355469 12.648438 L 98.355469 41.425781 L 69.578125 41.425781 Z M 69.578125 12.648438 " clip-rule="nonzero"/></clipPath><clipPath id="09159a229a"><path d="M 83.929688 41.324219 C 78.007812 40.050781 76.582031 39.300781 75.304688 38.398438 C 74.105469 37.5 73.054688 36.300781 72.15625 35.023438 C 71.332031 33.824219 70.65625 32.324219 70.207031 30.898438 C 69.832031 29.398438 69.679688 27.824219 69.757812 26.324219 C 69.832031 24.75 70.132812 23.175781 70.730469 21.75 C 71.257812 20.398438 72.15625 18.976562 73.132812 17.851562 C 74.105469 16.648438 75.304688 15.601562 76.65625 14.851562 C 77.929688 14.101562 79.429688 13.5 80.929688 13.125 C 82.355469 12.824219 84.007812 12.75 85.507812 12.898438 C 87.007812 13.050781 88.582031 13.5 89.929688 14.101562 C 91.355469 14.773438 92.632812 15.675781 93.757812 16.726562 C 94.882812 17.773438 95.855469 19.050781 96.53125 20.398438 C 97.28125 21.75 97.804688 23.25 98.03125 24.75 C 98.257812 26.25 98.257812 27.898438 98.03125 29.398438 C 97.804688 30.898438 97.28125 32.398438 96.53125 33.75 C 95.855469 35.101562 94.882812 36.375 93.757812 37.425781 C 92.632812 38.476562 91.355469 39.375 89.929688 39.976562 C 88.582031 40.648438 87.007812 41.101562 85.507812 41.25 C 84.007812 41.398438 82.355469 41.324219 80.929688 40.949219 C 79.429688 40.648438 77.929688 40.050781 76.582031 39.300781 C 75.304688 38.476562 74.105469 37.425781 73.132812 36.300781 C 72.15625 35.101562 71.257812 33.75 70.730469 32.324219 C 70.132812 30.898438 69.832031 29.324219 69.757812 27.824219 C 69.679688 26.324219 69.832031 24.675781 70.207031 23.25 C 70.65625 21.75 71.332031 20.324219 72.15625 19.050781 C 73.054688 17.773438 74.105469 16.648438 75.382812 15.75 C 76.582031 14.773438 78.007812 14.023438 79.429688 13.574219 C 80.855469 13.050781 82.28125 12.75 83.929688 12.824219 C 85.957031 12.898438 88.882812 13.648438 90.605469 14.398438 C 91.804688 15 92.480469 15.449219 93.457031 16.351562 C 94.730469 17.699219 96.53125 20.324219 97.28125 21.976562 C 97.882812 23.175781 98.03125 24 98.105469 25.351562 C 98.257812 27.148438 97.882812 30.300781 97.28125 32.101562 C 96.90625 33.375 96.53125 34.125 95.707031 35.175781 C 94.582031 36.601562 92.554688 38.625 90.605469 39.675781 C 88.65625 40.726562 84.007812 41.324219 84.007812 41.324219 " clip-rule="nonzero"/></clipPath><clipPath id="b4a5a441d7"><path d="M 83.367188 12.292969 L 111.484375 12.292969 L 111.484375 41.214844 L 83.367188 41.214844 Z M 83.367188 12.292969 " clip-rule="nonzero"/></clipPath><clipPath id="48c8dff66f"><path d="M 111.382812 22.574219 C 111.382812 31.5 110.332031 33.824219 108.980469 35.550781 C 107.632812 37.351562 105.605469 38.851562 103.582031 39.75 C 101.554688 40.726562 99.082031 41.175781 96.90625 41.023438 C 94.65625 40.875 92.257812 40.125 90.382812 39 C 88.507812 37.875 86.707031 36.074219 85.582031 34.125 C 84.382812 32.25 83.632812 29.851562 83.554688 27.675781 C 83.40625 25.425781 83.855469 22.949219 84.757812 20.925781 C 85.65625 18.898438 87.230469 16.949219 88.957031 15.601562 C 90.679688 14.175781 93.007812 13.199219 95.179688 12.75 C 97.355469 12.375 99.90625 12.523438 102.007812 13.199219 C 104.105469 13.875 107.855469 16.726562 107.855469 16.726562 " clip-rule="nonzero"/></clipPath><clipPath id="bb35a5edc0"><path d="M 8.21875 16 L 36.332031 16 L 36.332031 44.8125 L 8.21875 44.8125 Z M 8.21875 16 " clip-rule="nonzero"/></clipPath><clipPath id="9fd2e2d3de"><path d="M 36.230469 26.175781 C 36.304688 35.175781 35.257812 37.425781 33.90625 39.226562 C 32.480469 40.949219 30.53125 42.523438 28.507812 43.425781 C 26.480469 44.324219 24.007812 44.773438 21.757812 44.625 C 19.582031 44.476562 17.179688 43.726562 15.304688 42.601562 C 13.355469 41.476562 11.632812 39.675781 10.429688 37.800781 C 9.304688 35.851562 8.554688 33.449219 8.40625 31.273438 C 8.332031 29.023438 8.78125 26.550781 9.679688 24.523438 C 10.582031 22.5 12.15625 20.550781 13.882812 19.199219 C 15.605469 17.851562 17.929688 16.800781 20.105469 16.351562 C 22.28125 15.976562 24.757812 16.125 26.929688 16.800781 C 29.03125 17.476562 32.707031 20.324219 32.707031 20.324219 " clip-rule="nonzero"/></clipPath><clipPath id="cccee20cd9"><path d="M 8.21875 14 L 36.332031 14 L 36.332031 42.714844 L 8.21875 42.714844 Z M 8.21875 14 " clip-rule="nonzero"/></clipPath><clipPath id="27b247f1d7"><path d="M 36.230469 24 C 36.230469 33 35.179688 35.324219 33.832031 37.050781 C 32.480469 38.773438 30.457031 40.351562 28.429688 41.25 C 26.40625 42.148438 23.929688 42.601562 21.757812 42.523438 C 19.507812 42.375 17.105469 41.625 15.230469 40.5 C 13.355469 39.300781 11.554688 37.5 10.429688 35.625 C 9.230469 33.75 8.480469 31.351562 8.40625 29.101562 C 8.257812 26.925781 8.707031 24.449219 9.605469 22.425781 C 10.507812 20.398438 12.082031 18.449219 13.804688 17.023438 C 15.53125 15.675781 17.855469 14.625 20.03125 14.25 C 22.207031 13.875 24.757812 14.023438 26.855469 14.699219 C 28.957031 15.300781 32.707031 18.226562 32.707031 18.226562 " clip-rule="nonzero"/></clipPath><clipPath id="8784173ad8"><path d="M 102.292969 12.203125 L 113.53125 12.203125 L 113.53125 40.558594 L 102.292969 40.558594 Z M 102.292969 12.203125 " clip-rule="nonzero"/></clipPath><clipPath id="2a5b4c5a35"><path d="M 112.957031 17.175781 C 113.105469 36.601562 112.957031 37.425781 112.28125 38.25 C 111.679688 39.074219 110.632812 39.898438 109.507812 40.125 C 108.15625 40.425781 105.832031 40.050781 104.707031 39.074219 C 103.582031 38.175781 102.757812 36 102.90625 34.574219 C 103.054688 33.074219 104.332031 31.125 105.605469 30.449219 C 106.882812 29.773438 109.28125 29.773438 110.554688 30.449219 C 111.832031 31.125 113.179688 33.074219 113.332031 34.5 C 113.480469 35.925781 112.582031 38.175781 111.53125 39.074219 C 110.40625 40.050781 108.082031 40.5 106.730469 40.125 C 105.304688 39.75 103.804688 38.25 103.132812 36.75 C 102.304688 35.023438 102.757812 32.773438 102.679688 30.226562 C 102.605469 26.625 102.304688 20.101562 102.90625 17.175781 C 103.132812 15.675781 103.507812 14.699219 104.105469 13.875 C 104.632812 13.199219 105.304688 12.75 106.132812 12.523438 C 107.105469 12.226562 108.679688 12.226562 109.65625 12.523438 C 110.480469 12.75 111.15625 13.199219 111.679688 13.875 C 112.28125 14.699219 112.957031 17.175781 112.957031 17.175781 " clip-rule="nonzero"/></clipPath><clipPath id="ee45f8c34b"><path d="M 58 22.117188 L 86 22.117188 L 86 51 L 58 51 Z M 58 22.117188 " clip-rule="nonzero"/></clipPath><clipPath id="6a5df505d6"><path d="M 85.957031 32.324219 C 85.957031 41.324219 84.90625 43.648438 83.554688 45.375 C 82.207031 47.101562 80.179688 48.675781 78.15625 49.574219 C 76.132812 50.476562 73.65625 50.925781 71.480469 50.851562 C 69.230469 50.699219 66.832031 49.949219 64.957031 48.824219 C 63.082031 47.625 61.28125 45.824219 60.15625 43.949219 C 58.957031 42.074219 58.207031 39.675781 58.132812 37.425781 C 57.980469 35.25 58.429688 32.773438 59.332031 30.75 C 60.230469 28.726562 61.804688 26.773438 63.53125 25.351562 C 65.257812 24 67.582031 22.949219 69.757812 22.574219 C 71.929688 22.199219 74.480469 22.351562 76.582031 23.023438 C 78.679688 23.625 82.429688 26.550781 82.429688 26.550781 " clip-rule="nonzero"/></clipPath><clipPath id="c7ee446e6d"><path d="M 68.070312 40.433594 L 81.203125 40.433594 L 81.203125 53.941406 L 68.070312 53.941406 Z M 68.070312 40.433594 " clip-rule="nonzero"/></clipPath><clipPath id="82cf731d4b"><path d="M 81.15625 45.199219 C 81.15625 49.40625 80.667969 50.492188 80.035156 51.296875 C 79.40625 52.101562 78.457031 52.839844 77.511719 53.257812 C 76.566406 53.679688 75.410156 53.890625 74.394531 53.855469 C 73.34375 53.785156 72.222656 53.433594 71.347656 52.910156 C 70.46875 52.347656 69.628906 51.507812 69.105469 50.632812 C 68.542969 49.753906 68.191406 48.632812 68.15625 47.582031 C 68.085938 46.566406 68.296875 45.410156 68.71875 44.464844 C 69.136719 43.519531 69.875 42.605469 70.679688 41.941406 C 71.484375 41.3125 72.574219 40.820312 73.589844 40.644531 C 74.605469 40.46875 75.796875 40.539062 76.777344 40.855469 C 77.757812 41.136719 79.511719 42.503906 79.511719 42.503906 " clip-rule="nonzero"/></clipPath><clipPath id="2517a0e11c"><path d="M 7 23.183594 L 49.46875 23.183594 L 49.46875 58.726562 L 7 58.726562 Z M 7 23.183594 " clip-rule="nonzero"/></clipPath><clipPath id="416950cb06"><path d="M 9.082031 49.574219 C 39.304688 25.726562 41.40625 23.925781 43.132812 23.476562 C 44.179688 23.25 44.855469 23.398438 45.679688 23.699219 C 46.65625 24.074219 48.007812 25.199219 48.605469 26.101562 C 49.132812 26.851562 49.28125 27.675781 49.355469 28.5 C 49.355469 29.324219 49.355469 29.925781 48.832031 31.050781 C 47.179688 34.050781 36.082031 43.800781 33.679688 45.75 C 32.929688 46.273438 32.78125 46.5 32.179688 46.726562 C 31.28125 47.023438 29.78125 47.324219 28.730469 47.023438 C 27.605469 46.800781 26.40625 46.050781 25.730469 45.226562 C 25.054688 44.398438 24.53125 43.050781 24.457031 41.925781 C 24.457031 40.875 24.832031 39.523438 25.429688 38.625 C 26.105469 37.726562 27.382812 36.898438 28.28125 36.523438 C 28.882812 36.300781 29.332031 36.226562 30.007812 36.226562 C 30.90625 36.375 32.40625 36.75 33.304688 37.425781 C 34.132812 38.101562 34.882812 39.449219 35.257812 40.351562 C 35.40625 40.949219 35.480469 41.398438 35.40625 42.074219 C 35.257812 43.050781 34.804688 44.476562 34.054688 45.300781 C 33.304688 46.125 32.105469 46.875 31.054688 47.101562 C 29.929688 47.324219 28.582031 47.101562 27.605469 46.648438 C 26.554688 46.199219 25.582031 45 25.054688 44.25 C 24.679688 43.648438 24.605469 43.199219 24.53125 42.523438 C 24.457031 41.625 24.382812 40.5 25.132812 39.074219 C 27.007812 35.699219 37.804688 26.476562 40.804688 24.523438 C 41.855469 23.851562 42.304688 23.625 43.132812 23.476562 C 44.257812 23.398438 45.832031 23.625 46.882812 24.226562 C 47.855469 24.898438 48.757812 26.25 49.132812 27.226562 C 49.429688 28.125 49.429688 28.949219 49.207031 29.773438 C 48.90625 30.824219 48.457031 31.574219 47.179688 33 C 42.90625 37.648438 19.65625 56.023438 14.03125 58.050781 C 12.382812 58.648438 11.554688 58.574219 10.507812 58.273438 C 9.457031 57.898438 8.332031 57 7.804688 56.023438 C 7.207031 55.125 6.980469 53.625 7.207031 52.574219 C 7.429688 51.523438 9.082031 49.574219 9.082031 49.574219 " clip-rule="nonzero"/></clipPath><clipPath id="ebe6441153"><path d="M 22 22.3125 L 90.574219 22.3125 L 90.574219 50.472656 L 22 50.472656 Z M 22 22.3125 " clip-rule="nonzero"/></clipPath><clipPath id="aeeb15dbc1"><path d="M 26.179688 37.800781 C 38.480469 34.125 42.53125 29.398438 43.957031 30.148438 C 45.15625 30.75 45.679688 36.226562 44.632812 37.425781 C 43.582031 38.476562 40.429688 37.726562 38.03125 37.273438 C 34.730469 36.601562 28.804688 35.25 26.929688 33.074219 C 25.582031 31.574219 25.132812 28.949219 25.65625 27.300781 C 26.105469 25.648438 28.054688 24.148438 29.632812 23.324219 C 31.132812 22.574219 32.78125 22.648438 34.804688 22.574219 C 37.882812 22.425781 43.28125 22.648438 46.28125 23.101562 C 48.304688 23.398438 49.957031 23.398438 51.304688 24.300781 C 52.65625 25.199219 54.082031 27 54.230469 28.5 C 54.457031 30.074219 53.480469 32.324219 52.429688 33.523438 C 51.605469 34.5 49.882812 35.175781 48.980469 35.398438 C 48.457031 35.476562 48.15625 35.398438 47.632812 35.175781 C 46.730469 34.875 45.082031 33.976562 44.332031 32.925781 C 43.65625 31.875 43.207031 30.300781 43.355469 29.023438 C 43.507812 27.824219 44.332031 26.324219 45.230469 25.5 C 46.207031 24.675781 47.632812 24.074219 48.980469 24.074219 C 50.632812 24.074219 52.132812 24.898438 54.457031 25.949219 C 59.105469 28.050781 69.230469 36.523438 74.78125 37.425781 C 78.382812 37.949219 81.605469 35.398438 84.082031 35.476562 C 85.65625 35.476562 86.929688 35.699219 87.980469 36.449219 C 89.03125 37.199219 89.929688 38.699219 90.304688 39.824219 C 90.53125 40.726562 90.457031 41.699219 90.230469 42.601562 C 90.007812 43.425781 89.554688 44.324219 88.957031 45 C 88.355469 45.675781 87.679688 46.5 86.707031 46.5 C 84.90625 46.574219 79.804688 43.648438 78.980469 41.925781 C 78.53125 40.800781 79.132812 39.300781 79.730469 38.324219 C 80.257812 37.351562 81.382812 36.300781 82.429688 35.851562 C 83.480469 35.398438 84.980469 35.324219 86.105469 35.550781 C 87.230469 35.851562 88.429688 36.675781 89.179688 37.574219 C 89.929688 38.476562 90.382812 39.824219 90.457031 41.023438 C 90.457031 42.148438 89.855469 43.648438 89.332031 44.476562 C 89.03125 45.074219 88.582031 45.449219 88.054688 45.824219 C 87.53125 46.199219 87.082031 46.5 86.40625 46.648438 C 85.429688 46.875 83.78125 46.949219 82.730469 46.5 C 81.605469 46.125 80.480469 45.226562 79.882812 44.25 C 79.207031 43.273438 78.980469 41.699219 78.980469 40.648438 C 78.980469 39.976562 79.054688 39.523438 79.429688 38.851562 C 79.882812 38.023438 80.855469 36.75 81.832031 36.148438 C 82.882812 35.550781 84.457031 35.398438 85.429688 35.476562 C 86.179688 35.476562 86.632812 35.625 87.230469 36 C 88.054688 36.523438 90.007812 38.324219 89.855469 38.625 C 89.632812 38.925781 82.65625 36.226562 82.730469 35.773438 C 82.730469 35.476562 84.53125 35.324219 85.429688 35.476562 C 86.332031 35.550781 87.230469 35.925781 87.980469 36.449219 C 88.730469 36.976562 89.40625 37.726562 89.78125 38.550781 C 90.230469 39.300781 90.457031 40.273438 90.457031 41.175781 C 90.457031 42.074219 90.15625 43.050781 89.78125 43.875 C 89.332031 44.625 88.882812 45.226562 87.90625 45.898438 C 86.332031 47.023438 82.65625 48.523438 80.257812 49.199219 C 78.15625 49.726562 76.957031 50.398438 74.332031 49.949219 C 68.179688 48.75 48.832031 37.125 45.230469 33.976562 C 44.257812 33 44.03125 32.625 43.730469 31.726562 C 43.355469 30.601562 43.355469 28.800781 43.730469 27.75 C 44.03125 26.851562 44.480469 26.101562 45.230469 25.5 C 46.132812 24.824219 48.90625 23.925781 48.980469 24.074219 C 49.054688 24.226562 47.105469 24.898438 46.582031 25.949219 C 45.605469 27.601562 47.105469 33.375 45.832031 34.425781 C 44.78125 35.25 42.304688 34.273438 40.65625 33.675781 C 39.007812 33 36.53125 31.875 36.007812 30.523438 C 35.554688 29.25 36.230469 26.476562 37.582031 25.726562 C 39.53125 24.523438 46.429688 26.625 48.980469 28.125 C 50.707031 29.175781 52.132812 30.675781 52.507812 32.25 C 52.882812 33.976562 51.980469 36.675781 50.929688 38.175781 C 49.957031 39.523438 48.382812 40.199219 46.65625 41.175781 C 44.179688 42.601562 40.730469 44.398438 37.429688 45.523438 C 34.132812 46.648438 29.40625 48 26.929688 47.699219 C 25.507812 47.550781 24.457031 47.101562 23.632812 46.273438 C 22.882812 45.523438 22.207031 44.175781 22.132812 43.125 C 22.054688 42 22.507812 40.574219 23.179688 39.675781 C 23.855469 38.851562 26.179688 37.800781 26.179688 37.800781 " clip-rule="nonzero"/></clipPath><clipPath id="1901535bf8"><path d="M 43.726562 10.246094 L 84.339844 10.246094 L 84.339844 40.527344 L 43.726562 40.527344 Z M 43.726562 10.246094 " clip-rule="nonzero"/></clipPath><clipPath id="ddb9535522"><path d="M 59.40625 10.273438 C 67.355469 10.949219 74.40625 11.925781 77.332031 13.425781 C 79.054688 14.25 79.882812 15.300781 80.855469 16.5 C 81.90625 17.699219 82.730469 19.125 83.257812 20.625 C 83.78125 22.050781 84.15625 23.699219 84.230469 25.199219 C 84.304688 26.773438 84.082031 28.425781 83.632812 29.925781 C 83.179688 31.425781 82.507812 32.925781 81.605469 34.199219 C 80.707031 35.476562 79.507812 36.601562 78.304688 37.574219 C 77.03125 38.476562 75.53125 39.226562 74.105469 39.675781 C 72.605469 40.199219 70.957031 40.425781 69.382812 40.425781 C 67.882812 40.351562 66.230469 40.125 64.730469 39.601562 C 63.304688 39.074219 61.882812 38.25 60.605469 37.273438 C 59.40625 36.375 58.28125 35.101562 57.457031 33.824219 C 56.554688 32.550781 55.882812 30.976562 55.507812 29.476562 C 55.132812 27.976562 54.980469 26.324219 55.054688 24.824219 C 55.207031 23.25 55.582031 21.675781 56.179688 20.175781 C 56.707031 18.75 57.605469 17.398438 58.65625 16.199219 C 59.632812 15 60.90625 13.949219 62.257812 13.199219 C 63.605469 12.449219 65.179688 11.851562 66.679688 11.476562 C 68.179688 11.175781 69.90625 11.101562 71.40625 11.324219 C 72.980469 11.550781 74.554688 12 75.980469 12.675781 C 77.332031 13.351562 78.679688 14.25 79.804688 15.375 C 80.929688 16.425781 81.90625 17.773438 82.582031 19.125 C 83.332031 20.550781 83.855469 22.125 84.082031 23.625 C 84.304688 25.199219 84.230469 26.851562 84.007812 28.351562 C 83.707031 29.925781 83.179688 31.5 82.429688 32.851562 C 81.679688 34.199219 80.632812 35.476562 79.507812 36.523438 C 78.382812 37.574219 76.957031 38.476562 75.53125 39.148438 C 74.105469 39.75 72.53125 40.199219 70.957031 40.351562 C 69.457031 40.5 67.804688 40.351562 66.304688 40.050781 C 64.730469 39.675781 62.40625 37.875 61.882812 38.175781 C 61.65625 38.398438 62.179688 39.148438 61.882812 39.375 C 61.132812 40.050781 56.257812 39.148438 53.855469 38.25 C 51.605469 37.5 49.507812 36.226562 48.007812 34.648438 C 46.429688 33 45.15625 30.824219 44.480469 28.726562 C 43.882812 26.550781 43.730469 24 44.179688 21.824219 C 44.632812 19.648438 45.679688 17.324219 47.105469 15.601562 C 48.53125 13.800781 50.554688 12.300781 52.582031 11.398438 C 54.605469 10.5 59.40625 10.273438 59.40625 10.273438 " clip-rule="nonzero"/></clipPath><clipPath id="0bfe1a27e5"><path d="M 64.191406 11.460938 L 108.925781 11.460938 L 108.925781 45 L 64.191406 45 Z M 64.191406 11.460938 " clip-rule="nonzero"/></clipPath><clipPath id="1601b7082e"><path d="M 91.054688 19.199219 C 92.554688 20.699219 90.082031 13.648438 91.207031 12.449219 C 91.957031 11.550781 94.429688 12.074219 95.929688 12.300781 C 97.507812 12.523438 99.15625 13.050781 100.507812 13.726562 C 101.929688 14.476562 103.28125 15.449219 104.40625 16.574219 C 105.53125 17.699219 106.507812 19.050781 107.179688 20.476562 C 107.929688 21.898438 108.382812 23.476562 108.605469 25.050781 C 108.832031 26.625 108.757812 28.273438 108.457031 29.851562 C 108.15625 31.351562 107.554688 32.925781 106.804688 34.351562 C 105.980469 35.699219 104.929688 36.976562 103.730469 38.023438 C 102.605469 39.074219 101.179688 39.976562 99.757812 40.574219 C 98.257812 41.25 96.605469 41.625 95.03125 41.773438 C 93.53125 41.851562 91.804688 41.699219 90.304688 41.324219 C 88.730469 40.949219 87.230469 40.273438 85.882812 39.449219 C 84.605469 38.550781 83.332031 37.425781 82.355469 36.226562 C 81.382812 35.023438 80.554688 33.523438 80.03125 32.023438 C 79.429688 30.523438 79.132812 28.875 79.132812 27.300781 C 79.054688 25.726562 79.28125 24.074219 79.804688 22.574219 C 80.257812 21.074219 81.007812 19.574219 81.90625 18.300781 C 82.882812 17.023438 84.007812 15.824219 85.355469 14.925781 C 86.632812 14.023438 88.132812 13.273438 89.632812 12.824219 C 91.132812 12.375 92.78125 12.148438 94.355469 12.226562 C 95.929688 12.226562 97.582031 12.523438 99.082031 13.125 C 100.582031 13.648438 102.007812 14.476562 103.207031 15.449219 C 104.480469 16.5 105.605469 17.699219 106.429688 19.050781 C 107.257812 20.398438 107.929688 21.898438 108.304688 23.476562 C 108.679688 24.976562 108.832031 26.699219 108.679688 28.273438 C 108.53125 29.773438 108.15625 31.425781 107.480469 32.851562 C 106.882812 34.351562 105.980469 35.773438 104.929688 36.898438 C 103.804688 38.101562 102.53125 39 101.179688 39.898438 C 99.605469 40.875 98.179688 41.773438 95.929688 42.449219 C 92.332031 43.5 85.882812 45.300781 81.230469 44.324219 C 76.507812 43.351562 70.355469 39 67.804688 36.300781 C 66.230469 34.648438 65.707031 33.074219 65.179688 31.199219 C 64.582031 29.175781 64.28125 26.550781 64.65625 24.375 C 65.03125 22.199219 66.382812 19.648438 67.429688 18.074219 C 68.179688 16.949219 68.929688 16.273438 69.832031 15.601562 C 70.730469 14.851562 71.554688 14.25 72.757812 13.726562 C 74.554688 13.050781 77.332031 12.300781 79.507812 12.449219 C 81.757812 12.523438 84.230469 13.273438 86.105469 14.398438 C 88.054688 15.523438 91.054688 19.199219 91.054688 19.199219 " clip-rule="nonzero"/></clipPath><clipPath id="1b3eed2493"><path d="M 8.21875 27.367188 L 36.332031 27.367188 L 36.332031 56.289062 L 8.21875 56.289062 Z M 8.21875 27.367188 " clip-rule="nonzero"/></clipPath><clipPath id="bc7c311503"><path d="M 36.230469 37.574219 C 36.304688 46.574219 35.257812 48.898438 33.90625 50.625 C 32.480469 52.351562 30.53125 53.925781 28.507812 54.824219 C 26.480469 55.726562 24.007812 56.175781 21.757812 56.023438 C 19.582031 55.875 17.179688 55.125 15.304688 54 C 13.355469 52.875 11.632812 51.074219 10.429688 49.199219 C 9.304688 47.324219 8.554688 44.851562 8.40625 42.675781 C 8.332031 40.5 8.78125 37.949219 9.679688 36 C 10.582031 33.976562 12.15625 31.949219 13.882812 30.601562 C 15.605469 29.25 17.929688 28.199219 20.105469 27.824219 C 22.28125 27.375 24.757812 27.523438 26.929688 28.199219 C 29.03125 28.875 32.707031 31.726562 32.707031 31.726562 " clip-rule="nonzero"/></clipPath><clipPath id="dc613a159e"><path d="M 8.230469 23.300781 L 37 23.300781 L 37 52.210938 L 8.230469 52.210938 Z M 8.230469 23.300781 " clip-rule="nonzero"/></clipPath><clipPath id="9f56f1b052"><path d="M 8.40625 37.726562 C 9.605469 31.726562 10.355469 30.300781 11.332031 29.101562 C 12.230469 27.898438 13.429688 26.773438 14.632812 25.949219 C 15.90625 25.050781 17.40625 24.375 18.832031 24 C 20.332031 23.625 21.90625 23.398438 23.40625 23.476562 C 24.90625 23.550781 26.554688 23.925781 27.90625 24.523438 C 29.332031 25.050781 30.757812 25.875 31.882812 26.851562 C 33.007812 27.824219 34.054688 29.101562 34.882812 30.375 C 35.632812 31.648438 36.230469 33.148438 36.605469 34.648438 C 36.90625 36.148438 36.980469 37.726562 36.832031 39.300781 C 36.679688 40.800781 36.230469 42.300781 35.554688 43.726562 C 34.957031 45.074219 34.054688 46.425781 33.007812 47.550781 C 31.957031 48.601562 30.679688 49.574219 29.332031 50.324219 C 27.980469 51 26.480469 51.523438 24.980469 51.824219 C 23.480469 52.050781 21.832031 52.050781 20.332031 51.824219 C 18.832031 51.523438 17.332031 51 15.980469 50.324219 C 14.632812 49.574219 13.355469 48.601562 12.304688 47.550781 C 11.257812 46.425781 10.355469 45.074219 9.757812 43.726562 C 9.082031 42.300781 8.632812 40.800781 8.480469 39.300781 C 8.332031 37.726562 8.40625 36.148438 8.707031 34.648438 C 9.082031 33.148438 9.679688 31.648438 10.429688 30.375 C 11.257812 29.101562 12.304688 27.824219 13.429688 26.851562 C 14.554688 25.875 15.980469 25.050781 17.40625 24.449219 C 18.757812 23.925781 20.40625 23.550781 21.90625 23.476562 C 23.40625 23.398438 24.980469 23.625 26.480469 24 C 27.90625 24.375 29.40625 25.050781 30.679688 25.949219 C 31.882812 26.773438 33.082031 27.898438 33.980469 29.101562 C 34.957031 30.300781 35.707031 31.726562 36.15625 33.148438 C 36.679688 34.648438 36.980469 36.074219 36.90625 37.726562 C 36.832031 39.75 36.007812 42.675781 35.257812 44.324219 C 34.730469 45.523438 34.28125 46.273438 33.304688 47.175781 C 32.03125 48.523438 29.40625 50.324219 27.757812 51.074219 C 26.554688 51.601562 25.507812 51.75 24.382812 51.898438 C 23.257812 52.050781 22.28125 52.125 20.929688 51.898438 C 19.132812 51.523438 16.355469 50.699219 14.554688 49.5 C 12.757812 48.226562 11.105469 46.351562 10.054688 44.398438 C 9.007812 42.449219 8.40625 37.726562 8.40625 37.726562 " clip-rule="nonzero"/></clipPath><clipPath id="186c4742e4"><path d="M 8.304688 13.015625 L 90.945312 13.015625 L 90.945312 44.128906 L 8.304688 44.128906 Z M 8.304688 13.015625 " clip-rule="nonzero"/></clipPath><clipPath id="eecf1b059d"><path d="M 22.957031 13.125 C 68.179688 13.425781 68.332031 14.625 69.53125 14.773438 C 70.882812 15 72.679688 13.726562 74.257812 13.574219 C 75.90625 13.5 77.632812 13.574219 79.207031 14.023438 C 80.78125 14.398438 82.355469 15.074219 83.707031 15.976562 C 85.054688 16.800781 86.40625 18 87.382812 19.273438 C 88.429688 20.476562 89.257812 22.050781 89.78125 23.550781 C 90.382812 25.050781 90.679688 26.773438 90.757812 28.351562 C 90.757812 30 90.53125 31.726562 90.082031 33.300781 C 89.632812 34.800781 88.804688 36.375 87.90625 37.648438 C 86.929688 39 85.730469 40.199219 84.382812 41.175781 C 83.105469 42.074219 81.53125 42.898438 79.957031 43.351562 C 78.457031 43.800781 76.730469 44.023438 75.082031 44.023438 C 73.429688 43.949219 71.78125 43.648438 70.28125 43.050781 C 68.707031 42.523438 67.207031 41.699219 65.929688 40.648438 C 64.65625 39.601562 63.53125 38.324219 62.632812 36.976562 C 61.804688 35.625 61.132812 34.050781 60.757812 32.476562 C 60.304688 30.898438 60.230469 29.175781 60.304688 27.523438 C 60.457031 25.949219 60.90625 24.226562 61.507812 22.726562 C 62.179688 21.300781 63.082031 19.800781 64.207031 18.601562 C 65.257812 17.398438 66.605469 16.273438 68.03125 15.523438 C 69.457031 14.699219 71.03125 14.101562 72.679688 13.800781 C 74.257812 13.5 75.980469 13.5 77.554688 13.726562 C 79.207031 13.875 80.855469 14.398438 82.28125 15.148438 C 83.78125 15.898438 85.132812 16.875 86.257812 18 C 87.457031 19.199219 88.429688 20.550781 89.179688 22.050781 C 89.855469 23.476562 90.382812 25.125 90.605469 26.773438 C 90.832031 28.351562 90.757812 30.074219 90.457031 31.648438 C 90.15625 33.226562 89.554688 34.875 88.730469 36.300781 C 87.980469 37.726562 86.855469 39.074219 85.65625 40.125 C 84.457031 41.25 83.40625 42.148438 81.53125 42.75 C 78.230469 43.800781 71.78125 43.425781 66.832031 43.351562 C 61.730469 43.273438 57.230469 42.523438 51.230469 42.375 C 43.28125 42.074219 28.054688 42.601562 23.179688 42.300781 C 21.457031 42.226562 21.007812 42.300781 19.65625 41.925781 C 17.855469 41.324219 15.007812 39.898438 13.507812 38.699219 C 12.382812 37.875 11.855469 37.273438 11.105469 36.074219 C 10.132812 34.5 8.929688 31.425781 8.632812 29.550781 C 8.332031 28.273438 8.332031 27.375 8.554688 26.023438 C 8.929688 24.148438 9.757812 21.375 11.03125 19.5 C 12.304688 17.625 14.179688 15.898438 16.207031 14.851562 C 18.230469 13.800781 22.957031 13.125 22.957031 13.125 " clip-rule="nonzero"/></clipPath><clipPath id="6832ec6f24"><path d="M 8.21875 13 L 36.332031 13 L 36.332031 41.8125 L 8.21875 41.8125 Z M 8.21875 13 " clip-rule="nonzero"/></clipPath><clipPath id="d8ad344c43"><path d="M 36.230469 23.101562 C 36.230469 32.101562 35.179688 34.425781 33.832031 36.148438 C 32.480469 37.875 30.457031 39.449219 28.429688 40.351562 C 26.40625 41.25 23.929688 41.699219 21.757812 41.550781 C 19.507812 41.476562 17.105469 40.726562 15.230469 39.523438 C 13.355469 38.398438 11.554688 36.601562 10.429688 34.726562 C 9.230469 32.851562 8.480469 30.449219 8.40625 28.199219 C 8.257812 26.023438 8.707031 23.550781 9.605469 21.523438 C 10.507812 19.5 12.082031 17.476562 13.804688 16.125 C 15.53125 14.773438 17.855469 13.726562 20.03125 13.351562 C 22.207031 12.976562 24.757812 13.125 26.855469 13.726562 C 28.957031 14.398438 32.707031 17.25 32.707031 17.25 " clip-rule="nonzero"/></clipPath><clipPath id="7b8c02d13f"><path d="M 6 11.253906 L 111.699219 11.253906 L 111.699219 65 L 6 65 Z M 6 11.253906 " clip-rule="nonzero"/></clipPath><clipPath id="9778ccd6cd"><path d="M 17.632812 16.050781 C 18.382812 56.25 18.082031 59.398438 17.40625 59.476562 C 16.730469 59.550781 16.207031 55.273438 14.855469 54.675781 C 13.507812 54.074219 9.605469 56.699219 9.230469 56.175781 C 8.855469 55.726562 10.804688 53.101562 12.605469 51.675781 C 15.757812 49.351562 22.507812 48.375 27.980469 45.824219 C 34.65625 42.75 41.332031 37.574219 49.507812 34.199219 C 59.40625 30.226562 75.90625 27.75 83.480469 24.75 C 87.53125 23.101562 89.554688 21.75 92.332031 20.023438 C 95.105469 18.226562 97.730469 15.449219 100.28125 14.101562 C 102.230469 13.050781 104.257812 12.074219 105.90625 12 C 107.179688 12 108.457031 12.449219 109.355469 13.199219 C 110.257812 13.875 111.082031 15.074219 111.382812 16.199219 C 111.679688 17.324219 111.605469 18.75 111.230469 19.800781 C 110.78125 20.925781 109.65625 22.050781 108.832031 22.574219 C 108.304688 23.023438 107.855469 23.175781 107.105469 23.324219 C 106.132812 23.398438 104.40625 23.25 103.507812 22.875 C 102.832031 22.648438 102.457031 22.351562 102.007812 21.824219 C 101.332031 21.148438 100.429688 19.800781 100.28125 18.675781 C 100.054688 17.476562 100.355469 16.050781 100.882812 15.074219 C 101.40625 14.023438 102.679688 13.050781 103.507812 12.523438 C 104.105469 12.226562 104.554688 12.074219 105.304688 12.074219 C 106.28125 12 107.855469 12.226562 108.832031 12.824219 C 109.804688 13.425781 110.78125 14.699219 111.230469 15.601562 C 111.53125 16.199219 111.53125 16.800781 111.605469 17.398438 C 111.605469 18 111.605469 18.601562 111.382812 19.273438 C 111.082031 20.175781 110.257812 21.601562 109.355469 22.273438 C 108.457031 22.949219 107.332031 22.726562 105.90625 23.398438 C 102.90625 24.976562 97.355469 30.148438 92.929688 32.550781 C 88.957031 34.648438 85.507812 35.773438 80.78125 37.273438 C 74.554688 39.226562 63.53125 41.175781 58.355469 42.824219 C 55.507812 43.800781 54.605469 44.175781 51.90625 45.523438 C 46.957031 47.851562 38.03125 53.773438 31.582031 56.851562 C 26.03125 59.550781 19.804688 61.949219 15.679688 63.226562 C 13.207031 64.050781 11.03125 65.398438 9.457031 64.726562 C 7.957031 64.050781 6.90625 61.574219 6.382812 59.476562 C 5.855469 56.773438 7.207031 53.773438 7.507812 49.425781 C 7.957031 41.476562 6.457031 20.773438 7.882812 15.675781 C 8.332031 14.023438 8.78125 13.351562 9.605469 12.601562 C 10.429688 11.925781 11.855469 11.476562 12.90625 11.476562 C 14.03125 11.550781 15.382812 12.074219 16.132812 12.824219 C 16.957031 13.574219 17.632812 16.050781 17.632812 16.050781 " clip-rule="nonzero"/></clipPath><clipPath id="fa93882464"><path d="M 69.585938 54.730469 L 74.878906 54.730469 L 74.878906 59.488281 L 69.585938 59.488281 Z M 69.585938 54.730469 " clip-rule="nonzero"/></clipPath><clipPath id="5c4cd84487"><path d="M 71.632812 54.898438 C 74.632812 56.023438 74.855469 57.074219 74.632812 57.675781 C 74.480469 58.273438 73.804688 59.023438 73.207031 59.25 C 72.605469 59.398438 71.632812 59.25 71.105469 58.875 C 70.582031 58.5 70.207031 57.601562 70.207031 57 C 70.207031 56.324219 70.730469 55.5 71.257812 55.125 C 71.78125 54.824219 72.832031 54.75 73.429688 54.976562 C 73.957031 55.273438 74.554688 56.101562 74.707031 56.699219 C 74.855469 57.148438 74.78125 57.675781 74.480469 58.125 C 74.179688 58.648438 73.355469 59.175781 72.757812 59.324219 C 72.082031 59.476562 71.179688 59.324219 70.65625 59.023438 C 70.207031 58.726562 69.832031 58.199219 69.757812 57.675781 C 69.605469 57.226562 69.679688 56.550781 69.90625 56.101562 C 70.207031 55.574219 71.632812 54.898438 71.632812 54.898438 " clip-rule="nonzero"/></clipPath><clipPath id="2e2656185f"><path d="M 104.160156 28.246094 L 110.417969 28.246094 L 110.417969 40 L 104.160156 40 Z M 104.160156 28.246094 " clip-rule="nonzero"/></clipPath><clipPath id="194e6851f3"><path d="M 110.40625 30.601562 C 108.382812 39.601562 107.105469 40.050781 106.355469 39.824219 C 105.605469 39.601562 104.707031 38.25 104.632812 37.5 C 104.632812 36.824219 105.15625 35.851562 105.757812 35.550781 C 106.28125 35.175781 107.332031 35.101562 107.929688 35.324219 C 108.605469 35.550781 109.28125 36.375 109.355469 37.050781 C 109.507812 37.726562 109.207031 38.699219 108.757812 39.226562 C 108.304688 39.675781 107.257812 39.976562 106.582031 39.898438 C 105.980469 39.75 105.15625 39.300781 104.855469 38.476562 C 104.179688 36.898438 105.230469 31.574219 105.832031 30 C 106.132812 29.324219 106.355469 28.949219 106.804688 28.726562 C 107.179688 28.425781 107.855469 28.273438 108.382812 28.351562 C 108.90625 28.351562 109.507812 28.726562 109.804688 29.101562 C 110.179688 29.476562 110.40625 30.601562 110.40625 30.601562 " clip-rule="nonzero"/></clipPath><clipPath id="0c88de3154"><path d="M 12 39 L 60.34375 39 L 60.34375 65 L 12 65 Z M 12 39 " clip-rule="nonzero"/></clipPath><clipPath id="229b1f1d25"><path d="M 37.882812 56.175781 C 22.132812 63.148438 15.679688 65.25 13.65625 64.351562 C 12.679688 63.898438 12.082031 62.625 12.15625 61.875 C 12.230469 61.050781 12.757812 60.226562 13.957031 59.550781 C 17.707031 57.449219 35.40625 56.398438 42.832031 55.949219 C 47.40625 55.648438 51.082031 55.574219 54.007812 55.949219 C 55.882812 56.175781 57.53125 56.398438 58.582031 57.074219 C 59.332031 57.523438 59.929688 58.273438 60.082031 58.949219 C 60.304688 59.699219 60.082031 60.675781 59.707031 61.273438 C 59.332031 61.875 58.957031 62.324219 57.90625 62.699219 C 54.082031 64.125 33.980469 65.699219 28.730469 64.199219 C 26.554688 63.601562 24.832031 62.324219 24.53125 61.351562 C 24.382812 60.675781 24.757812 60 25.507812 59.25 C 27.457031 57.226562 38.257812 51.523438 40.132812 52.425781 C 41.03125 52.875 41.105469 54.824219 40.882812 55.648438 C 40.65625 56.398438 40.132812 56.699219 39.15625 57.375 C 36.53125 59.023438 25.65625 63.601562 22.507812 63.898438 C 21.230469 63.976562 20.632812 63.675781 19.882812 63.375 C 19.132812 63 18.230469 62.476562 17.929688 61.800781 C 17.554688 61.199219 17.554688 60.074219 17.78125 59.324219 C 17.929688 58.574219 18.230469 58.199219 19.132812 57.300781 C 21.605469 54.75 31.882812 47.851562 37.507812 44.699219 C 41.707031 42.226562 46.804688 38.773438 49.207031 39.074219 C 50.40625 39.300781 51.457031 40.425781 51.679688 41.324219 C 51.832031 42.148438 50.929688 43.800781 50.179688 44.25 C 49.507812 44.625 48.304688 44.550781 47.632812 44.175781 C 46.957031 43.800781 46.355469 42.75 46.28125 42 C 46.207031 41.25 46.730469 40.125 47.257812 39.675781 C 47.855469 39.226562 49.054688 39 49.804688 39.226562 C 50.480469 39.449219 51.457031 40.273438 51.605469 41.023438 C 51.757812 41.851562 51.382812 42.976562 50.40625 44.101562 C 48.082031 46.800781 37.957031 50.625 33.304688 53.550781 C 30.007812 55.726562 27.007812 58.648438 25.054688 59.625 C 24.082031 60.074219 23.480469 60.375 22.804688 60.226562 C 22.132812 60 20.855469 58.425781 21.007812 58.125 C 21.15625 57.898438 22.429688 58.5 23.554688 58.351562 C 26.105469 57.898438 32.332031 54.300781 35.78125 53.101562 C 38.179688 52.273438 40.582031 51.300781 42.082031 51.449219 C 43.054688 51.601562 43.957031 51.898438 44.257812 52.574219 C 44.632812 53.476562 44.105469 55.574219 43.054688 56.773438 C 41.257812 58.800781 34.882812 60.824219 32.40625 61.425781 C 31.132812 61.726562 30.230469 62.023438 29.480469 61.648438 C 28.582031 61.273438 27.230469 59.625 27.605469 58.875 C 28.429688 57.148438 42.230469 57.75 47.332031 57.824219 C 50.632812 57.824219 54.304688 57.375 55.355469 58.425781 C 55.957031 59.101562 56.105469 60.675781 55.355469 61.425781 C 53.480469 63.375 41.179688 61.050781 34.355469 61.648438 C 27.679688 62.175781 18.230469 65.25 14.855469 64.574219 C 13.582031 64.273438 12.757812 63.75 12.382812 63.074219 C 12.007812 62.398438 12.082031 61.351562 12.53125 60.675781 C 13.054688 59.773438 14.707031 59.398438 16.28125 58.875 C 18.679688 57.976562 22.730469 57.824219 26.03125 56.699219 C 29.554688 55.5 34.582031 51.976562 36.605469 51.75 C 37.355469 51.675781 37.804688 51.824219 38.257812 52.125 C 38.632812 52.351562 39.082031 52.875 39.230469 53.398438 C 39.382812 53.851562 39.304688 54.523438 39.082031 55.050781 C 38.855469 55.5 37.882812 56.175781 37.882812 56.175781 " clip-rule="nonzero"/></clipPath><clipPath id="3b912223ac"><path d="M 108 26 L 115 26 L 115 64 L 108 64 Z M 108 26 " clip-rule="nonzero"/></clipPath><clipPath id="03771653a1"><path d="M 108.105469 26.296875 L 114.605469 26.34375 L 114.339844 63.503906 L 107.839844 63.457031 Z M 108.105469 26.296875 " clip-rule="nonzero"/></clipPath><clipPath id="802b3ce4a8"><path d="M 108.398438 61.105469 C 108.488281 27.804688 108.867188 27.285156 109.394531 26.839844 C 109.847656 26.542969 110.449219 26.320312 111.046875 26.398438 C 111.722656 26.554688 112.765625 27.164062 113.136719 27.691406 C 113.433594 28.21875 113.503906 28.816406 113.5 29.34375 C 113.421875 29.867188 113.191406 30.539062 112.742188 30.910156 C 112.210938 31.359375 111.160156 31.800781 110.410156 31.644531 C 109.660156 31.566406 108.765625 30.734375 108.472656 30.132812 C 108.175781 29.679688 108.105469 29.003906 108.257812 28.480469 C 108.5625 27.730469 109.996094 26.617188 110.746094 26.398438 C 111.273438 26.328125 111.945312 26.554688 112.320312 26.859375 C 112.917969 27.3125 113.210938 27.839844 113.503906 29.117188 C 114.523438 33.476562 114.121094 58.074219 112.96875 61.664062 C 112.664062 62.488281 112.4375 62.710938 112.058594 63.007812 C 111.609375 63.304688 110.933594 63.449219 110.40625 63.371094 C 109.957031 63.367188 109.359375 62.988281 108.988281 62.609375 C 108.691406 62.234375 108.398438 61.105469 108.398438 61.105469 " clip-rule="nonzero"/></clipPath><clipPath id="dca0787dde"><path d="M 35.441406 40.019531 L 73.304688 40.019531 L 73.304688 63 L 35.441406 63 Z M 35.441406 40.019531 " clip-rule="nonzero"/></clipPath><clipPath id="693d003437"><path d="M 39.15625 44.175781 C 48.679688 40.273438 50.707031 40.050781 52.429688 40.574219 C 54.15625 41.101562 56.03125 42.601562 57.007812 44.175781 C 57.980469 45.675781 58.507812 47.851562 58.429688 49.726562 C 58.28125 51.675781 56.554688 55.648438 56.03125 55.574219 C 55.429688 55.5 54.230469 50.925781 55.054688 49.949219 C 55.882812 48.976562 60.53125 49.050781 60.757812 49.648438 C 60.980469 50.25 56.929688 51.976562 56.332031 53.699219 C 55.730469 55.425781 58.054688 59.550781 57.382812 59.925781 C 56.40625 60.449219 50.480469 55.351562 49.28125 53.101562 C 48.53125 51.601562 48.457031 49.949219 48.832031 48.523438 C 49.207031 47.175781 50.40625 45.601562 51.457031 44.851562 C 52.355469 44.175781 53.40625 43.875 54.382812 43.800781 C 55.355469 43.648438 56.257812 43.726562 57.457031 44.175781 C 59.332031 44.851562 61.957031 47.324219 64.207031 48.523438 C 66.304688 49.648438 69.082031 49.949219 70.582031 51.226562 C 71.707031 52.125 72.53125 53.324219 72.90625 54.601562 C 73.28125 55.875 73.207031 57.601562 72.757812 58.800781 C 72.304688 60 71.179688 61.351562 70.054688 62.023438 C 68.929688 62.699219 67.355469 63.074219 66.007812 62.925781 C 64.65625 62.851562 63.15625 62.175781 62.179688 61.273438 C 61.207031 60.375 60.457031 58.648438 60.230469 57.601562 C 60.007812 56.773438 60.082031 56.175781 60.15625 55.425781 C 60.304688 54.75 60.382812 54.148438 60.832031 53.476562 C 61.429688 52.5 62.632812 51.074219 63.832031 50.550781 C 65.03125 49.949219 66.832031 49.875 67.957031 50.023438 C 68.78125 50.175781 69.304688 50.324219 69.980469 50.773438 C 70.882812 51.449219 72.230469 52.726562 72.679688 53.925781 C 73.207031 55.199219 73.28125 56.851562 72.980469 58.125 C 72.605469 59.398438 71.480469 60.824219 70.65625 61.648438 C 70.054688 62.175781 69.679688 62.398438 68.78125 62.625 C 67.28125 63 64.429688 63.226562 62.03125 62.550781 C 58.730469 61.5 53.40625 57.300781 51.304688 55.425781 C 50.257812 54.523438 49.730469 54.074219 49.28125 53.101562 C 48.757812 51.898438 48.457031 49.949219 48.832031 48.523438 C 49.207031 47.175781 50.40625 45.601562 51.457031 44.851562 C 52.355469 44.175781 53.332031 43.800781 54.382812 43.800781 C 55.65625 43.726562 57.230469 44.101562 58.804688 44.925781 C 61.207031 46.199219 65.480469 49.125 66.90625 51.601562 C 68.105469 53.625 68.929688 56.476562 68.179688 58.199219 C 67.207031 60.148438 63.605469 61.949219 60.832031 62.324219 C 57.605469 62.773438 52.65625 60.898438 49.730469 59.625 C 47.632812 58.726562 45.53125 57.976562 44.707031 56.25 C 43.804688 54.226562 45.679688 47.625 45.832031 47.625 C 45.980469 47.625 46.65625 52.648438 45.832031 53.851562 C 45.082031 54.824219 43.355469 55.050781 42.082031 55.125 C 40.730469 55.199219 39.082031 54.824219 38.105469 54.226562 C 37.28125 53.773438 36.679688 53.023438 36.230469 52.199219 C 35.855469 51.449219 35.480469 50.550781 35.554688 49.574219 C 35.632812 48.449219 36.230469 46.726562 36.90625 45.75 C 37.507812 45 39.15625 44.175781 39.15625 44.175781 " clip-rule="nonzero"/></clipPath><clipPath id="e3fc59e55d"><path d="M 75.722656 30.039062 L 113.582031 30.039062 L 113.582031 64.617188 L 75.722656 64.617188 Z M 75.722656 30.039062 " clip-rule="nonzero"/></clipPath><clipPath id="6d74c04fc2"><path d="M 79.132812 52.5 C 96.15625 41.023438 99.679688 33 102.304688 31.199219 C 103.429688 30.375 104.179688 30.300781 105.15625 30.226562 C 106.132812 30.148438 107.257812 30.300781 108.15625 30.75 C 109.054688 31.125 109.957031 31.648438 110.632812 32.550781 C 111.382812 33.601562 111.679688 34.875 111.980469 36.824219 C 112.730469 40.875 113.554688 51.601562 112.65625 56.175781 C 112.207031 58.875 111.53125 61.125 110.105469 62.398438 C 108.757812 63.523438 106.507812 63.75 104.632812 63.898438 C 102.757812 64.050781 101.03125 63.375 98.929688 63.300781 C 96.082031 63.300781 91.582031 64.574219 89.03125 64.273438 C 87.382812 64.050781 86.105469 63.675781 84.980469 62.925781 C 83.929688 62.101562 82.957031 60.675781 82.582031 59.398438 C 82.28125 58.050781 82.355469 56.324219 82.804688 55.125 C 83.332031 53.851562 84.457031 52.574219 85.582031 51.824219 C 86.78125 51.148438 88.429688 50.773438 89.78125 50.925781 C 91.132812 51.074219 92.632812 51.824219 93.605469 52.726562 C 94.582031 53.625 95.332031 55.351562 95.632812 56.476562 C 95.855469 57.300781 95.855469 57.824219 95.632812 58.648438 C 95.332031 59.773438 94.429688 61.574219 93.679688 62.398438 C 93.082031 63 92.632812 63.375 91.882812 63.601562 C 90.757812 64.050781 88.957031 64.351562 87.605469 64.125 C 86.332031 63.824219 84.832031 62.925781 83.929688 61.875 C 83.105469 60.898438 82.429688 59.25 82.355469 57.898438 C 82.28125 56.625 82.730469 54.976562 83.480469 53.851562 C 84.304688 52.726562 85.507812 51.824219 86.929688 51.226562 C 88.65625 50.476562 90.832031 50.25 93.304688 50.101562 C 96.605469 49.875 105.082031 50.25 105.082031 50.773438 C 105.15625 51.074219 100.804688 53.175781 99.605469 52.273438 C 97.582031 50.773438 98.707031 37.949219 99.605469 34.726562 C 99.980469 33.449219 100.429688 32.851562 101.105469 32.101562 C 101.78125 31.425781 102.679688 30.75 103.65625 30.523438 C 104.929688 30.148438 106.882812 30.148438 108.15625 30.75 C 109.429688 31.273438 110.78125 32.550781 111.382812 33.824219 C 111.980469 35.101562 112.054688 36.976562 111.757812 38.324219 C 111.457031 39.601562 110.855469 40.425781 109.882812 41.851562 C 107.78125 44.925781 102.90625 51.523438 98.855469 54.824219 C 95.332031 57.75 90.757812 59.773438 87.53125 61.273438 C 85.207031 62.324219 83.179688 63.523438 81.382812 63.449219 C 80.03125 63.375 78.53125 62.699219 77.632812 61.875 C 76.730469 60.976562 76.054688 59.324219 75.90625 58.199219 C 75.757812 57.226562 75.90625 56.324219 76.28125 55.425781 C 76.804688 54.375 79.132812 52.5 79.132812 52.5 " clip-rule="nonzero"/></clipPath><clipPath id="827355f1b1"><path d="M 66.5 53 L 112.339844 53 L 112.339844 63.578125 L 66.5 63.578125 Z M 66.5 53 " clip-rule="nonzero"/></clipPath><clipPath id="1978bc6dea"><path d="M 76.355469 62.925781 C 68.105469 62.476562 67.054688 62.023438 66.832031 61.273438 C 66.53125 60.449219 67.054688 58.800781 67.730469 58.050781 C 68.332031 57.449219 69.304688 57.300781 70.355469 57 C 71.632812 56.550781 73.730469 55.949219 74.929688 56.023438 C 75.757812 56.023438 76.582031 56.175781 77.03125 56.625 C 77.554688 57.148438 78.007812 58.648438 77.707031 59.398438 C 77.40625 60.074219 76.207031 60.75 75.382812 60.976562 C 74.707031 61.125 73.804688 60.976562 73.207031 60.675781 C 72.679688 60.449219 72.230469 59.925781 72.007812 59.398438 C 71.855469 58.875 71.78125 58.125 72.007812 57.601562 C 72.304688 57 72.832031 56.398438 73.804688 56.023438 C 76.207031 55.125 83.632812 56.25 88.507812 55.800781 C 93.382812 55.273438 99.757812 52.726562 103.054688 53.101562 C 104.929688 53.25 105.90625 53.925781 107.257812 54.824219 C 108.832031 55.949219 111.304688 58.125 111.832031 59.625 C 112.207031 60.675781 112.054688 62.101562 111.53125 62.625 C 110.929688 63.226562 109.207031 63.375 108.53125 63.148438 C 108.007812 62.925781 107.554688 62.476562 107.40625 61.949219 C 107.179688 61.351562 107.179688 60.226562 107.554688 59.625 C 107.929688 59.023438 108.90625 58.425781 109.582031 58.425781 C 110.257812 58.351562 111.304688 58.875 111.679688 59.398438 C 112.132812 59.925781 112.28125 61.050781 112.054688 61.726562 C 111.832031 62.398438 110.929688 63.148438 110.332031 63.300781 C 109.804688 63.523438 109.355469 63.523438 108.757812 63.226562 C 107.480469 62.699219 105.230469 59.25 103.882812 58.5 C 102.980469 57.976562 102.679688 57.976562 101.554688 57.898438 C 98.632812 57.824219 90.757812 60.148438 85.804688 60.601562 C 81.53125 61.050781 75.832031 61.5 73.804688 60.898438 C 72.980469 60.675781 72.605469 60.375 72.304688 59.925781 C 72.007812 59.476562 71.855469 58.726562 71.855469 58.199219 C 71.929688 57.601562 72.304688 57 72.679688 56.625 C 73.132812 56.25 73.730469 55.949219 74.40625 55.949219 C 75.230469 55.949219 76.957031 56.398438 77.40625 57.074219 C 77.855469 57.75 77.78125 59.25 77.40625 59.925781 C 77.179688 60.449219 76.65625 60.675781 75.980469 60.898438 C 74.855469 61.273438 71.632812 61.875 71.105469 61.199219 C 70.65625 60.675781 71.105469 58.726562 71.78125 58.199219 C 72.679688 57.523438 75.90625 57.976562 77.03125 58.351562 C 77.632812 58.574219 78.007812 58.875 78.304688 59.324219 C 78.605469 59.773438 78.757812 60.449219 78.679688 60.898438 C 78.605469 61.425781 78.304688 62.023438 77.855469 62.324219 C 77.480469 62.699219 76.355469 62.925781 76.355469 62.925781 " clip-rule="nonzero"/></clipPath><clipPath id="ce619a6dd3"><path d="M 36.105469 49.160156 L 50.609375 49.160156 L 50.609375 60.460938 L 36.105469 60.460938 Z M 36.105469 49.160156 " clip-rule="nonzero"/></clipPath><clipPath id="667c7f20a4"><path d="M 41.105469 54.074219 C 47.707031 54.976562 49.507812 55.648438 50.105469 56.476562 C 50.40625 56.925781 50.554688 57.523438 50.257812 57.976562 C 49.28125 59.324219 39.382812 60.449219 37.429688 60.074219 C 36.757812 59.925781 36.382812 59.699219 36.230469 59.324219 C 36.15625 59.023438 36.382812 58.5 36.832031 58.125 C 37.957031 57.148438 43.957031 55.125 44.929688 55.648438 C 45.304688 55.875 45.304688 57 45.304688 57 C 45.382812 57 45.382812 52.199219 44.554688 51.824219 C 43.582031 51.375 40.957031 54.824219 39.757812 54.824219 C 39.082031 54.824219 38.179688 54.148438 38.105469 53.773438 C 38.03125 53.476562 38.257812 52.949219 38.554688 52.726562 C 38.929688 52.574219 39.757812 52.5 40.054688 52.800781 C 40.28125 53.101562 40.207031 54.449219 39.90625 54.75 C 39.605469 54.976562 38.707031 54.898438 38.480469 54.601562 C 38.179688 54.300781 38.105469 53.398438 38.480469 52.875 C 39.15625 51.675781 43.582031 49.199219 45.007812 49.351562 C 45.832031 49.425781 46.429688 50.023438 46.804688 50.773438 C 47.40625 52.050781 47.855469 55.425781 46.730469 56.925781 C 45.382812 58.800781 39.007812 60.148438 37.429688 60.074219 C 36.90625 60.074219 36.457031 59.851562 36.382812 59.550781 C 36.230469 59.25 36.382812 58.5 36.832031 58.125 C 38.03125 57 44.40625 56.476562 46.804688 56.324219 C 48.15625 56.25 49.582031 55.949219 50.105469 56.476562 C 50.40625 56.773438 50.480469 57.675781 50.257812 57.976562 C 50.03125 58.351562 49.507812 58.5 48.980469 58.5 C 47.855469 58.425781 45.53125 56.625 44.03125 56.25 C 42.832031 56.023438 41.332031 56.699219 40.730469 56.25 C 40.28125 55.949219 39.980469 55.273438 40.132812 54.898438 C 40.207031 54.523438 41.105469 54.074219 41.105469 54.074219 " clip-rule="nonzero"/></clipPath></defs><g clip-path="url(#91fa4279fe)"><g clip-path="url(#9de42d7a9f)"><path fill="#eeffc2" d="M 34.207031 18.601562 L 56.976562 18.601562 L 56.976562 33.898438 L 34.207031 33.898438 Z M 34.207031 18.601562 " fill-opacity="1" fill-rule="nonzero"/></g></g><g clip-path="url(#ea713063bc)"><g clip-path="url(#897b3a63a7)"><path fill="#eeffc2" d="M 10.207031 8.175781 L 78.957031 8.175781 L 78.957031 38.625 L 10.207031 38.625 Z M 10.207031 8.175781 " fill-opacity="1" fill-rule="nonzero"/></g></g><g clip-path="url(#d35203f57d)"><g clip-path="url(#aa9867c50d)"><path fill="#eeffc2" d="M 65.707031 11.699219 L 99.980469 11.699219 L 99.980469 45.976562 L 65.707031 45.976562 Z M 65.707031 11.699219 " fill-opacity="1" fill-rule="nonzero"/></g></g><g clip-path="url(#e2711cdd23)"><g clip-path="url(#f66a2396bd)"><path fill="#eeffc2" d="M 68.855469 9.375 L 103.132812 9.375 L 103.132812 43.648438 L 68.855469 43.648438 Z M 68.855469 9.375 " fill-opacity="1" fill-rule="nonzero"/></g></g><g clip-path="url(#0320efb224)"><g clip-path="url(#09159a229a)"><path fill="#eeffc2" d="M 66.757812 9.824219 L 101.179688 9.824219 L 101.179688 44.382812 L 66.757812 44.382812 Z M 66.757812 9.824219 " fill-opacity="1" fill-rule="nonzero"/></g></g><path stroke-linecap="butt" transform="matrix(0.00461485, -0.749986, 0.749986, 0.00461485, 111.50502, 26.350775)" fill="none" stroke-linejoin="miter" d="M 0.000830043 1.998547 L 21.350219 2.002598 " stroke="#eeffc2" stroke-width="4" stroke-opacity="1" stroke-miterlimit="4"/><g clip-path="url(#b4a5a441d7)"><g clip-path="url(#48c8dff66f)"><path fill="#eeffc2" d="M 80.554688 9.75 L 114.832031 9.75 L 114.832031 44.023438 L 80.554688 44.023438 Z M 80.554688 9.75 " fill-opacity="1" fill-rule="nonzero"/></g></g><path stroke-linecap="butt" transform="matrix(0, -0.75, 0.75, 0, 6.623908, 62.547649)" fill="none" stroke-linejoin="miter" d="M 0.00103212 2.001456 L 69.599996 2.001456 " stroke="#eeffc2" stroke-width="4" stroke-opacity="1" stroke-miterlimit="4"/><g clip-path="url(#bb35a5edc0)"><g clip-path="url(#9fd2e2d3de)"><path fill="#eeffc2" d="M 5.40625 13.351562 L 39.679688 13.351562 L 39.679688 47.625 L 5.40625 47.625 Z M 5.40625 13.351562 " fill-opacity="1" fill-rule="nonzero"/></g></g><g clip-path="url(#cccee20cd9)"><g clip-path="url(#27b247f1d7)"><path fill="#eeffc2" d="M 5.40625 11.25 L 39.679688 11.25 L 39.679688 45.523438 L 5.40625 45.523438 Z M 5.40625 11.25 " fill-opacity="1" fill-rule="nonzero"/></g></g><g clip-path="url(#8784173ad8)"><g clip-path="url(#2a5b4c5a35)"><path fill="#eeffc2" d="M 99.679688 9.523438 L 116.40625 9.523438 L 116.40625 43.171875 L 99.679688 43.171875 Z M 99.679688 9.523438 " fill-opacity="1" fill-rule="nonzero"/></g></g><g clip-path="url(#ee45f8c34b)"><g clip-path="url(#6a5df505d6)"><path fill="#eeffc2" d="M 55.132812 19.574219 L 89.40625 19.574219 L 89.40625 53.851562 L 55.132812 53.851562 Z M 55.132812 19.574219 " fill-opacity="1" fill-rule="nonzero"/></g></g><g clip-path="url(#c7ee446e6d)"><g clip-path="url(#82cf731d4b)"><path fill="#eeffc2" d="M 66.757812 39.242188 L 82.769531 39.242188 L 82.769531 55.257812 L 66.757812 55.257812 Z M 66.757812 39.242188 " fill-opacity="1" fill-rule="nonzero"/></g></g><g clip-path="url(#2517a0e11c)"><g clip-path="url(#416950cb06)"><path fill="#eeffc2" d="M 4.207031 20.476562 L 52.335938 20.476562 L 52.335938 61.273438 L 4.207031 61.273438 Z M 4.207031 20.476562 " fill-opacity="1" fill-rule="nonzero"/></g></g><g clip-path="url(#ebe6441153)"><g clip-path="url(#aeeb15dbc1)"><path fill="#eeffc2" d="M 19.132812 19.574219 L 93.441406 19.574219 L 93.441406 52.949219 L 19.132812 52.949219 Z M 19.132812 19.574219 " fill-opacity="1" fill-rule="nonzero"/></g></g><g clip-path="url(#1901535bf8)"><g clip-path="url(#ddb9535522)"><path fill="#eeffc2" d="M 41.179688 7.273438 L 87.167969 7.273438 L 87.167969 43.5 L 41.179688 43.5 Z M 41.179688 7.273438 " fill-opacity="1" fill-rule="nonzero"/></g></g><g clip-path="url(#0bfe1a27e5)"><g clip-path="url(#1601b7082e)"><path fill="#eeffc2" d="M 61.65625 9.226562 L 111.613281 9.226562 L 111.613281 47.398438 L 61.65625 47.398438 Z M 61.65625 9.226562 " fill-opacity="1" fill-rule="nonzero"/></g></g><g clip-path="url(#1b3eed2493)"><g clip-path="url(#bc7c311503)"><path fill="#eeffc2" d="M 5.40625 24.824219 L 39.679688 24.824219 L 39.679688 59.101562 L 5.40625 59.101562 Z M 5.40625 24.824219 " fill-opacity="1" fill-rule="nonzero"/></g></g><g clip-path="url(#dc613a159e)"><g clip-path="url(#9f56f1b052)"><path fill="#eeffc2" d="M 5.40625 20.476562 L 39.964844 20.476562 L 39.964844 54.898438 L 5.40625 54.898438 Z M 5.40625 20.476562 " fill-opacity="1" fill-rule="nonzero"/></g></g><g clip-path="url(#186c4742e4)"><g clip-path="url(#eecf1b059d)"><path fill="#eeffc2" d="M 5.554688 9.976562 L 93.695312 9.976562 L 93.695312 47.023438 L 5.554688 47.023438 Z M 5.554688 9.976562 " fill-opacity="1" fill-rule="nonzero"/></g></g><g clip-path="url(#6832ec6f24)"><g clip-path="url(#d8ad344c43)"><path fill="#eeffc2" d="M 5.40625 10.351562 L 39.679688 10.351562 L 39.679688 44.625 L 5.40625 44.625 Z M 5.40625 10.351562 " fill-opacity="1" fill-rule="nonzero"/></g></g><g clip-path="url(#7b8c02d13f)"><g clip-path="url(#9778ccd6cd)"><path fill="#eeffc2" d="M 3.382812 8.476562 L 114.707031 8.476562 L 114.707031 67.726562 L 3.382812 67.726562 Z M 3.382812 8.476562 " fill-opacity="1" fill-rule="nonzero"/></g></g><path stroke-linecap="butt" transform="matrix(0.75, 0, 0, 0.75, 6.627231, 61.892075)" fill="none" stroke-linejoin="miter" d="M 0.00223359 1.998067 L 138.720995 1.998067 " stroke="#ade1c8" stroke-width="4" stroke-opacity="1" stroke-miterlimit="4"/><g clip-path="url(#fa93882464)"><g clip-path="url(#5c4cd84487)"><path fill="#ade1c8" d="M 66.757812 51.898438 L 77.789062 51.898438 L 77.789062 62.398438 L 66.757812 62.398438 Z M 66.757812 51.898438 " fill-opacity="1" fill-rule="nonzero"/></g></g><path stroke-linecap="butt" transform="matrix(0, -0.75, 0.75, 0, 111.026931, 62.547649)" fill="none" stroke-linejoin="miter" d="M 0.00103212 2.000551 L 49.599995 2.000551 " stroke="#ade1c8" stroke-width="4" stroke-opacity="1" stroke-miterlimit="4"/><g clip-path="url(#2e2656185f)"><g clip-path="url(#194e6851f3)"><path fill="#ade1c8" d="M 101.632812 25.351562 L 113.40625 25.351562 L 113.40625 42.964844 L 101.632812 42.964844 Z M 101.632812 25.351562 " fill-opacity="1" fill-rule="nonzero"/></g></g><g clip-path="url(#0c88de3154)"><g clip-path="url(#229b1f1d25)"><path fill="#ade1c8" d="M 9.15625 36.074219 L 63.171875 36.074219 L 63.171875 67.574219 L 9.15625 67.574219 Z M 9.15625 36.074219 " fill-opacity="1" fill-rule="nonzero"/></g></g><g clip-path="url(#3b912223ac)"><g clip-path="url(#03771653a1)"><g clip-path="url(#802b3ce4a8)"><path fill="#ade1c8" d="M 105.292969 23.359375 L 116.617188 23.441406 L 116.3125 66.394531 L 104.984375 66.3125 Z M 105.292969 23.359375 " fill-opacity="1" fill-rule="nonzero"/></g></g></g><g clip-path="url(#dca0787dde)"><g clip-path="url(#693d003437)"><path fill="#ade1c8" d="M 32.554688 37.574219 L 75.972656 37.574219 L 75.972656 66 L 32.554688 66 Z M 32.554688 37.574219 " fill-opacity="1" fill-rule="nonzero"/></g></g><g clip-path="url(#e3fc59e55d)"><g clip-path="url(#6d74c04fc2)"><path fill="#ade1c8" d="M 72.90625 27.226562 L 115.773438 27.226562 L 115.773438 67.273438 L 72.90625 67.273438 Z M 72.90625 27.226562 " fill-opacity="1" fill-rule="nonzero"/></g></g><g clip-path="url(#827355f1b1)"><g clip-path="url(#1978bc6dea)"><path fill="#ade1c8" d="M 63.832031 50.101562 L 115.136719 50.101562 L 115.136719 66.375 L 63.832031 66.375 Z M 63.832031 50.101562 " fill-opacity="1" fill-rule="nonzero"/></g></g><path stroke-linecap="butt" transform="matrix(0.75, 0, 0, 0.75, 6.626251, 10.40144)" fill="none" stroke-linejoin="miter" d="M -0.00166787 2.001205 L 142.472302 2.001205 " stroke="#eeffc2" stroke-width="4" stroke-opacity="1" stroke-miterlimit="4"/><path stroke-linecap="butt" transform="matrix(0.64336, -0.385471, 0.385471, 0.64336, 6.627972, 61.981211)" fill="none" stroke-linejoin="miter" d="M -0.00164288 2.001504 L 66.464796 2.001205 " stroke="#4cc28f" stroke-width="4" stroke-opacity="1" stroke-miterlimit="4"/><path stroke-linecap="butt" transform="matrix(0.621475, 0.419844, -0.419844, 0.621475, 49.673646, 36.113137)" fill="none" stroke-linejoin="miter" d="M -0.00258837 2.000755 L 43.718429 1.999868 " stroke="#4cc28f" stroke-width="4" stroke-opacity="1" stroke-miterlimit="4"/><path stroke-linecap="butt" transform="matrix(0.581786, -0.473312, 0.473312, 0.581786, 73.308995, 54.542675)" fill="none" stroke-linejoin="miter" d="M -0.0024315 1.999368 L 65.7831 2.000046 " stroke="#4cc28f" stroke-width="4" stroke-opacity="1" stroke-miterlimit="4"/><g clip-path="url(#ce619a6dd3)"><g clip-path="url(#667c7f20a4)"><path fill="#ade1c8" d="M 33.230469 46.351562 L 53.289062 46.351562 L 53.289062 63.074219 L 33.230469 63.074219 Z M 33.230469 46.351562 " fill-opacity="1" fill-rule="nonzero"/></g></g><path stroke-linecap="butt" transform="matrix(0.75, 0, 0, 0.75, 12.576386, 61.892075)" fill="none" stroke-linejoin="miter" d="M 0.00231822 1.998067 L 135.241913 1.998067 " stroke="#ade1c8" stroke-width="4" stroke-opacity="1" stroke-miterlimit="4"/></svg>