<svg xmlns="http://www.w3.org/2000/svg" xmlns:xlink="http://www.w3.org/1999/xlink" width="160" zoomAndPan="magnify" viewBox="0 0 120 74.999997" height="100" preserveAspectRatio="xMidYMid meet" version="1.0"><defs><filter x="0%" y="0%" width="100%" height="100%" id="7d6f25e982"><feColorMatrix values="0 0 0 0 1 0 0 0 0 1 0 0 0 0 1 0 0 0 1 0" color-interpolation-filters="sRGB"/></filter><clipPath id="6ae61606b8"><path d="M 69.203125 51.617188 L 74.496094 51.617188 L 74.496094 56.375 L 69.203125 56.375 Z M 69.203125 51.617188 " clip-rule="nonzero"/></clipPath><clipPath id="5bf50723d0"><path d="M 71.25 51.789062 C 74.25 52.914062 74.476562 53.960938 74.25 54.5625 C 74.101562 55.164062 73.425781 55.914062 72.824219 56.136719 C 72.226562 56.289062 71.25 56.136719 70.726562 55.761719 C 70.199219 55.386719 69.824219 54.488281 69.824219 53.886719 C 69.824219 53.210938 70.351562 52.386719 70.875 52.011719 C 71.398438 51.710938 72.449219 51.636719 73.050781 51.863281 C 73.574219 52.164062 74.175781 52.988281 74.324219 53.585938 C 74.476562 54.039062 74.398438 54.5625 74.101562 55.011719 C 73.800781 55.539062 72.976562 56.0625 72.375 56.210938 C 71.699219 56.363281 70.800781 56.210938 70.273438 55.914062 C 69.824219 55.613281 69.449219 55.085938 69.375 54.5625 C 69.226562 54.113281 69.300781 53.4375 69.523438 52.988281 C 69.824219 52.460938 71.25 51.789062 71.25 51.789062 " clip-rule="nonzero"/></clipPath><clipPath id="c42e2f8beb"><path d="M 104 25.136719 L 110.035156 25.136719 L 110.035156 36.957031 L 104 36.957031 Z M 104 25.136719 " clip-rule="nonzero"/></clipPath><clipPath id="9b2d3cfe1c"><path d="M 110.023438 27.488281 C 108 36.488281 106.726562 36.9375 105.976562 36.710938 C 105.226562 36.488281 104.324219 35.136719 104.25 34.386719 C 104.25 33.710938 104.773438 32.738281 105.375 32.4375 C 105.898438 32.0625 106.949219 31.988281 107.550781 32.210938 C 108.226562 32.4375 108.898438 33.261719 108.976562 33.9375 C 109.125 34.613281 108.824219 35.585938 108.375 36.113281 C 107.925781 36.5625 106.875 36.863281 106.199219 36.789062 C 105.601562 36.636719 104.773438 36.1875 104.476562 35.363281 C 103.800781 33.789062 104.851562 28.460938 105.449219 26.886719 C 105.75 26.210938 105.976562 25.835938 106.425781 25.613281 C 106.800781 25.3125 107.476562 25.164062 108 25.238281 C 108.523438 25.238281 109.125 25.613281 109.425781 25.988281 C 109.800781 26.363281 110.023438 27.488281 110.023438 27.488281 " clip-rule="nonzero"/></clipPath><clipPath id="80944f5acc"><path d="M 10.367188 13.402344 L 112 13.402344 L 112 56.570312 L 10.367188 56.570312 Z M 10.367188 13.402344 " clip-rule="nonzero"/></clipPath><clipPath id="d11e0867e7"><path d="M 10.5 53.664062 C 24.449219 38.210938 25.800781 35.960938 27.601562 32.8125 C 29.851562 28.988281 31.648438 21.113281 34.125 19.539062 C 35.476562 18.710938 36.976562 19.011719 38.398438 19.460938 C 40.273438 19.988281 42.824219 21.9375 44.023438 23.210938 C 44.773438 23.960938 45.601562 24.789062 45.523438 25.460938 C 45.523438 26.136719 44.925781 26.886719 44.101562 27.335938 C 42.523438 28.164062 37.425781 28.3125 35.925781 27.710938 C 35.175781 27.488281 34.726562 27.039062 34.5 26.4375 C 34.199219 25.613281 34.351562 23.886719 34.875 23.210938 C 35.175781 22.761719 36 22.539062 36.449219 22.613281 C 36.976562 22.6875 37.726562 23.0625 37.949219 23.585938 C 38.25 24.414062 37.726562 25.988281 36.976562 27.5625 C 35.699219 30.5625 30.226562 39.414062 28.648438 39.488281 C 28.050781 39.488281 27.523438 38.585938 27.375 38.0625 C 27.300781 37.460938 27.601562 36.9375 28.125 36.039062 C 29.324219 34.011719 34.273438 28.3125 36.824219 26.511719 C 38.398438 25.386719 40.125 24.636719 41.175781 24.710938 C 41.773438 24.789062 42.375 25.238281 42.601562 25.6875 C 42.898438 26.136719 42.976562 26.585938 42.675781 27.414062 C 41.25 30.9375 22.875 50.960938 19.351562 51.261719 C 18.375 51.335938 17.625 50.511719 17.398438 49.914062 C 17.25 49.386719 17.398438 48.789062 17.925781 48.039062 C 20.324219 44.8125 40.875 33.039062 45.601562 30.863281 C 47.101562 30.1875 48 29.664062 48.75 29.886719 C 49.273438 30.039062 49.800781 30.710938 49.875 31.238281 C 49.949219 31.6875 49.875 32.289062 49.351562 32.886719 C 47.773438 34.761719 36.976562 39.335938 33.898438 40.085938 C 32.625 40.3125 31.800781 40.460938 31.199219 40.085938 C 30.675781 39.863281 30.148438 39.113281 30.226562 38.4375 C 30.226562 37.386719 31.648438 35.886719 33.074219 34.460938 C 35.25 32.136719 42.375 29.136719 42.824219 26.8125 C 43.125 25.460938 40.949219 24.039062 40.875 22.988281 C 40.800781 22.238281 41.023438 21.488281 41.476562 21.113281 C 41.925781 20.664062 42.75 20.4375 43.726562 20.664062 C 46.273438 21.039062 51.226562 25.988281 55.800781 28.085938 C 61.125 30.488281 71.175781 32.511719 74.175781 33.5625 C 75.226562 33.9375 75.75 33.9375 76.199219 34.460938 C 76.574219 34.914062 76.800781 35.738281 76.648438 36.335938 C 76.5 36.9375 75.824219 37.6875 75.148438 37.914062 C 74.550781 38.136719 74.023438 37.988281 73.050781 37.761719 C 70.351562 37.085938 62.851562 33.039062 58.648438 31.613281 C 55.425781 30.488281 52.648438 29.8125 50.023438 29.363281 C 47.773438 28.914062 44.324219 29.511719 43.800781 28.761719 C 43.5 28.3125 43.949219 27.113281 44.398438 26.960938 C 45 26.664062 47.398438 27.9375 47.851562 28.6875 C 48.226562 29.210938 48.074219 30.039062 47.851562 30.5625 C 47.550781 31.164062 46.949219 31.613281 46.199219 31.914062 C 45.074219 32.363281 42.300781 32.886719 41.398438 32.4375 C 40.875 32.136719 40.648438 31.386719 40.648438 30.863281 C 40.648438 30.335938 40.875 29.738281 41.476562 29.363281 C 42.601562 28.539062 45.824219 27.9375 48.523438 28.386719 C 52.425781 28.988281 57.824219 33.261719 62.550781 34.914062 C 66.976562 36.488281 74.175781 36.9375 76.050781 38.210938 C 76.726562 38.664062 76.949219 39.113281 77.023438 39.636719 C 77.101562 40.085938 76.800781 40.914062 76.425781 41.210938 C 76.050781 41.585938 75.523438 41.738281 74.773438 41.664062 C 73.050781 41.585938 69.449219 39.1875 66.601562 38.136719 C 63.449219 37.011719 60.074219 36.1875 56.550781 35.363281 C 52.726562 34.386719 48.449219 33.5625 44.398438 32.960938 C 40.425781 32.4375 34.050781 33.1875 32.550781 31.988281 C 31.949219 31.460938 31.875 30.488281 32.101562 29.886719 C 32.25 29.363281 32.925781 28.988281 33.824219 28.6875 C 35.625 28.164062 40.050781 28.460938 43.125 28.835938 C 46.351562 29.289062 49.050781 29.4375 52.726562 31.164062 C 58.800781 33.9375 75.226562 46.164062 74.851562 47.210938 C 74.773438 47.4375 73.574219 47.363281 72.75 46.988281 C 71.101562 46.386719 67.949219 43.613281 66.375 42.039062 C 65.324219 40.835938 64.125 39.5625 64.050781 38.585938 C 63.976562 37.988281 64.199219 37.238281 64.574219 36.9375 C 65.023438 36.5625 66.148438 36.414062 66.675781 36.636719 C 67.199219 36.863281 67.125 37.539062 67.726562 38.0625 C 69.226562 39.261719 76.5 40.988281 76.800781 42.1875 C 76.949219 42.789062 76.199219 43.761719 75.675781 43.761719 C 74.476562 43.6875 70.574219 37.460938 69.976562 35.4375 C 69.675781 34.460938 69.523438 33.789062 70.125 32.886719 C 71.476562 30.9375 79.273438 29.0625 83.25 27.113281 C 86.550781 25.460938 88.875 23.511719 92.25 22.011719 C 96.300781 20.210938 103.800781 16.914062 105.976562 17.4375 C 106.875 17.664062 107.398438 18.1875 107.550781 19.011719 C 107.851562 20.886719 104.699219 26.960938 102.523438 29.136719 C 100.949219 30.789062 99.148438 30.5625 96.824219 32.0625 C 92.398438 34.988281 82.5 45.414062 78.898438 46.835938 C 77.625 47.363281 76.574219 47.363281 75.976562 46.988281 C 75.449219 46.6875 75.375 46.085938 75.226562 45.261719 C 74.773438 43.238281 74.699219 36.789062 75.226562 34.6875 C 75.375 33.789062 75.675781 33.335938 76.125 32.8125 C 76.5 32.363281 77.023438 31.761719 77.625 31.6875 C 78.226562 31.539062 79.351562 31.613281 79.800781 32.289062 C 80.773438 33.488281 81 39.9375 80.023438 40.6875 C 79.5 41.136719 77.699219 40.613281 77.25 39.9375 C 76.648438 39.039062 77.398438 36.5625 77.851562 34.988281 C 78.375 33.5625 79.273438 31.613281 80.023438 30.9375 C 80.550781 30.5625 81 30.488281 81.449219 30.5625 C 81.976562 30.636719 82.726562 31.011719 82.949219 31.460938 C 83.175781 31.914062 83.175781 32.738281 83.023438 33.261719 C 82.875 33.636719 82.050781 34.164062 82.050781 34.164062 C 81.976562 34.085938 83.023438 32.511719 83.175781 32.585938 C 83.699219 32.8125 82.574219 40.3125 81.976562 42.113281 C 81.75 42.863281 81.601562 43.386719 81.074219 43.613281 C 80.550781 43.835938 79.125 43.6875 78.675781 43.164062 C 78.148438 42.5625 78.300781 41.289062 78.523438 39.863281 C 78.976562 36.9375 81.375 28.386719 83.398438 26.960938 C 84.449219 26.289062 86.175781 26.4375 86.851562 26.960938 C 87.300781 27.335938 87.300781 28.164062 87.300781 28.988281 C 87.375 30.261719 87.074219 32.136719 86.550781 33.789062 C 86.023438 35.511719 84.976562 38.664062 83.925781 39.1875 C 83.25 39.414062 82.273438 39.039062 81.824219 38.664062 C 81.449219 38.289062 81.375 37.613281 81.449219 36.9375 C 81.523438 35.960938 82.273438 34.460938 83.101562 33.1875 C 84.074219 31.613281 85.199219 29.886719 87.148438 28.386719 C 89.925781 26.210938 96.675781 22.988281 98.851562 22.761719 C 99.675781 22.613281 100.199219 22.761719 100.574219 23.0625 C 100.949219 23.363281 101.25 23.8125 101.25 24.1875 C 101.324219 24.710938 101.25 25.164062 100.726562 25.914062 C 99.300781 27.9375 90.300781 35.585938 87.898438 35.738281 C 87 35.8125 86.25 35.210938 86.023438 34.6875 C 85.726562 34.164062 85.800781 33.414062 86.324219 32.585938 C 87.601562 30.636719 95.25 27.636719 98.175781 25.386719 C 100.125 23.8125 101.25 21.335938 102.523438 20.960938 C 103.273438 20.738281 104.101562 20.960938 104.550781 21.335938 C 105.074219 21.710938 105.449219 22.539062 105.375 23.210938 C 105.226562 24.261719 103.125 26.886719 102.75 26.738281 C 102.375 26.585938 102.375 23.8125 103.050781 22.6875 C 103.800781 21.414062 107.550781 20.886719 107.851562 19.835938 C 108.074219 19.164062 106.800781 18.1875 107.023438 17.738281 C 107.25 17.136719 109.199219 16.460938 109.574219 16.761719 C 109.949219 17.0625 109.273438 20.0625 108.601562 20.363281 C 108.148438 20.664062 106.875 19.988281 106.574219 19.460938 C 106.273438 18.9375 106.5 18.039062 106.726562 17.289062 C 107.101562 16.3125 108.074219 14.664062 108.75 14.0625 C 109.125 13.6875 109.5 13.460938 109.949219 13.539062 C 110.550781 13.613281 111.523438 14.289062 111.824219 15.113281 C 112.351562 16.539062 111.601562 21.261719 110.699219 21.636719 C 110.023438 21.863281 108.300781 20.363281 107.851562 19.238281 C 107.324219 17.960938 107.699219 14.289062 108.375 14.0625 C 108.898438 13.835938 110.550781 15.488281 111 16.6875 C 111.675781 18.1875 111.75 21.414062 111 22.613281 C 110.550781 23.363281 109.273438 23.960938 108.601562 23.8125 C 108 23.738281 107.398438 23.136719 107.101562 22.460938 C 106.574219 21.261719 106.875 18.1875 107.25 16.6875 C 107.550781 15.5625 108.148438 14.585938 108.75 14.0625 C 109.125 13.761719 109.5 13.460938 109.949219 13.539062 C 110.550781 13.613281 111.675781 14.4375 111.824219 15.113281 C 112.050781 15.863281 111.375 16.914062 110.851562 17.886719 C 110.101562 19.386719 108.601562 22.386719 107.476562 22.914062 C 106.800781 23.210938 105.75 23.0625 105.300781 22.613281 C 104.773438 22.164062 104.699219 20.960938 104.773438 19.914062 C 104.925781 18.488281 105.75 15.335938 106.800781 14.585938 C 107.550781 14.0625 108.824219 14.210938 109.5 14.511719 C 110.023438 14.8125 110.476562 15.261719 110.773438 16.011719 C 111.226562 17.289062 111.675781 20.289062 110.699219 22.085938 C 109.425781 24.335938 104.175781 27.261719 102.226562 27.488281 C 101.324219 27.636719 100.425781 27.414062 100.050781 26.886719 C 99.601562 26.363281 99.601562 24.863281 99.976562 24.261719 C 100.273438 23.738281 101.101562 23.363281 101.773438 23.289062 C 102.523438 23.289062 104.023438 23.8125 104.101562 24.414062 C 104.25 25.164062 102.675781 26.511719 101.25 27.710938 C 98.550781 29.960938 90.300781 35.664062 87.898438 35.738281 C 87 35.738281 86.25 35.210938 86.023438 34.6875 C 85.726562 34.164062 85.875 33.414062 86.324219 32.585938 C 87.523438 30.488281 95.550781 25.011719 97.648438 23.585938 C 98.476562 23.0625 98.773438 22.761719 99.300781 22.6875 C 99.75 22.613281 100.273438 22.761719 100.574219 23.0625 C 100.949219 23.4375 101.324219 24.1875 101.324219 24.636719 C 101.324219 25.085938 101.175781 25.460938 100.726562 25.914062 C 99.449219 27.1875 92.476562 29.289062 90.074219 31.011719 C 88.574219 32.0625 87.898438 32.886719 87 34.085938 C 85.949219 35.511719 85.273438 38.289062 84.300781 38.960938 C 83.773438 39.335938 83.023438 39.335938 82.574219 39.1875 C 82.050781 38.886719 81.523438 38.210938 81.375 37.386719 C 81.074219 35.585938 82.726562 28.914062 83.925781 28.460938 C 84.601562 28.238281 85.800781 28.988281 86.101562 29.886719 C 86.773438 31.988281 82.875 42.414062 81.074219 43.613281 C 80.398438 44.0625 79.425781 43.835938 78.976562 43.539062 C 78.523438 43.238281 78.375 42.710938 78.226562 41.960938 C 77.925781 40.164062 78.824219 34.835938 79.5 32.886719 C 79.800781 31.835938 80.023438 30.9375 80.625 30.710938 C 81.074219 30.414062 81.898438 30.5625 82.351562 30.863281 C 82.800781 31.085938 83.101562 31.613281 83.175781 32.363281 C 83.398438 34.164062 81.375 40.386719 80.023438 41.886719 C 79.351562 42.636719 78.300781 43.011719 77.699219 42.863281 C 77.101562 42.710938 76.5 41.8125 76.273438 41.0625 C 75.976562 40.011719 76.351562 38.0625 76.574219 36.863281 C 76.726562 35.960938 76.648438 34.914062 77.175781 34.539062 C 77.625 34.238281 78.898438 34.3125 79.351562 34.914062 C 80.324219 36.113281 79.648438 43.988281 78.523438 44.664062 C 78 45.039062 76.425781 44.363281 76.273438 43.914062 C 76.199219 43.613281 76.800781 43.164062 77.476562 42.488281 C 79.800781 40.3125 89.476562 32.363281 93.675781 29.664062 C 96.148438 28.164062 98.324219 28.164062 99.75 26.664062 C 101.101562 25.3125 101.324219 22.539062 102.300781 21.414062 C 102.898438 20.738281 103.574219 20.136719 104.25 20.0625 C 104.773438 19.988281 106.050781 20.511719 106.050781 20.886719 C 105.976562 21.9375 95.851562 24.414062 92.023438 26.210938 C 89.175781 27.636719 87.523438 29.136719 84.898438 30.414062 C 82.050781 31.914062 77.324219 34.3125 75.375 34.539062 C 74.476562 34.613281 73.648438 33.789062 73.5 34.085938 C 73.050781 34.613281 77.023438 39.488281 77.925781 41.289062 C 78.375 42.1875 78.824219 42.789062 78.898438 43.539062 C 78.898438 44.210938 78.75 45.039062 78.300781 45.414062 C 77.773438 45.9375 76.648438 46.085938 75.523438 45.9375 C 74.023438 45.789062 71.773438 44.585938 70.050781 43.613281 C 68.324219 42.636719 66.226562 41.210938 65.175781 40.238281 C 64.574219 39.636719 64.125 39.1875 64.050781 38.585938 C 63.976562 38.0625 64.199219 37.238281 64.574219 36.9375 C 65.101562 36.5625 66.300781 36.5625 67.050781 36.863281 C 68.023438 37.3125 68.476562 38.8125 69.675781 39.863281 C 71.476562 41.511719 76.199219 43.761719 77.476562 45.488281 C 78.148438 46.3125 78.449219 47.136719 78.449219 47.886719 C 78.449219 48.488281 78.148438 49.238281 77.773438 49.761719 C 77.324219 50.210938 76.648438 50.664062 75.898438 50.8125 C 74.851562 50.960938 73.648438 50.585938 71.925781 49.835938 C 67.574219 47.8125 57 37.238281 51.375 34.6875 C 48.148438 33.113281 45.824219 33.039062 42.824219 32.585938 C 39.601562 32.136719 33.898438 33.113281 32.550781 31.988281 C 31.949219 31.460938 31.875 30.488281 32.101562 29.886719 C 32.25 29.363281 32.925781 28.988281 33.824219 28.6875 C 35.925781 28.085938 41.175781 28.835938 44.925781 29.289062 C 48.976562 29.8125 53.625 30.789062 57.375 31.6875 C 60.601562 32.4375 63.226562 33.039062 66.148438 34.011719 C 69.375 35.136719 74.476562 36.9375 76.050781 38.210938 C 76.648438 38.664062 76.949219 39.113281 77.023438 39.636719 C 77.101562 40.085938 76.800781 40.914062 76.425781 41.210938 C 76.050781 41.585938 75.601562 41.664062 74.773438 41.664062 C 72.523438 41.738281 66.449219 40.238281 62.101562 38.738281 C 57.300781 37.164062 51.074219 32.8125 47.25 32.0625 C 44.925781 31.6875 42.375 32.886719 41.398438 32.4375 C 40.949219 32.210938 40.726562 31.761719 40.648438 31.3125 C 40.574219 30.863281 40.648438 30.039062 41.101562 29.664062 C 41.699219 29.136719 44.550781 28.835938 44.773438 29.210938 C 44.851562 29.4375 44.023438 30.5625 43.5 30.710938 C 42.976562 30.789062 41.925781 30.335938 41.476562 29.886719 C 41.101562 29.363281 40.949219 28.386719 41.023438 27.710938 C 41.101562 27.039062 41.25 26.210938 41.851562 25.761719 C 42.976562 25.011719 45.75 25.011719 48.074219 25.164062 C 51.074219 25.386719 55.425781 26.511719 58.5 27.636719 C 61.199219 28.539062 63.148438 30.039062 65.699219 31.085938 C 68.550781 32.210938 74.550781 33.039062 74.925781 34.164062 C 75 34.6875 73.726562 35.136719 73.574219 35.664062 C 73.5 36.261719 74.625 37.3125 74.324219 37.6875 C 73.273438 38.8125 58.125 33.488281 52.574219 30.710938 C 48.523438 28.761719 43.273438 25.6875 43.050781 24.113281 C 42.976562 23.363281 44.25 22.3125 44.550781 22.386719 C 45 22.539062 45.148438 25.164062 45 26.136719 C 44.851562 26.8125 44.550781 27.414062 44.101562 27.863281 C 43.5 28.3125 42.226562 28.613281 41.398438 28.539062 C 40.726562 28.539062 39.976562 28.3125 39.675781 27.863281 C 39.300781 27.414062 39 26.363281 39.226562 25.835938 C 39.523438 25.238281 40.574219 24.710938 41.25 24.636719 C 41.851562 24.5625 42.601562 24.9375 43.125 25.238281 C 43.726562 25.613281 44.398438 26.0625 44.699219 26.664062 C 45.074219 27.1875 45.449219 27.789062 45.226562 28.539062 C 44.550781 30.636719 35.550781 38.664062 33.976562 38.289062 C 33.300781 38.136719 32.773438 37.011719 33 36.261719 C 33.601562 34.460938 42.375 30.9375 45.375 30.1875 C 46.949219 29.8125 48.449219 29.738281 49.125 30.113281 C 49.574219 30.335938 49.800781 30.789062 49.875 31.238281 C 49.949219 31.6875 49.949219 32.136719 49.351562 32.886719 C 46.875 36.1875 22.199219 51.5625 18 52.914062 C 17.023438 53.210938 16.5 53.363281 16.050781 53.0625 C 15.523438 52.613281 15.226562 50.960938 15.449219 49.988281 C 15.75 48.863281 16.574219 48.335938 17.851562 46.835938 C 21.375 42.9375 35.773438 28.761719 38.925781 25.988281 C 39.824219 25.3125 40.125 24.863281 40.726562 24.710938 C 41.175781 24.636719 41.625 24.710938 42 25.011719 C 42.375 25.3125 42.824219 26.0625 42.824219 26.511719 C 42.898438 26.960938 42.75 27.414062 42.375 27.789062 C 41.851562 28.460938 40.351562 28.613281 39.074219 29.664062 C 36.601562 31.539062 31.648438 38.0625 29.773438 39.710938 C 29.101562 40.3125 28.800781 40.613281 28.199219 40.835938 C 27.523438 41.0625 26.25 41.289062 25.726562 40.914062 C 25.199219 40.386719 25.050781 39.039062 25.351562 37.613281 C 26.101562 34.386719 33.074219 24.863281 34.875 23.210938 C 35.324219 22.761719 35.625 22.6875 36 22.613281 C 36.449219 22.539062 36.976562 22.6875 37.351562 22.914062 C 37.726562 23.210938 38.324219 24.1875 38.101562 24.488281 C 37.949219 24.863281 35.398438 24.710938 35.398438 24.5625 C 35.324219 24.414062 37.800781 23.4375 39 23.363281 C 40.273438 23.289062 42.523438 23.585938 42.824219 24.1875 C 42.976562 24.636719 42.226562 25.914062 41.550781 26.0625 C 40.5 26.363281 37.800781 22.613281 36.226562 23.136719 C 34.050781 23.886719 33.226562 30.5625 31.050781 34.3125 C 28.726562 38.511719 25.425781 43.164062 22.351562 46.988281 C 19.425781 50.511719 15.226562 56.4375 13.050781 56.4375 C 11.925781 56.4375 10.5 53.664062 10.5 53.664062 " clip-rule="nonzero"/></clipPath><mask id="b85c7afebe"><g filter="url(#7d6f25e982)"><rect x="-12" width="144" fill="#000000" y="-7.5" height="89.999996" fill-opacity="0.5"/></g></mask><clipPath id="b6c602d644"><path d="M 0.367188 0.441406 L 102 0.441406 L 102 43.570312 L 0.367188 43.570312 Z M 0.367188 0.441406 " clip-rule="nonzero"/></clipPath><clipPath id="fdb86e6579"><path d="M 0.5 40.664062 C 14.449219 25.210938 15.800781 22.960938 17.601562 19.8125 C 19.851562 15.988281 21.648438 8.113281 24.125 6.539062 C 25.476562 5.710938 26.976562 6.011719 28.398438 6.460938 C 30.273438 6.988281 32.824219 8.9375 34.023438 10.210938 C 34.773438 10.960938 35.601562 11.789062 35.523438 12.460938 C 35.523438 13.136719 34.925781 13.886719 34.101562 14.335938 C 32.523438 15.164062 27.425781 15.3125 25.925781 14.710938 C 25.175781 14.488281 24.726562 14.039062 24.5 13.4375 C 24.199219 12.613281 24.351562 10.886719 24.875 10.210938 C 25.175781 9.761719 26 9.539062 26.449219 9.613281 C 26.976562 9.6875 27.726562 10.0625 27.949219 10.585938 C 28.25 11.414062 27.726562 12.988281 26.976562 14.5625 C 25.699219 17.5625 20.226562 26.414062 18.648438 26.488281 C 18.050781 26.488281 17.523438 25.585938 17.375 25.0625 C 17.300781 24.460938 17.601562 23.9375 18.125 23.039062 C 19.324219 21.011719 24.273438 15.3125 26.824219 13.511719 C 28.398438 12.386719 30.125 11.636719 31.175781 11.710938 C 31.773438 11.789062 32.375 12.238281 32.601562 12.6875 C 32.898438 13.136719 32.976562 13.585938 32.675781 14.414062 C 31.25 17.9375 12.875 37.960938 9.351562 38.261719 C 8.375 38.335938 7.625 37.511719 7.398438 36.914062 C 7.25 36.386719 7.398438 35.789062 7.925781 35.039062 C 10.324219 31.8125 30.875 20.039062 35.601562 17.863281 C 37.101562 17.1875 38 16.664062 38.75 16.886719 C 39.273438 17.039062 39.800781 17.710938 39.875 18.238281 C 39.949219 18.6875 39.875 19.289062 39.351562 19.886719 C 37.773438 21.761719 26.976562 26.335938 23.898438 27.085938 C 22.625 27.3125 21.800781 27.460938 21.199219 27.085938 C 20.675781 26.863281 20.148438 26.113281 20.226562 25.4375 C 20.226562 24.386719 21.648438 22.886719 23.074219 21.460938 C 25.25 19.136719 32.375 16.136719 32.824219 13.8125 C 33.125 12.460938 30.949219 11.039062 30.875 9.988281 C 30.800781 9.238281 31.023438 8.488281 31.476562 8.113281 C 31.925781 7.664062 32.75 7.4375 33.726562 7.664062 C 36.273438 8.039062 41.226562 12.988281 45.800781 15.085938 C 51.125 17.488281 61.175781 19.511719 64.175781 20.5625 C 65.226562 20.9375 65.75 20.9375 66.199219 21.460938 C 66.574219 21.914062 66.800781 22.738281 66.648438 23.335938 C 66.5 23.9375 65.824219 24.6875 65.148438 24.914062 C 64.550781 25.136719 64.023438 24.988281 63.050781 24.761719 C 60.351562 24.085938 52.851562 20.039062 48.648438 18.613281 C 45.425781 17.488281 42.648438 16.8125 40.023438 16.363281 C 37.773438 15.914062 34.324219 16.511719 33.800781 15.761719 C 33.5 15.3125 33.949219 14.113281 34.398438 13.960938 C 35 13.664062 37.398438 14.9375 37.851562 15.6875 C 38.226562 16.210938 38.074219 17.039062 37.851562 17.5625 C 37.550781 18.164062 36.949219 18.613281 36.199219 18.914062 C 35.074219 19.363281 32.300781 19.886719 31.398438 19.4375 C 30.875 19.136719 30.648438 18.386719 30.648438 17.863281 C 30.648438 17.335938 30.875 16.738281 31.476562 16.363281 C 32.601562 15.539062 35.824219 14.9375 38.523438 15.386719 C 42.425781 15.988281 47.824219 20.261719 52.550781 21.914062 C 56.976562 23.488281 64.175781 23.9375 66.050781 25.210938 C 66.726562 25.664062 66.949219 26.113281 67.023438 26.636719 C 67.101562 27.085938 66.800781 27.914062 66.425781 28.210938 C 66.050781 28.585938 65.523438 28.738281 64.773438 28.664062 C 63.050781 28.585938 59.449219 26.1875 56.601562 25.136719 C 53.449219 24.011719 50.074219 23.1875 46.550781 22.363281 C 42.726562 21.386719 38.449219 20.5625 34.398438 19.960938 C 30.425781 19.4375 24.050781 20.1875 22.550781 18.988281 C 21.949219 18.460938 21.875 17.488281 22.101562 16.886719 C 22.25 16.363281 22.925781 15.988281 23.824219 15.6875 C 25.625 15.164062 30.050781 15.460938 33.125 15.835938 C 36.351562 16.289062 39.050781 16.4375 42.726562 18.164062 C 48.800781 20.9375 65.226562 33.164062 64.851562 34.210938 C 64.773438 34.4375 63.574219 34.363281 62.75 33.988281 C 61.101562 33.386719 57.949219 30.613281 56.375 29.039062 C 55.324219 27.835938 54.125 26.5625 54.050781 25.585938 C 53.976562 24.988281 54.199219 24.238281 54.574219 23.9375 C 55.023438 23.5625 56.148438 23.414062 56.675781 23.636719 C 57.199219 23.863281 57.125 24.539062 57.726562 25.0625 C 59.226562 26.261719 66.5 27.988281 66.800781 29.1875 C 66.949219 29.789062 66.199219 30.761719 65.675781 30.761719 C 64.476562 30.6875 60.574219 24.460938 59.976562 22.4375 C 59.675781 21.460938 59.523438 20.789062 60.125 19.886719 C 61.476562 17.9375 69.273438 16.0625 73.25 14.113281 C 76.550781 12.460938 78.875 10.511719 82.25 9.011719 C 86.300781 7.210938 93.800781 3.914062 95.976562 4.4375 C 96.875 4.664062 97.398438 5.1875 97.550781 6.011719 C 97.851562 7.886719 94.699219 13.960938 92.523438 16.136719 C 90.949219 17.789062 89.148438 17.5625 86.824219 19.0625 C 82.398438 21.988281 72.5 32.414062 68.898438 33.835938 C 67.625 34.363281 66.574219 34.363281 65.976562 33.988281 C 65.449219 33.6875 65.375 33.085938 65.226562 32.261719 C 64.773438 30.238281 64.699219 23.789062 65.226562 21.6875 C 65.375 20.789062 65.675781 20.335938 66.125 19.8125 C 66.5 19.363281 67.023438 18.761719 67.625 18.6875 C 68.226562 18.539062 69.351562 18.613281 69.800781 19.289062 C 70.773438 20.488281 71 26.9375 70.023438 27.6875 C 69.5 28.136719 67.699219 27.613281 67.25 26.9375 C 66.648438 26.039062 67.398438 23.5625 67.851562 21.988281 C 68.375 20.5625 69.273438 18.613281 70.023438 17.9375 C 70.550781 17.5625 71 17.488281 71.449219 17.5625 C 71.976562 17.636719 72.726562 18.011719 72.949219 18.460938 C 73.175781 18.914062 73.175781 19.738281 73.023438 20.261719 C 72.875 20.636719 72.050781 21.164062 72.050781 21.164062 C 71.976562 21.085938 73.023438 19.511719 73.175781 19.585938 C 73.699219 19.8125 72.574219 27.3125 71.976562 29.113281 C 71.75 29.863281 71.601562 30.386719 71.074219 30.613281 C 70.550781 30.835938 69.125 30.6875 68.675781 30.164062 C 68.148438 29.5625 68.300781 28.289062 68.523438 26.863281 C 68.976562 23.9375 71.375 15.386719 73.398438 13.960938 C 74.449219 13.289062 76.175781 13.4375 76.851562 13.960938 C 77.300781 14.335938 77.300781 15.164062 77.300781 15.988281 C 77.375 17.261719 77.074219 19.136719 76.550781 20.789062 C 76.023438 22.511719 74.976562 25.664062 73.925781 26.1875 C 73.25 26.414062 72.273438 26.039062 71.824219 25.664062 C 71.449219 25.289062 71.375 24.613281 71.449219 23.9375 C 71.523438 22.960938 72.273438 21.460938 73.101562 20.1875 C 74.074219 18.613281 75.199219 16.886719 77.148438 15.386719 C 79.925781 13.210938 86.675781 9.988281 88.851562 9.761719 C 89.675781 9.613281 90.199219 9.761719 90.574219 10.0625 C 90.949219 10.363281 91.25 10.8125 91.25 11.1875 C 91.324219 11.710938 91.25 12.164062 90.726562 12.914062 C 89.300781 14.9375 80.300781 22.585938 77.898438 22.738281 C 77 22.8125 76.25 22.210938 76.023438 21.6875 C 75.726562 21.164062 75.800781 20.414062 76.324219 19.585938 C 77.601562 17.636719 85.25 14.636719 88.175781 12.386719 C 90.125 10.8125 91.25 8.335938 92.523438 7.960938 C 93.273438 7.738281 94.101562 7.960938 94.550781 8.335938 C 95.074219 8.710938 95.449219 9.539062 95.375 10.210938 C 95.226562 11.261719 93.125 13.886719 92.75 13.738281 C 92.375 13.585938 92.375 10.8125 93.050781 9.6875 C 93.800781 8.414062 97.550781 7.886719 97.851562 6.835938 C 98.074219 6.164062 96.800781 5.1875 97.023438 4.738281 C 97.25 4.136719 99.199219 3.460938 99.574219 3.761719 C 99.949219 4.0625 99.273438 7.0625 98.601562 7.363281 C 98.148438 7.664062 96.875 6.988281 96.574219 6.460938 C 96.273438 5.9375 96.5 5.039062 96.726562 4.289062 C 97.101562 3.3125 98.074219 1.664062 98.75 1.0625 C 99.125 0.6875 99.5 0.460938 99.949219 0.539062 C 100.550781 0.613281 101.523438 1.289062 101.824219 2.113281 C 102.351562 3.539062 101.601562 8.261719 100.699219 8.636719 C 100.023438 8.863281 98.300781 7.363281 97.851562 6.238281 C 97.324219 4.960938 97.699219 1.289062 98.375 1.0625 C 98.898438 0.835938 100.550781 2.488281 101 3.6875 C 101.675781 5.1875 101.75 8.414062 101 9.613281 C 100.550781 10.363281 99.273438 10.960938 98.601562 10.8125 C 98 10.738281 97.398438 10.136719 97.101562 9.460938 C 96.574219 8.261719 96.875 5.1875 97.25 3.6875 C 97.550781 2.5625 98.148438 1.585938 98.75 1.0625 C 99.125 0.761719 99.5 0.460938 99.949219 0.539062 C 100.550781 0.613281 101.675781 1.4375 101.824219 2.113281 C 102.050781 2.863281 101.375 3.914062 100.851562 4.886719 C 100.101562 6.386719 98.601562 9.386719 97.476562 9.914062 C 96.800781 10.210938 95.75 10.0625 95.300781 9.613281 C 94.773438 9.164062 94.699219 7.960938 94.773438 6.914062 C 94.925781 5.488281 95.75 2.335938 96.800781 1.585938 C 97.550781 1.0625 98.824219 1.210938 99.5 1.511719 C 100.023438 1.8125 100.476562 2.261719 100.773438 3.011719 C 101.226562 4.289062 101.675781 7.289062 100.699219 9.085938 C 99.425781 11.335938 94.175781 14.261719 92.226562 14.488281 C 91.324219 14.636719 90.425781 14.414062 90.050781 13.886719 C 89.601562 13.363281 89.601562 11.863281 89.976562 11.261719 C 90.273438 10.738281 91.101562 10.363281 91.773438 10.289062 C 92.523438 10.289062 94.023438 10.8125 94.101562 11.414062 C 94.25 12.164062 92.675781 13.511719 91.25 14.710938 C 88.550781 16.960938 80.300781 22.664062 77.898438 22.738281 C 77 22.738281 76.25 22.210938 76.023438 21.6875 C 75.726562 21.164062 75.875 20.414062 76.324219 19.585938 C 77.523438 17.488281 85.550781 12.011719 87.648438 10.585938 C 88.476562 10.0625 88.773438 9.761719 89.300781 9.6875 C 89.75 9.613281 90.273438 9.761719 90.574219 10.0625 C 90.949219 10.4375 91.324219 11.1875 91.324219 11.636719 C 91.324219 12.085938 91.175781 12.460938 90.726562 12.914062 C 89.449219 14.1875 82.476562 16.289062 80.074219 18.011719 C 78.574219 19.0625 77.898438 19.886719 77 21.085938 C 75.949219 22.511719 75.273438 25.289062 74.300781 25.960938 C 73.773438 26.335938 73.023438 26.335938 72.574219 26.1875 C 72.050781 25.886719 71.523438 25.210938 71.375 24.386719 C 71.074219 22.585938 72.726562 15.914062 73.925781 15.460938 C 74.601562 15.238281 75.800781 15.988281 76.101562 16.886719 C 76.773438 18.988281 72.875 29.414062 71.074219 30.613281 C 70.398438 31.0625 69.425781 30.835938 68.976562 30.539062 C 68.523438 30.238281 68.375 29.710938 68.226562 28.960938 C 67.925781 27.164062 68.824219 21.835938 69.5 19.886719 C 69.800781 18.835938 70.023438 17.9375 70.625 17.710938 C 71.074219 17.414062 71.898438 17.5625 72.351562 17.863281 C 72.800781 18.085938 73.101562 18.613281 73.175781 19.363281 C 73.398438 21.164062 71.375 27.386719 70.023438 28.886719 C 69.351562 29.636719 68.300781 30.011719 67.699219 29.863281 C 67.101562 29.710938 66.5 28.8125 66.273438 28.0625 C 65.976562 27.011719 66.351562 25.0625 66.574219 23.863281 C 66.726562 22.960938 66.648438 21.914062 67.175781 21.539062 C 67.625 21.238281 68.898438 21.3125 69.351562 21.914062 C 70.324219 23.113281 69.648438 30.988281 68.523438 31.664062 C 68 32.039062 66.425781 31.363281 66.273438 30.914062 C 66.199219 30.613281 66.800781 30.164062 67.476562 29.488281 C 69.800781 27.3125 79.476562 19.363281 83.675781 16.664062 C 86.148438 15.164062 88.324219 15.164062 89.75 13.664062 C 91.101562 12.3125 91.324219 9.539062 92.300781 8.414062 C 92.898438 7.738281 93.574219 7.136719 94.25 7.0625 C 94.773438 6.988281 96.050781 7.511719 96.050781 7.886719 C 95.976562 8.9375 85.851562 11.414062 82.023438 13.210938 C 79.175781 14.636719 77.523438 16.136719 74.898438 17.414062 C 72.050781 18.914062 67.324219 21.3125 65.375 21.539062 C 64.476562 21.613281 63.648438 20.789062 63.5 21.085938 C 63.050781 21.613281 67.023438 26.488281 67.925781 28.289062 C 68.375 29.1875 68.824219 29.789062 68.898438 30.539062 C 68.898438 31.210938 68.75 32.039062 68.300781 32.414062 C 67.773438 32.9375 66.648438 33.085938 65.523438 32.9375 C 64.023438 32.789062 61.773438 31.585938 60.050781 30.613281 C 58.324219 29.636719 56.226562 28.210938 55.175781 27.238281 C 54.574219 26.636719 54.125 26.1875 54.050781 25.585938 C 53.976562 25.0625 54.199219 24.238281 54.574219 23.9375 C 55.101562 23.5625 56.300781 23.5625 57.050781 23.863281 C 58.023438 24.3125 58.476562 25.8125 59.675781 26.863281 C 61.476562 28.511719 66.199219 30.761719 67.476562 32.488281 C 68.148438 33.3125 68.449219 34.136719 68.449219 34.886719 C 68.449219 35.488281 68.148438 36.238281 67.773438 36.761719 C 67.324219 37.210938 66.648438 37.664062 65.898438 37.8125 C 64.851562 37.960938 63.648438 37.585938 61.925781 36.835938 C 57.574219 34.8125 47 24.238281 41.375 21.6875 C 38.148438 20.113281 35.824219 20.039062 32.824219 19.585938 C 29.601562 19.136719 23.898438 20.113281 22.550781 18.988281 C 21.949219 18.460938 21.875 17.488281 22.101562 16.886719 C 22.25 16.363281 22.925781 15.988281 23.824219 15.6875 C 25.925781 15.085938 31.175781 15.835938 34.925781 16.289062 C 38.976562 16.8125 43.625 17.789062 47.375 18.6875 C 50.601562 19.4375 53.226562 20.039062 56.148438 21.011719 C 59.375 22.136719 64.476562 23.9375 66.050781 25.210938 C 66.648438 25.664062 66.949219 26.113281 67.023438 26.636719 C 67.101562 27.085938 66.800781 27.914062 66.425781 28.210938 C 66.050781 28.585938 65.601562 28.664062 64.773438 28.664062 C 62.523438 28.738281 56.449219 27.238281 52.101562 25.738281 C 47.300781 24.164062 41.074219 19.8125 37.25 19.0625 C 34.925781 18.6875 32.375 19.886719 31.398438 19.4375 C 30.949219 19.210938 30.726562 18.761719 30.648438 18.3125 C 30.574219 17.863281 30.648438 17.039062 31.101562 16.664062 C 31.699219 16.136719 34.550781 15.835938 34.773438 16.210938 C 34.851562 16.4375 34.023438 17.5625 33.5 17.710938 C 32.976562 17.789062 31.925781 17.335938 31.476562 16.886719 C 31.101562 16.363281 30.949219 15.386719 31.023438 14.710938 C 31.101562 14.039062 31.25 13.210938 31.851562 12.761719 C 32.976562 12.011719 35.75 12.011719 38.074219 12.164062 C 41.074219 12.386719 45.425781 13.511719 48.5 14.636719 C 51.199219 15.539062 53.148438 17.039062 55.699219 18.085938 C 58.550781 19.210938 64.550781 20.039062 64.925781 21.164062 C 65 21.6875 63.726562 22.136719 63.574219 22.664062 C 63.5 23.261719 64.625 24.3125 64.324219 24.6875 C 63.273438 25.8125 48.125 20.488281 42.574219 17.710938 C 38.523438 15.761719 33.273438 12.6875 33.050781 11.113281 C 32.976562 10.363281 34.25 9.3125 34.550781 9.386719 C 35 9.539062 35.148438 12.164062 35 13.136719 C 34.851562 13.8125 34.550781 14.414062 34.101562 14.863281 C 33.5 15.3125 32.226562 15.613281 31.398438 15.539062 C 30.726562 15.539062 29.976562 15.3125 29.675781 14.863281 C 29.300781 14.414062 29 13.363281 29.226562 12.835938 C 29.523438 12.238281 30.574219 11.710938 31.25 11.636719 C 31.851562 11.5625 32.601562 11.9375 33.125 12.238281 C 33.726562 12.613281 34.398438 13.0625 34.699219 13.664062 C 35.074219 14.1875 35.449219 14.789062 35.226562 15.539062 C 34.550781 17.636719 25.550781 25.664062 23.976562 25.289062 C 23.300781 25.136719 22.773438 24.011719 23 23.261719 C 23.601562 21.460938 32.375 17.9375 35.375 17.1875 C 36.949219 16.8125 38.449219 16.738281 39.125 17.113281 C 39.574219 17.335938 39.800781 17.789062 39.875 18.238281 C 39.949219 18.6875 39.949219 19.136719 39.351562 19.886719 C 36.875 23.1875 12.199219 38.5625 8 39.914062 C 7.023438 40.210938 6.5 40.363281 6.050781 40.0625 C 5.523438 39.613281 5.226562 37.960938 5.449219 36.988281 C 5.75 35.863281 6.574219 35.335938 7.851562 33.835938 C 11.375 29.9375 25.773438 15.761719 28.925781 12.988281 C 29.824219 12.3125 30.125 11.863281 30.726562 11.710938 C 31.175781 11.636719 31.625 11.710938 32 12.011719 C 32.375 12.3125 32.824219 13.0625 32.824219 13.511719 C 32.898438 13.960938 32.75 14.414062 32.375 14.789062 C 31.851562 15.460938 30.351562 15.613281 29.074219 16.664062 C 26.601562 18.539062 21.648438 25.0625 19.773438 26.710938 C 19.101562 27.3125 18.800781 27.613281 18.199219 27.835938 C 17.523438 28.0625 16.25 28.289062 15.726562 27.914062 C 15.199219 27.386719 15.050781 26.039062 15.351562 24.613281 C 16.101562 21.386719 23.074219 11.863281 24.875 10.210938 C 25.324219 9.761719 25.625 9.6875 26 9.613281 C 26.449219 9.539062 26.976562 9.6875 27.351562 9.914062 C 27.726562 10.210938 28.324219 11.1875 28.101562 11.488281 C 27.949219 11.863281 25.398438 11.710938 25.398438 11.5625 C 25.324219 11.414062 27.800781 10.4375 29 10.363281 C 30.273438 10.289062 32.523438 10.585938 32.824219 11.1875 C 32.976562 11.636719 32.226562 12.914062 31.550781 13.0625 C 30.5 13.363281 27.800781 9.613281 26.226562 10.136719 C 24.050781 10.886719 23.226562 17.5625 21.050781 21.3125 C 18.726562 25.511719 15.425781 30.164062 12.351562 33.988281 C 9.425781 37.511719 5.226562 43.4375 3.050781 43.4375 C 1.925781 43.4375 0.5 40.664062 0.5 40.664062 " clip-rule="nonzero"/></clipPath><clipPath id="a03bb1cc75"><rect x="0" width="102" y="0" height="44"/></clipPath><clipPath id="96219c7150"><path d="M 11.605469 35.546875 L 59.960938 35.546875 L 59.960938 62 L 11.605469 62 Z M 11.605469 35.546875 " clip-rule="nonzero"/></clipPath><clipPath id="8f579d10be"><path d="M 37.5 53.0625 C 21.75 60.039062 15.300781 62.136719 13.273438 61.238281 C 12.300781 60.789062 11.699219 59.511719 11.773438 58.761719 C 11.851562 57.9375 12.375 57.113281 13.574219 56.4375 C 17.324219 54.335938 35.023438 53.289062 42.449219 52.835938 C 47.023438 52.539062 50.699219 52.460938 53.625 52.835938 C 55.5 53.0625 57.148438 53.289062 58.199219 53.960938 C 58.949219 54.414062 59.550781 55.164062 59.699219 55.835938 C 59.925781 56.585938 59.699219 57.5625 59.324219 58.164062 C 58.949219 58.761719 58.574219 59.210938 57.523438 59.585938 C 53.699219 61.011719 33.601562 62.585938 28.351562 61.085938 C 26.175781 60.488281 24.449219 59.210938 24.148438 58.238281 C 24 57.5625 24.375 56.886719 25.125 56.136719 C 27.074219 54.113281 37.875 48.414062 39.75 49.3125 C 40.648438 49.761719 40.726562 51.710938 40.5 52.539062 C 40.273438 53.289062 39.75 53.585938 38.773438 54.261719 C 36.148438 55.914062 25.273438 60.488281 22.125 60.789062 C 20.851562 60.863281 20.25 60.5625 19.5 60.261719 C 18.75 59.886719 17.851562 59.363281 17.550781 58.6875 C 17.175781 58.085938 17.175781 56.960938 17.398438 56.210938 C 17.550781 55.460938 17.851562 55.085938 18.75 54.1875 C 21.226562 51.636719 31.5 44.738281 37.125 41.585938 C 41.324219 39.113281 46.425781 35.664062 48.824219 35.960938 C 50.023438 36.1875 51.074219 37.3125 51.300781 38.210938 C 51.449219 39.039062 50.550781 40.6875 49.800781 41.136719 C 49.125 41.511719 47.925781 41.4375 47.25 41.0625 C 46.574219 40.6875 45.976562 39.636719 45.898438 38.886719 C 45.824219 38.136719 46.351562 37.011719 46.875 36.5625 C 47.476562 36.113281 48.675781 35.886719 49.425781 36.113281 C 50.101562 36.335938 51.074219 37.164062 51.226562 37.914062 C 51.375 38.738281 51 39.863281 50.023438 40.988281 C 47.699219 43.6875 37.574219 47.511719 32.925781 50.4375 C 29.625 52.613281 26.625 55.539062 24.675781 56.511719 C 23.699219 56.960938 23.101562 57.261719 22.425781 57.113281 C 21.75 56.886719 20.476562 55.3125 20.625 55.011719 C 20.773438 54.789062 22.050781 55.386719 23.175781 55.238281 C 25.726562 54.789062 31.949219 51.1875 35.398438 49.988281 C 37.800781 49.164062 40.199219 48.1875 41.699219 48.335938 C 42.675781 48.488281 43.574219 48.789062 43.875 49.460938 C 44.25 50.363281 43.726562 52.460938 42.675781 53.664062 C 40.875 55.6875 34.5 57.710938 32.023438 58.3125 C 30.75 58.613281 29.851562 58.914062 29.101562 58.539062 C 28.199219 58.164062 26.851562 56.511719 27.226562 55.761719 C 28.050781 54.039062 41.851562 54.636719 46.949219 54.710938 C 50.25 54.710938 53.925781 54.261719 54.976562 55.3125 C 55.574219 55.988281 55.726562 57.5625 54.976562 58.3125 C 53.101562 60.261719 40.800781 57.9375 33.976562 58.539062 C 27.300781 59.0625 17.851562 62.136719 14.476562 61.460938 C 13.199219 61.164062 12.375 60.636719 12 59.960938 C 11.625 59.289062 11.699219 58.238281 12.148438 57.5625 C 12.675781 56.664062 14.324219 56.289062 15.898438 55.761719 C 18.300781 54.863281 22.351562 54.710938 25.648438 53.585938 C 29.175781 52.386719 34.199219 48.863281 36.226562 48.636719 C 36.976562 48.5625 37.425781 48.710938 37.875 49.011719 C 38.25 49.238281 38.699219 49.761719 38.851562 50.289062 C 39 50.738281 38.925781 51.414062 38.699219 51.9375 C 38.476562 52.386719 37.5 53.0625 37.5 53.0625 " clip-rule="nonzero"/></clipPath><clipPath id="20e099e12e"><path d="M 107 23 L 114 23 L 114 61 L 107 61 Z M 107 23 " clip-rule="nonzero"/></clipPath><clipPath id="8c09934cbb"><path d="M 107.722656 23.1875 L 114.226562 23.234375 L 113.960938 60.390625 L 107.457031 60.34375 Z M 107.722656 23.1875 " clip-rule="nonzero"/></clipPath><clipPath id="4ec414dd96"><path d="M 108.019531 57.996094 C 108.105469 24.695312 108.484375 24.171875 109.011719 23.726562 C 109.464844 23.429688 110.066406 23.207031 110.667969 23.289062 C 111.339844 23.441406 112.386719 24.050781 112.757812 24.578125 C 113.054688 25.105469 113.125 25.703125 113.121094 26.230469 C 113.042969 26.753906 112.8125 27.429688 112.359375 27.800781 C 111.832031 28.246094 110.777344 28.6875 110.027344 28.53125 C 109.28125 28.453125 108.386719 27.621094 108.089844 27.019531 C 107.792969 26.566406 107.722656 25.890625 107.875 25.367188 C 108.183594 24.621094 109.613281 23.503906 110.367188 23.285156 C 110.890625 23.214844 111.566406 23.445312 111.9375 23.746094 C 112.535156 24.199219 112.832031 24.726562 113.121094 26.003906 C 114.140625 30.363281 113.738281 54.960938 112.589844 58.550781 C 112.28125 59.375 112.054688 59.597656 111.679688 59.894531 C 111.226562 60.191406 110.550781 60.335938 110.027344 60.257812 C 109.578125 60.253906 108.980469 59.875 108.605469 59.5 C 108.308594 59.121094 108.019531 57.996094 108.019531 57.996094 " clip-rule="nonzero"/></clipPath><clipPath id="25c97665ca"><path d="M 35.0625 37 L 72.925781 37 L 72.925781 60 L 35.0625 60 Z M 35.0625 37 " clip-rule="nonzero"/></clipPath><clipPath id="6c2f4c9141"><path d="M 38.773438 41.0625 C 48.300781 37.164062 50.324219 36.9375 52.050781 37.460938 C 53.773438 37.988281 55.648438 39.488281 56.625 41.0625 C 57.601562 42.5625 58.125 44.738281 58.050781 46.613281 C 57.898438 48.5625 56.175781 52.539062 55.648438 52.460938 C 55.050781 52.386719 53.851562 47.8125 54.675781 46.835938 C 55.5 45.863281 60.148438 45.9375 60.375 46.539062 C 60.601562 47.136719 56.550781 48.863281 55.949219 50.585938 C 55.351562 52.3125 57.675781 56.4375 57 56.8125 C 56.023438 57.335938 50.101562 52.238281 48.898438 49.988281 C 48.148438 48.488281 48.074219 46.835938 48.449219 45.414062 C 48.824219 44.0625 50.023438 42.488281 51.074219 41.738281 C 51.976562 41.0625 53.023438 40.761719 54 40.6875 C 54.976562 40.539062 55.875 40.613281 57.074219 41.0625 C 58.949219 41.738281 61.574219 44.210938 63.824219 45.414062 C 65.925781 46.539062 68.699219 46.835938 70.199219 48.113281 C 71.324219 49.011719 72.148438 50.210938 72.523438 51.488281 C 72.898438 52.761719 72.824219 54.488281 72.375 55.6875 C 71.925781 56.886719 70.800781 58.238281 69.675781 58.914062 C 68.550781 59.585938 66.976562 59.960938 65.625 59.8125 C 64.273438 59.738281 62.773438 59.0625 61.800781 58.164062 C 60.824219 57.261719 60.074219 55.539062 59.851562 54.488281 C 59.625 53.664062 59.699219 53.0625 59.773438 52.3125 C 59.925781 51.636719 60 51.039062 60.449219 50.363281 C 61.050781 49.386719 62.25 47.960938 63.449219 47.4375 C 64.648438 46.835938 66.449219 46.761719 67.574219 46.914062 C 68.398438 47.0625 68.925781 47.210938 69.601562 47.664062 C 70.5 48.335938 71.851562 49.613281 72.300781 50.8125 C 72.824219 52.085938 72.898438 53.738281 72.601562 55.011719 C 72.226562 56.289062 71.101562 57.710938 70.273438 58.539062 C 69.675781 59.0625 69.300781 59.289062 68.398438 59.511719 C 66.898438 59.886719 64.050781 60.113281 61.648438 59.4375 C 58.351562 58.386719 53.023438 54.1875 50.925781 52.3125 C 49.875 51.414062 49.351562 50.960938 48.898438 49.988281 C 48.375 48.789062 48.074219 46.835938 48.449219 45.414062 C 48.824219 44.0625 50.023438 42.488281 51.074219 41.738281 C 51.976562 41.0625 52.949219 40.6875 54 40.6875 C 55.273438 40.613281 56.851562 40.988281 58.425781 41.8125 C 60.824219 43.085938 65.101562 46.011719 66.523438 48.488281 C 67.726562 50.511719 68.550781 53.363281 67.800781 55.085938 C 66.824219 57.039062 63.226562 58.835938 60.449219 59.210938 C 57.226562 59.664062 52.273438 57.789062 49.351562 56.511719 C 47.25 55.613281 45.148438 54.863281 44.324219 53.136719 C 43.425781 51.113281 45.300781 44.511719 45.449219 44.511719 C 45.601562 44.511719 46.273438 49.539062 45.449219 50.738281 C 44.699219 51.710938 42.976562 51.9375 41.699219 52.011719 C 40.351562 52.085938 38.699219 51.710938 37.726562 51.113281 C 36.898438 50.664062 36.300781 49.914062 35.851562 49.085938 C 35.476562 48.335938 35.101562 47.4375 35.175781 46.460938 C 35.25 45.335938 35.851562 43.613281 36.523438 42.636719 C 37.125 41.886719 38.773438 41.0625 38.773438 41.0625 " clip-rule="nonzero"/></clipPath><clipPath id="1ace84e8d0"><path d="M 75.339844 27 L 113 27 L 113 61.503906 L 75.339844 61.503906 Z M 75.339844 27 " clip-rule="nonzero"/></clipPath><clipPath id="4b505157a4"><path d="M 78.75 49.386719 C 95.773438 37.914062 99.300781 29.886719 101.925781 28.085938 C 103.050781 27.261719 103.800781 27.1875 104.773438 27.113281 C 105.75 27.039062 106.875 27.1875 107.773438 27.636719 C 108.675781 28.011719 109.574219 28.539062 110.25 29.4375 C 111 30.488281 111.300781 31.761719 111.601562 33.710938 C 112.351562 37.761719 113.175781 48.488281 112.273438 53.0625 C 111.824219 55.761719 111.148438 58.011719 109.726562 59.289062 C 108.375 60.414062 106.125 60.636719 104.25 60.789062 C 102.375 60.9375 100.648438 60.261719 98.550781 60.1875 C 95.699219 60.1875 91.199219 61.460938 88.648438 61.164062 C 87 60.9375 85.726562 60.5625 84.601562 59.8125 C 83.550781 58.988281 82.574219 57.5625 82.199219 56.289062 C 81.898438 54.9375 81.976562 53.210938 82.425781 52.011719 C 82.949219 50.738281 84.074219 49.460938 85.199219 48.710938 C 86.398438 48.039062 88.050781 47.664062 89.398438 47.8125 C 90.75 47.960938 92.25 48.710938 93.226562 49.613281 C 94.199219 50.511719 94.949219 52.238281 95.25 53.363281 C 95.476562 54.1875 95.476562 54.710938 95.25 55.539062 C 94.949219 56.664062 94.050781 58.460938 93.300781 59.289062 C 92.699219 59.886719 92.25 60.261719 91.5 60.488281 C 90.375 60.9375 88.574219 61.238281 87.226562 61.011719 C 85.949219 60.710938 84.449219 59.8125 83.550781 58.761719 C 82.726562 57.789062 82.050781 56.136719 81.976562 54.789062 C 81.898438 53.511719 82.351562 51.863281 83.101562 50.738281 C 83.925781 49.613281 85.125 48.710938 86.550781 48.113281 C 88.273438 47.363281 90.449219 47.136719 92.925781 46.988281 C 96.226562 46.761719 104.699219 47.136719 104.699219 47.664062 C 104.773438 47.960938 100.425781 50.0625 99.226562 49.164062 C 97.199219 47.664062 98.324219 34.835938 99.226562 31.613281 C 99.601562 30.335938 100.050781 29.738281 100.726562 28.988281 C 101.398438 28.3125 102.300781 27.636719 103.273438 27.414062 C 104.550781 27.039062 106.5 27.039062 107.773438 27.636719 C 109.050781 28.164062 110.398438 29.4375 111 30.710938 C 111.601562 31.988281 111.675781 33.863281 111.375 35.210938 C 111.074219 36.488281 110.476562 37.3125 109.5 38.738281 C 107.398438 41.8125 102.523438 48.414062 98.476562 51.710938 C 94.949219 54.636719 90.375 56.664062 87.148438 58.164062 C 84.824219 59.210938 82.800781 60.414062 81 60.335938 C 79.648438 60.261719 78.148438 59.585938 77.25 58.761719 C 76.351562 57.863281 75.675781 56.210938 75.523438 55.085938 C 75.375 54.113281 75.523438 53.210938 75.898438 52.3125 C 76.425781 51.261719 78.75 49.386719 78.75 49.386719 " clip-rule="nonzero"/></clipPath><clipPath id="d16ceba963"><path d="M 66.121094 49.59375 L 111.957031 49.59375 L 111.957031 60.464844 L 66.121094 60.464844 Z M 66.121094 49.59375 " clip-rule="nonzero"/></clipPath><clipPath id="fc43a5ddf1"><path d="M 75.976562 59.8125 C 67.726562 59.363281 66.675781 58.914062 66.449219 58.164062 C 66.148438 57.335938 66.675781 55.6875 67.351562 54.9375 C 67.949219 54.335938 68.925781 54.1875 69.976562 53.886719 C 71.25 53.4375 73.351562 52.835938 74.550781 52.914062 C 75.375 52.914062 76.199219 53.0625 76.648438 53.511719 C 77.175781 54.039062 77.625 55.539062 77.324219 56.289062 C 77.023438 56.960938 75.824219 57.636719 75 57.863281 C 74.324219 58.011719 73.425781 57.863281 72.824219 57.5625 C 72.300781 57.335938 71.851562 56.8125 71.625 56.289062 C 71.476562 55.761719 71.398438 55.011719 71.625 54.488281 C 71.925781 53.886719 72.449219 53.289062 73.425781 52.914062 C 75.824219 52.011719 83.25 53.136719 88.125 52.6875 C 93 52.164062 99.375 49.613281 102.675781 49.988281 C 104.550781 50.136719 105.523438 50.8125 106.875 51.710938 C 108.449219 52.835938 110.925781 55.011719 111.449219 56.511719 C 111.824219 57.5625 111.675781 58.988281 111.148438 59.511719 C 110.550781 60.113281 108.824219 60.261719 108.148438 60.039062 C 107.625 59.8125 107.175781 59.363281 107.023438 58.835938 C 106.800781 58.238281 106.800781 57.113281 107.175781 56.511719 C 107.550781 55.914062 108.523438 55.3125 109.199219 55.3125 C 109.875 55.238281 110.925781 55.761719 111.300781 56.289062 C 111.75 56.8125 111.898438 57.9375 111.675781 58.613281 C 111.449219 59.289062 110.550781 60.039062 109.949219 60.1875 C 109.425781 60.414062 108.976562 60.414062 108.375 60.113281 C 107.101562 59.585938 104.851562 56.136719 103.5 55.386719 C 102.601562 54.863281 102.300781 54.863281 101.175781 54.789062 C 98.25 54.710938 90.375 57.039062 85.425781 57.488281 C 81.148438 57.9375 75.449219 58.386719 73.425781 57.789062 C 72.601562 57.5625 72.226562 57.261719 71.925781 56.8125 C 71.625 56.363281 71.476562 55.613281 71.476562 55.085938 C 71.550781 54.488281 71.925781 53.886719 72.300781 53.511719 C 72.75 53.136719 73.351562 52.835938 74.023438 52.835938 C 74.851562 52.835938 76.574219 53.289062 77.023438 53.960938 C 77.476562 54.636719 77.398438 56.136719 77.023438 56.8125 C 76.800781 57.335938 76.273438 57.5625 75.601562 57.789062 C 74.476562 58.164062 71.25 58.761719 70.726562 58.085938 C 70.273438 57.5625 70.726562 55.613281 71.398438 55.085938 C 72.300781 54.414062 75.523438 54.863281 76.648438 55.238281 C 77.25 55.460938 77.625 55.761719 77.925781 56.210938 C 78.226562 56.664062 78.375 57.335938 78.300781 57.789062 C 78.226562 58.3125 77.925781 58.914062 77.476562 59.210938 C 77.101562 59.585938 75.976562 59.8125 75.976562 59.8125 " clip-rule="nonzero"/></clipPath><clipPath id="e7174ebca2"><path d="M 109 17.285156 L 111.472656 17.285156 L 111.472656 19.863281 L 109 19.863281 Z M 109 17.285156 " clip-rule="nonzero"/></clipPath><clipPath id="2b92356ec5"><path d="M 109.273438 17.289062 C 111.375 19.164062 111.226562 19.460938 111 19.613281 C 110.625 19.835938 109.5 19.6875 109.273438 19.386719 C 109.050781 19.164062 108.976562 18.636719 109.125 18.335938 C 109.273438 18.039062 109.949219 17.585938 110.324219 17.585938 C 110.699219 17.664062 111.226562 18.1875 111.300781 18.5625 C 111.449219 18.863281 111.226562 19.386719 111 19.613281 C 110.699219 19.835938 109.5 19.835938 109.351562 19.539062 C 109.125 19.238281 109.5 17.8125 109.800781 17.664062 C 110.175781 17.585938 111.226562 18.488281 111.375 18.863281 C 111.375 19.164062 111 19.613281 111 19.613281 C 110.925781 19.613281 111.449219 18.636719 111.300781 18.488281 C 111.148438 18.261719 109.800781 19.238281 109.5 19.011719 C 109.125 18.789062 109.273438 17.289062 109.273438 17.289062 " clip-rule="nonzero"/></clipPath><clipPath id="58380c6a09"><path d="M 109.253906 15.164062 L 113.195312 15.164062 L 113.195312 19.183594 L 109.253906 19.183594 Z M 109.253906 15.164062 " clip-rule="nonzero"/></clipPath><clipPath id="6dcbd88056"><path d="M 109.574219 17.289062 C 111.75 15.1875 112.351562 15.1875 112.648438 15.335938 C 112.949219 15.636719 113.101562 16.386719 113.023438 16.835938 C 112.875 17.511719 111.976562 18.488281 111.375 18.710938 C 110.925781 18.9375 110.324219 18.9375 110.023438 18.710938 C 109.726562 18.488281 109.574219 17.886719 109.574219 17.4375 C 109.574219 16.988281 109.875 16.238281 110.175781 15.9375 C 110.476562 15.710938 110.925781 15.636719 111.375 15.710938 C 111.824219 15.863281 112.574219 16.460938 112.648438 16.835938 C 112.726562 17.289062 112.273438 17.960938 111.976562 18.261719 C 111.601562 18.5625 110.925781 18.789062 110.550781 18.636719 C 110.175781 18.5625 109.800781 18.1875 109.726562 17.8125 C 109.726562 17.4375 110.023438 16.6875 110.324219 16.460938 C 110.625 16.238281 111.226562 16.238281 111.523438 16.386719 C 111.824219 16.6875 111.976562 18.113281 111.75 18.414062 C 111.601562 18.710938 111 18.789062 110.625 18.710938 C 110.25 18.5625 109.648438 17.738281 109.726562 17.585938 C 109.800781 17.363281 111.824219 17.8125 111.824219 18.039062 C 111.898438 18.261719 110.625 19.011719 110.25 18.863281 C 109.875 18.710938 109.5 17.960938 109.574219 17.4375 C 109.648438 16.835938 110.699219 15.710938 111.300781 15.414062 C 111.675781 15.1875 112.351562 15.1875 112.648438 15.335938 C 112.949219 15.636719 113.175781 16.386719 113.023438 16.835938 C 112.875 17.585938 111.75 18.789062 111.074219 19.011719 C 110.550781 19.164062 109.800781 19.085938 109.5 18.789062 C 109.273438 18.488281 109.574219 17.289062 109.574219 17.289062 " clip-rule="nonzero"/></clipPath><clipPath id="f3fc2f1ec7"><path d="M 108.0625 16.679688 L 112.65625 16.679688 L 112.65625 22.914062 L 108.0625 22.914062 Z M 108.0625 16.679688 " clip-rule="nonzero"/></clipPath><clipPath id="6627a3c750"><path d="M 112.273438 17.8125 C 112.351562 22.460938 111.976562 22.835938 111.601562 22.914062 C 111.074219 22.914062 110.398438 22.386719 109.875 21.863281 C 109.199219 21.113281 108.074219 19.6875 108.148438 18.863281 C 108.148438 18.113281 109.050781 17.210938 109.648438 17.0625 C 110.023438 16.914062 110.699219 17.0625 110.925781 17.363281 C 111.226562 17.585938 111.300781 18.1875 111.226562 18.5625 C 111.074219 18.863281 110.699219 19.3125 110.398438 19.3125 C 109.949219 19.3125 108.898438 18.488281 108.898438 18.039062 C 108.824219 17.664062 109.5 17.0625 109.875 16.988281 C 110.175781 16.914062 110.773438 17.0625 110.925781 17.363281 C 111.148438 17.738281 110.851562 19.164062 110.476562 19.3125 C 110.175781 19.386719 108.976562 18.636719 108.824219 18.1875 C 108.824219 17.8125 109.273438 17.136719 109.648438 17.0625 C 110.023438 16.914062 111.074219 17.4375 111.074219 17.585938 C 111.074219 17.664062 110.398438 17.664062 110.324219 17.886719 C 110.101562 18.414062 112.648438 20.8125 112.574219 21.710938 C 112.5 22.238281 111.976562 22.835938 111.601562 22.914062 C 111.226562 22.914062 110.550781 22.539062 110.25 22.011719 C 109.800781 21.1875 109.574219 18.488281 110.023438 17.585938 C 110.25 17.136719 110.851562 16.6875 111.226562 16.6875 C 111.601562 16.761719 112.273438 17.8125 112.273438 17.8125 " clip-rule="nonzero"/></clipPath><clipPath id="b04a9832d0"><path d="M 35.722656 46.046875 L 50.226562 46.046875 L 50.226562 57.347656 L 35.722656 57.347656 Z M 35.722656 46.046875 " clip-rule="nonzero"/></clipPath><clipPath id="38bb1b1ff3"><path d="M 40.726562 50.960938 C 47.324219 51.863281 49.125 52.539062 49.726562 53.363281 C 50.023438 53.8125 50.175781 54.414062 49.875 54.863281 C 48.898438 56.210938 39 57.335938 37.050781 56.960938 C 36.375 56.8125 36 56.585938 35.851562 56.210938 C 35.773438 55.914062 36 55.386719 36.449219 55.011719 C 37.574219 54.039062 43.574219 52.011719 44.550781 52.539062 C 44.925781 52.761719 44.925781 53.886719 44.925781 53.886719 C 45 53.886719 45 49.085938 44.175781 48.710938 C 43.199219 48.261719 40.574219 51.710938 39.375 51.710938 C 38.699219 51.710938 37.800781 51.039062 37.726562 50.664062 C 37.648438 50.363281 37.875 49.835938 38.175781 49.613281 C 38.550781 49.460938 39.375 49.386719 39.675781 49.6875 C 39.898438 49.988281 39.824219 51.335938 39.523438 51.636719 C 39.226562 51.863281 38.324219 51.789062 38.101562 51.488281 C 37.800781 51.1875 37.726562 50.289062 38.101562 49.761719 C 38.773438 48.5625 43.199219 46.085938 44.625 46.238281 C 45.449219 46.3125 46.050781 46.914062 46.425781 47.664062 C 47.023438 48.9375 47.476562 52.3125 46.351562 53.8125 C 45 55.6875 38.625 57.039062 37.050781 56.960938 C 36.523438 56.960938 36.074219 56.738281 36 56.4375 C 35.851562 56.136719 36 55.386719 36.449219 55.011719 C 37.648438 53.886719 44.023438 53.363281 46.425781 53.210938 C 47.773438 53.136719 49.199219 52.835938 49.726562 53.363281 C 50.023438 53.664062 50.101562 54.5625 49.875 54.863281 C 49.648438 55.238281 49.125 55.386719 48.601562 55.386719 C 47.476562 55.3125 45.148438 53.511719 43.648438 53.136719 C 42.449219 52.914062 40.949219 53.585938 40.351562 53.136719 C 39.898438 52.835938 39.601562 52.164062 39.75 51.789062 C 39.824219 51.414062 40.726562 50.960938 40.726562 50.960938 " clip-rule="nonzero"/></clipPath></defs><rect x="-12" width="144" fill="#ffffff" y="-7.5" height="89.999996" fill-opacity="1"/><rect x="-12" width="144" fill="#ffffff" y="-7.5" height="89.999996" fill-opacity="1"/><path stroke-linecap="butt" transform="matrix(0.75, 0, 0, 0.75, 6.246227, 58.779575)" fill="none" stroke-linejoin="miter" d="M -0.00017832 2.002233 L 138.723791 2.002233 " stroke="#ade1c8" stroke-width="4" stroke-opacity="1" stroke-miterlimit="4"/><g clip-path="url(#6ae61606b8)"><g clip-path="url(#5bf50723d0)"><path fill="#ade1c8" d="M 66.375 48.789062 L 77.40625 48.789062 L 77.40625 59.289062 L 66.375 59.289062 Z M 66.375 48.789062 " fill-opacity="1" fill-rule="nonzero"/></g></g><path stroke-linecap="butt" transform="matrix(0.000000001309, -0.75, 0.75, 0.000000001309, 110.624408, 46.790434)" fill="none" stroke-linejoin="miter" d="M 0.00182811 2.00079 L 44.689332 2.00079 " stroke="#eeffc2" stroke-width="4" stroke-opacity="1" stroke-miterlimit="4"/><path stroke-linecap="butt" transform="matrix(0, -0.75, 0.75, 0, 110.645912, 59.435147)" fill="none" stroke-linejoin="miter" d="M 0.00207093 1.998159 L 49.601033 1.998159 " stroke="#ade1c8" stroke-width="4" stroke-opacity="1" stroke-miterlimit="4"/><g clip-path="url(#c42e2f8beb)"><g clip-path="url(#9b2d3cfe1c)"><path fill="#ade1c8" d="M 101.25 22.238281 L 113.023438 22.238281 L 113.023438 39.855469 L 101.25 39.855469 Z M 101.25 22.238281 " fill-opacity="1" fill-rule="nonzero"/></g></g><g clip-path="url(#80944f5acc)"><g clip-path="url(#d11e0867e7)"><g mask="url(#b85c7afebe)"><g transform="matrix(1, 0, 0, 1, 10, 13)"><g clip-path="url(#a03bb1cc75)"><g clip-path="url(#b6c602d644)"><g clip-path="url(#fdb86e6579)"><rect x="-36.4" width="172.8" fill="#deff80" height="107.999996" y="-29.499999" fill-opacity="1"/></g></g></g></g></g></g></g><g clip-path="url(#96219c7150)"><g clip-path="url(#8f579d10be)"><path fill="#ade1c8" d="M 8.773438 32.960938 L 62.792969 32.960938 L 62.792969 64.460938 L 8.773438 64.460938 Z M 8.773438 32.960938 " fill-opacity="1" fill-rule="nonzero"/></g></g><g clip-path="url(#20e099e12e)"><g clip-path="url(#8c09934cbb)"><g clip-path="url(#4ec414dd96)"><path fill="#ade1c8" d="M 104.914062 20.246094 L 116.238281 20.328125 L 115.929688 63.28125 L 104.605469 63.199219 Z M 104.914062 20.246094 " fill-opacity="1" fill-rule="nonzero"/></g></g></g><g clip-path="url(#25c97665ca)"><g clip-path="url(#6c2f4c9141)"><path fill="#ade1c8" d="M 32.175781 34.460938 L 75.589844 34.460938 L 75.589844 62.886719 L 32.175781 62.886719 Z M 32.175781 34.460938 " fill-opacity="1" fill-rule="nonzero"/></g></g><g clip-path="url(#1ace84e8d0)"><g clip-path="url(#4b505157a4)"><path fill="#ade1c8" d="M 72.523438 24.113281 L 115.390625 24.113281 L 115.390625 64.164062 L 72.523438 64.164062 Z M 72.523438 24.113281 " fill-opacity="1" fill-rule="nonzero"/></g></g><g clip-path="url(#d16ceba963)"><g clip-path="url(#fc43a5ddf1)"><path fill="#ade1c8" d="M 63.449219 46.988281 L 114.753906 46.988281 L 114.753906 63.261719 L 63.449219 63.261719 Z M 63.449219 46.988281 " fill-opacity="1" fill-rule="nonzero"/></g></g><path stroke-linecap="butt" transform="matrix(0.427014, -0.61657, 0.61657, 0.427014, 5.783665, 59.300305)" fill="none" stroke-linejoin="miter" d="M -0.00299645 2.000161 L 70.43477 2.000477 " stroke="#deff80" stroke-width="4" stroke-opacity="1" stroke-miterlimit="4"/><path stroke-linecap="butt" transform="matrix(0.692602, 0.287754, -0.287754, 0.692602, 36.031677, 15.984071)" fill="none" stroke-linejoin="miter" d="M 0.00199319 2.001799 L 51.064926 1.998665 " stroke="#deff80" stroke-width="4" stroke-opacity="1" stroke-miterlimit="4"/><path stroke-linecap="butt" transform="matrix(0.687586, -0.299542, 0.299542, 0.687586, 68.419106, 30.687136)" fill="none" stroke-linejoin="miter" d="M 0.00153682 2.000949 L 62.726784 2.000669 " stroke="#deff80" stroke-width="4" stroke-opacity="1" stroke-miterlimit="4"/><g clip-path="url(#e7174ebca2)"><g clip-path="url(#2b92356ec5)"><path fill="#eeffc2" d="M 106.125 14.289062 L 114.375 14.289062 L 114.375 22.699219 L 106.125 22.699219 Z M 106.125 14.289062 " fill-opacity="1" fill-rule="nonzero"/></g></g><g clip-path="url(#58380c6a09)"><g clip-path="url(#6dcbd88056)"><path fill="#eeffc2" d="M 106.5 12.335938 L 116.023438 12.335938 L 116.023438 22.011719 L 106.5 22.011719 Z M 106.5 12.335938 " fill-opacity="1" fill-rule="nonzero"/></g></g><g clip-path="url(#f3fc2f1ec7)"><g clip-path="url(#6627a3c750)"><path fill="#eeffc2" d="M 105.148438 13.6875 L 115.648438 13.6875 L 115.648438 25.910156 L 105.148438 25.910156 Z M 105.148438 13.6875 " fill-opacity="1" fill-rule="nonzero"/></g></g><path stroke-linecap="butt" transform="matrix(0.64336, -0.385471, 0.385471, 0.64336, 6.246968, 58.868706)" fill="none" stroke-linejoin="miter" d="M 0.00128874 2.002053 L 66.46326 1.999078 " stroke="#4cc28f" stroke-width="4" stroke-opacity="1" stroke-miterlimit="4"/><path stroke-linecap="butt" transform="matrix(0.621475, 0.419844, -0.419844, 0.621475, 49.292643, 33.000637)" fill="none" stroke-linejoin="miter" d="M -0.000855788 1.998327 L 43.715846 2.000356 " stroke="#4cc28f" stroke-width="4" stroke-opacity="1" stroke-miterlimit="4"/><path stroke-linecap="butt" transform="matrix(0.581786, -0.473312, 0.473312, 0.581786, 72.92799, 51.430171)" fill="none" stroke-linejoin="miter" d="M 0.000392526 2.000331 L 65.785924 2.001009 " stroke="#4cc28f" stroke-width="4" stroke-opacity="1" stroke-miterlimit="4"/><g clip-path="url(#b04a9832d0)"><g clip-path="url(#38bb1b1ff3)"><path fill="#ade1c8" d="M 32.851562 43.238281 L 52.90625 43.238281 L 52.90625 59.960938 L 32.851562 59.960938 Z M 32.851562 43.238281 " fill-opacity="1" fill-rule="nonzero"/></g></g><path stroke-linecap="butt" transform="matrix(0.75, 0, 0, 0.75, 12.195382, 58.779575)" fill="none" stroke-linejoin="miter" d="M -0.0000930454 2.002233 L 135.239501 2.002233 " stroke="#ade1c8" stroke-width="4" stroke-opacity="1" stroke-miterlimit="4"/><path stroke-linecap="butt" transform="matrix(0.75, 0, 0, 0.75, 44.849999, 55.237494)" fill="none" stroke-linejoin="miter" d="M 0.00208502 2.001049 L 56.00209 2.001049 " stroke="#ade1c8" stroke-width="4" stroke-opacity="1" stroke-miterlimit="4"/></svg>