<svg xmlns="http://www.w3.org/2000/svg" xmlns:xlink="http://www.w3.org/1999/xlink" width="160" zoomAndPan="magnify" viewBox="0 0 120 74.999997" height="100" preserveAspectRatio="xMidYMid meet" version="1.0"><defs><clipPath id="dcb9b3d916"><path d="M 62.121094 31.609375 L 66.621094 31.609375 L 66.621094 64.964844 L 62.121094 64.964844 Z M 62.121094 31.609375 " clip-rule="nonzero"/></clipPath><clipPath id="d2d7cbc818"><path d="M 57.621094 47.824219 L 62.121094 47.824219 L 62.121094 64.964844 L 57.621094 64.964844 Z M 57.621094 47.824219 " clip-rule="nonzero"/></clipPath><clipPath id="a84a620c19"><path d="M 53.289062 41.714844 L 57.789062 41.714844 L 57.789062 64.964844 L 53.289062 64.964844 Z M 53.289062 41.714844 " clip-rule="nonzero"/></clipPath><clipPath id="3593a2c759"><path d="M 6.628906 14.605469 L 11.128906 14.605469 L 11.128906 64.964844 L 6.628906 64.964844 Z M 6.628906 14.605469 " clip-rule="nonzero"/></clipPath><clipPath id="07a9bf893a"><path d="M 11.128906 35.414062 L 15.628906 35.414062 L 15.628906 64.964844 L 11.128906 64.964844 Z M 11.128906 35.414062 " clip-rule="nonzero"/></clipPath><clipPath id="623717fb22"><path d="M 15.628906 23.050781 L 20.128906 23.050781 L 20.128906 64.964844 L 15.628906 64.964844 Z M 15.628906 23.050781 " clip-rule="nonzero"/></clipPath><clipPath id="155c5e2875"><path d="M 34.371094 18.464844 L 38.871094 18.464844 L 38.871094 64.964844 L 34.371094 64.964844 Z M 34.371094 18.464844 " clip-rule="nonzero"/></clipPath><clipPath id="de5c9a7556"><path d="M 29.871094 31.609375 L 34.371094 31.609375 L 34.371094 64.964844 L 29.871094 64.964844 Z M 29.871094 31.609375 " clip-rule="nonzero"/></clipPath><clipPath id="8df9b18ad4"><path d="M 38.871094 36.550781 L 43.371094 36.550781 L 43.371094 64.964844 L 38.871094 64.964844 Z M 38.871094 36.550781 " clip-rule="nonzero"/></clipPath><clipPath id="d197197be8"><path d="M 85.621094 16.492188 L 90.121094 16.492188 L 90.121094 64.964844 L 85.621094 64.964844 Z M 85.621094 16.492188 " clip-rule="nonzero"/></clipPath><clipPath id="925ea5d198"><path d="M 81.121094 20.953125 L 85.621094 20.953125 L 85.621094 64.964844 L 81.121094 64.964844 Z M 81.121094 20.953125 " clip-rule="nonzero"/></clipPath><clipPath id="0da3d0e905"><path d="M 76.707031 31.375 L 81.207031 31.375 L 81.207031 64.964844 L 76.707031 64.964844 Z M 76.707031 31.375 " clip-rule="nonzero"/></clipPath><clipPath id="d99016e070"><path d="M 108.871094 10.035156 L 113.371094 10.035156 L 113.371094 64.964844 L 108.871094 64.964844 Z M 108.871094 10.035156 " clip-rule="nonzero"/></clipPath><clipPath id="1aa8589248"><path d="M 104.371094 23.050781 L 108.871094 23.050781 L 108.871094 64.964844 L 104.371094 64.964844 Z M 104.371094 23.050781 " clip-rule="nonzero"/></clipPath><clipPath id="95bf08d925"><path d="M 100.125 35.414062 L 104.625 35.414062 L 104.625 64.964844 L 100.125 64.964844 Z M 100.125 35.414062 " clip-rule="nonzero"/></clipPath></defs><g clip-path="url(#dcb9b3d916)"><path fill="#deff80" d="M 62.121094 31.609375 L 66.621094 31.609375 L 66.621094 64.972656 L 62.121094 64.972656 Z M 62.121094 31.609375 " fill-opacity="1" fill-rule="nonzero"/></g><g clip-path="url(#d2d7cbc818)"><path fill="#4adf9f" d="M 57.621094 47.824219 L 62.121094 47.824219 L 62.121094 64.960938 L 57.621094 64.960938 Z M 57.621094 47.824219 " fill-opacity="1" fill-rule="nonzero"/></g><g clip-path="url(#a84a620c19)"><path fill="#3b9f74" d="M 53.289062 41.714844 L 57.789062 41.714844 L 57.789062 64.972656 L 53.289062 64.972656 Z M 53.289062 41.714844 " fill-opacity="1" fill-rule="nonzero"/></g><g clip-path="url(#3593a2c759)"><path fill="#3b9f74" d="M 6.628906 14.605469 L 11.128906 14.605469 L 11.128906 64.964844 L 6.628906 64.964844 Z M 6.628906 14.605469 " fill-opacity="1" fill-rule="nonzero"/></g><g clip-path="url(#07a9bf893a)"><path fill="#4adf9f" d="M 11.128906 35.414062 L 15.628906 35.414062 L 15.628906 64.964844 L 11.128906 64.964844 Z M 11.128906 35.414062 " fill-opacity="1" fill-rule="nonzero"/></g><g clip-path="url(#623717fb22)"><path fill="#deff80" d="M 15.628906 23.050781 L 20.128906 23.050781 L 20.128906 64.957031 L 15.628906 64.957031 Z M 15.628906 23.050781 " fill-opacity="1" fill-rule="nonzero"/></g><g clip-path="url(#155c5e2875)"><path fill="#4adf9f" d="M 34.371094 18.464844 L 38.871094 18.464844 L 38.871094 64.957031 L 34.371094 64.957031 Z M 34.371094 18.464844 " fill-opacity="1" fill-rule="nonzero"/></g><g clip-path="url(#de5c9a7556)"><path fill="#3b9f74" d="M 29.871094 31.609375 L 34.371094 31.609375 L 34.371094 64.972656 L 29.871094 64.972656 Z M 29.871094 31.609375 " fill-opacity="1" fill-rule="nonzero"/></g><g clip-path="url(#8df9b18ad4)"><path fill="#deff80" d="M 38.871094 36.550781 L 43.371094 36.550781 L 43.371094 64.957031 L 38.871094 64.957031 Z M 38.871094 36.550781 " fill-opacity="1" fill-rule="nonzero"/></g><g clip-path="url(#d197197be8)"><path fill="#deff80" d="M 85.621094 16.492188 L 90.121094 16.492188 L 90.121094 64.972656 L 85.621094 64.972656 Z M 85.621094 16.492188 " fill-opacity="1" fill-rule="nonzero"/></g><g clip-path="url(#925ea5d198)"><path fill="#4adf9f" d="M 81.121094 20.953125 L 85.621094 20.953125 L 85.621094 64.96875 L 81.121094 64.96875 Z M 81.121094 20.953125 " fill-opacity="1" fill-rule="nonzero"/></g><g clip-path="url(#0da3d0e905)"><path fill="#3b9f74" d="M 76.707031 31.375 L 81.207031 31.375 L 81.207031 64.96875 L 76.707031 64.96875 Z M 76.707031 31.375 " fill-opacity="1" fill-rule="nonzero"/></g><g clip-path="url(#d99016e070)"><path fill="#deff80" d="M 108.871094 10.035156 L 113.371094 10.035156 L 113.371094 64.964844 L 108.871094 64.964844 Z M 108.871094 10.035156 " fill-opacity="1" fill-rule="nonzero"/></g><g clip-path="url(#1aa8589248)"><path fill="#4adf9f" d="M 104.371094 23.050781 L 108.871094 23.050781 L 108.871094 64.957031 L 104.371094 64.957031 Z M 104.371094 23.050781 " fill-opacity="1" fill-rule="nonzero"/></g><g clip-path="url(#95bf08d925)"><path fill="#3b9f74" d="M 100.125 35.414062 L 104.625 35.414062 L 104.625 64.964844 L 100.125 64.964844 Z M 100.125 35.414062 " fill-opacity="1" fill-rule="nonzero"/></g></svg>