<svg xmlns="http://www.w3.org/2000/svg" xmlns:xlink="http://www.w3.org/1999/xlink" width="160" zoomAndPan="magnify" viewBox="0 0 120 74.999997" height="100" preserveAspectRatio="xMidYMid meet" version="1.0"><defs><clipPath id="5d2385383f"><path d="M 21.550781 11.367188 L 98.800781 11.367188 L 98.800781 67.617188 L 21.550781 67.617188 Z M 21.550781 11.367188 " clip-rule="nonzero"/></clipPath></defs><g clip-path="url(#5d2385383f)"><path fill="#3b9f74" d="M 98.449219 40.332031 L 98.449219 67.34375 L 85.988281 67.34375 L 85.988281 40.332031 Z M 82.386719 25.378906 L 82.386719 38.074219 C 82.34375 38.230469 82.320312 38.386719 82.3125 38.550781 L 82.3125 67.34375 L 69.898438 67.34375 L 69.898438 25.378906 Z M 53.691406 11.523438 L 66.296875 11.523438 L 66.296875 67.34375 L 53.691406 67.34375 Z M 50.09375 25.378906 L 50.09375 67.34375 L 37.675781 67.34375 L 37.675781 38.53125 C 37.671875 38.371094 37.648438 38.210938 37.605469 38.054688 L 37.605469 25.378906 Z M 21.542969 40.332031 L 34.003906 40.332031 L 34.003906 67.34375 L 21.542969 67.34375 Z M 21.542969 40.332031 " fill-opacity="1" fill-rule="nonzero"/></g></svg>