<svg xmlns="http://www.w3.org/2000/svg" xmlns:xlink="http://www.w3.org/1999/xlink" width="160" zoomAndPan="magnify" viewBox="0 0 120 74.999997" height="100" preserveAspectRatio="xMidYMid meet" version="1.0"><path stroke-linecap="butt" transform="matrix(0.427014, -0.61657, 0.61657, 0.427014, 5.183665, 57.687801)" fill="none" stroke-linejoin="miter" d="M -0.000366217 2.00214 L 70.430153 2.001139 " stroke="#deff80" stroke-width="4" stroke-opacity="1" stroke-miterlimit="4"/><path stroke-linecap="butt" transform="matrix(0.693738, 0.285004, -0.285004, 0.693738, 35.42596, 14.37039)" fill="none" stroke-linejoin="miter" d="M -0.000623893 2.000179 L 59.200047 1.998267 " stroke="#deff80" stroke-width="4" stroke-opacity="1" stroke-miterlimit="4"/><path stroke-linecap="butt" transform="matrix(0.655865, -0.363787, 0.363787, 0.655865, 73.84017, 31.490153)" fill="none" stroke-linejoin="miter" d="M -0.000846078 1.997851 L 59.48386 2.00245 " stroke="#deff80" stroke-width="4" stroke-opacity="1" stroke-miterlimit="4"/><path stroke-linecap="butt" transform="matrix(0.740378, -0.119751, 0.119751, 0.740378, 7.504137, 38.145406)" fill="none" stroke-linejoin="miter" d="M -0.00166325 1.998161 L 55.965724 2.002135 " stroke="#4cc28f" stroke-width="4" stroke-opacity="1" stroke-miterlimit="4"/><path stroke-linecap="butt" transform="matrix(0.621475, 0.419844, -0.419844, 0.621475, 48.692643, 31.388137)" fill="none" stroke-linejoin="miter" d="M -0.000249791 2.002946 L 43.713536 2.000659 " stroke="#4cc28f" stroke-width="4" stroke-opacity="1" stroke-miterlimit="4"/><path stroke-linecap="butt" transform="matrix(0.735041, 0.149044, -0.149044, 0.735041, 74.848047, 49.380261)" fill="none" stroke-linejoin="miter" d="M 0.00139575 2.001374 L 51.630177 2.001878 " stroke="#4cc28f" stroke-width="4" stroke-opacity="1" stroke-miterlimit="4"/></svg>