<svg xmlns="http://www.w3.org/2000/svg" xmlns:xlink="http://www.w3.org/1999/xlink" width="160" zoomAndPan="magnify" viewBox="0 0 120 74.999997" height="100" preserveAspectRatio="xMidYMid meet" version="1.0"><defs><g/></defs><g fill="#3b9f74" fill-opacity="1"><g transform="translate(23.746207, 47.195447)"><g><path d="M 1.09375 0 L 1.09375 -3.390625 L 6.109375 -3.390625 L 6.109375 -16.328125 L 5.78125 -16.40625 C 5.070312 -16.0625 4.375 -15.789062 3.6875 -15.59375 C 3 -15.394531 2.210938 -15.238281 1.328125 -15.125 L 1.328125 -18.640625 C 3.628906 -19.117188 5.492188 -19.828125 6.921875 -20.765625 L 10.171875 -20.765625 L 10.171875 -3.390625 L 14.640625 -3.390625 L 14.640625 0 Z M 1.09375 0 "/></g></g><g transform="translate(39.070512, 47.195447)"><g><path d="M 8.46875 0.296875 C 6.238281 0.296875 4.46875 -0.171875 3.15625 -1.109375 C 1.851562 -2.054688 1.03125 -3.390625 0.6875 -5.109375 L 3.796875 -6.5625 L 4.125 -6.5 C 4.46875 -5.351562 4.960938 -4.515625 5.609375 -3.984375 C 6.265625 -3.460938 7.171875 -3.203125 8.328125 -3.203125 C 9.441406 -3.203125 10.289062 -3.460938 10.875 -3.984375 C 11.46875 -4.503906 11.765625 -5.265625 11.765625 -6.265625 C 11.765625 -7.242188 11.472656 -7.992188 10.890625 -8.515625 C 10.304688 -9.035156 9.453125 -9.296875 8.328125 -9.296875 L 5.203125 -9.296875 L 5.203125 -12.484375 L 7.921875 -12.484375 C 8.847656 -12.484375 9.585938 -12.710938 10.140625 -13.171875 C 10.691406 -13.640625 10.96875 -14.304688 10.96875 -15.171875 C 10.96875 -16.023438 10.707031 -16.664062 10.1875 -17.09375 C 9.675781 -17.53125 8.96875 -17.75 8.0625 -17.75 C 7.125 -17.75 6.296875 -17.53125 5.578125 -17.09375 C 4.867188 -16.65625 4.296875 -16.066406 3.859375 -15.328125 L 3.53125 -15.265625 L 1.375 -17.78125 C 2.101562 -18.769531 3.039062 -19.5625 4.1875 -20.15625 C 5.332031 -20.757812 6.695312 -21.0625 8.28125 -21.0625 C 10.457031 -21.0625 12.117188 -20.609375 13.265625 -19.703125 C 14.410156 -18.796875 14.984375 -17.519531 14.984375 -15.875 C 14.984375 -14.875 14.75 -14.019531 14.28125 -13.3125 C 13.820312 -12.613281 13.15625 -12.007812 12.28125 -11.5 L 12.28125 -11.1875 C 14.675781 -10.351562 15.875 -8.648438 15.875 -6.078125 C 15.875 -4.785156 15.597656 -3.660156 15.046875 -2.703125 C 14.503906 -1.753906 13.675781 -1.015625 12.5625 -0.484375 C 11.457031 0.0351562 10.09375 0.296875 8.46875 0.296875 Z M 8.46875 0.296875 "/></g></g><g transform="translate(56.25532, 47.195447)"><g><path d="M 0.5625 4.171875 C 1.394531 3.660156 2.140625 3.039062 2.796875 2.3125 C 3.460938 1.59375 3.816406 0.859375 3.859375 0.109375 C 3.117188 0.109375 2.535156 -0.109375 2.109375 -0.546875 C 1.691406 -0.984375 1.484375 -1.554688 1.484375 -2.265625 C 1.484375 -2.703125 1.585938 -3.101562 1.796875 -3.46875 C 2.003906 -3.832031 2.296875 -4.117188 2.671875 -4.328125 C 3.046875 -4.535156 3.484375 -4.640625 3.984375 -4.640625 C 4.773438 -4.640625 5.40625 -4.378906 5.875 -3.859375 C 6.351562 -3.335938 6.59375 -2.59375 6.59375 -1.625 C 6.59375 0.0703125 6.160156 1.546875 5.296875 2.796875 C 4.441406 4.046875 3.300781 5.101562 1.875 5.96875 Z M 0.5625 4.171875 "/></g></g><g transform="translate(64.336441, 47.195447)"><g><path d="M 8.46875 0.296875 C 6.238281 0.296875 4.46875 -0.171875 3.15625 -1.109375 C 1.851562 -2.054688 1.03125 -3.390625 0.6875 -5.109375 L 3.796875 -6.5625 L 4.125 -6.5 C 4.46875 -5.351562 4.960938 -4.515625 5.609375 -3.984375 C 6.265625 -3.460938 7.171875 -3.203125 8.328125 -3.203125 C 9.441406 -3.203125 10.289062 -3.460938 10.875 -3.984375 C 11.46875 -4.503906 11.765625 -5.265625 11.765625 -6.265625 C 11.765625 -7.242188 11.472656 -7.992188 10.890625 -8.515625 C 10.304688 -9.035156 9.453125 -9.296875 8.328125 -9.296875 L 5.203125 -9.296875 L 5.203125 -12.484375 L 7.921875 -12.484375 C 8.847656 -12.484375 9.585938 -12.710938 10.140625 -13.171875 C 10.691406 -13.640625 10.96875 -14.304688 10.96875 -15.171875 C 10.96875 -16.023438 10.707031 -16.664062 10.1875 -17.09375 C 9.675781 -17.53125 8.96875 -17.75 8.0625 -17.75 C 7.125 -17.75 6.296875 -17.53125 5.578125 -17.09375 C 4.867188 -16.65625 4.296875 -16.066406 3.859375 -15.328125 L 3.53125 -15.265625 L 1.375 -17.78125 C 2.101562 -18.769531 3.039062 -19.5625 4.1875 -20.15625 C 5.332031 -20.757812 6.695312 -21.0625 8.28125 -21.0625 C 10.457031 -21.0625 12.117188 -20.609375 13.265625 -19.703125 C 14.410156 -18.796875 14.984375 -17.519531 14.984375 -15.875 C 14.984375 -14.875 14.75 -14.019531 14.28125 -13.3125 C 13.820312 -12.613281 13.15625 -12.007812 12.28125 -11.5 L 12.28125 -11.1875 C 14.675781 -10.351562 15.875 -8.648438 15.875 -6.078125 C 15.875 -4.785156 15.597656 -3.660156 15.046875 -2.703125 C 14.503906 -1.753906 13.675781 -1.015625 12.5625 -0.484375 C 11.457031 0.0351562 10.09375 0.296875 8.46875 0.296875 Z M 8.46875 0.296875 "/></g></g><g transform="translate(81.521249, 47.195447)"><g><path d="M 6.90625 0 L 2.71875 0 L 9.875 -17.015625 L 9.78125 -17.3125 L 0.5625 -17.3125 L 0.5625 -20.765625 L 14.03125 -20.765625 L 14.03125 -17.125 Z M 6.90625 0 "/></g></g></g></svg>