<svg xmlns="http://www.w3.org/2000/svg" xmlns:xlink="http://www.w3.org/1999/xlink" width="160" zoomAndPan="magnify" viewBox="0 0 120 74.999997" height="100" preserveAspectRatio="xMidYMid meet" version="1.0"><defs><clipPath id="c293219e25"><path d="M 65 3.375 L 94 3.375 L 94 33 L 65 33 Z M 65 3.375 " clip-rule="nonzero"/></clipPath></defs><path fill="#3b9f74" d="M 61.25 36.164062 L 69.046875 7.5 C 67.945312 7.167969 66.828125 6.898438 65.695312 6.6875 C 64.566406 6.480469 63.425781 6.332031 62.277344 6.25 C 61.128906 6.167969 59.980469 6.144531 58.832031 6.191406 C 57.683594 6.234375 56.539062 6.339844 55.402344 6.511719 C 54.261719 6.679688 53.136719 6.914062 52.023438 7.207031 C 50.914062 7.503906 49.820312 7.859375 48.746094 8.273438 C 47.675781 8.6875 46.628906 9.160156 45.605469 9.691406 C 44.585938 10.222656 43.597656 10.808594 42.640625 11.449219 C 41.683594 12.089844 40.765625 12.78125 39.886719 13.523438 C 39.007812 14.261719 38.171875 15.050781 37.378906 15.886719 C 36.585938 16.71875 35.839844 17.59375 35.144531 18.511719 C 34.449219 19.425781 33.804688 20.378906 33.214844 21.367188 C 32.625 22.355469 32.089844 23.371094 31.613281 24.417969 C 31.132812 25.464844 30.714844 26.535156 30.355469 27.625 C 29.992188 28.71875 29.695312 29.828125 29.457031 30.953125 C 29.21875 32.078125 29.046875 33.214844 28.933594 34.359375 C 28.820312 35.503906 28.773438 36.652344 28.785156 37.804688 C 28.800781 38.953125 28.878906 40.101562 29.019531 41.242188 C 29.164062 42.382812 29.367188 43.515625 29.632812 44.632812 C 29.898438 45.753906 30.226562 46.855469 30.613281 47.9375 C 31.003906 49.023438 31.449219 50.078125 31.953125 51.113281 C 32.460938 52.148438 33.019531 53.152344 33.636719 54.121094 C 34.25 55.09375 34.917969 56.03125 35.636719 56.929688 C 36.355469 57.824219 37.125 58.683594 37.9375 59.496094 C 38.75 60.308594 39.605469 61.074219 40.503906 61.792969 C 41.402344 62.511719 42.339844 63.179688 43.3125 63.796875 C 44.285156 64.410156 45.285156 64.972656 46.320312 65.476562 C 47.355469 65.980469 48.414062 66.425781 49.496094 66.8125 C 50.582031 67.203125 51.679688 67.527344 52.800781 67.792969 C 53.921875 68.058594 55.050781 68.265625 56.191406 68.40625 C 57.335938 68.546875 58.480469 68.625 59.632812 68.636719 C 60.78125 68.652344 61.929688 68.601562 63.074219 68.492188 C 64.21875 68.378906 65.355469 68.203125 66.480469 67.964844 C 67.605469 67.726562 68.714844 67.425781 69.808594 67.066406 C 70.902344 66.707031 71.972656 66.285156 73.019531 65.808594 C 74.0625 65.328125 75.082031 64.792969 76.066406 64.203125 C 77.054688 63.613281 78.007812 62.96875 78.921875 62.273438 C 79.839844 61.574219 80.714844 60.832031 81.546875 60.039062 C 82.382812 59.246094 83.167969 58.410156 83.910156 57.527344 C 84.652344 56.648438 85.34375 55.730469 85.980469 54.773438 C 86.621094 53.816406 87.207031 52.828125 87.738281 51.808594 C 88.269531 50.789062 88.742188 49.738281 89.15625 48.667969 C 89.570312 47.59375 89.925781 46.5 90.21875 45.386719 C 90.511719 44.277344 90.746094 43.152344 90.914062 42.011719 C 91.085938 40.875 91.191406 39.730469 91.234375 38.582031 C 91.277344 37.429688 91.257812 36.28125 91.175781 35.136719 C 91.089844 33.988281 90.945312 32.847656 90.734375 31.714844 C 90.523438 30.585938 90.253906 29.46875 89.921875 28.367188 Z M 61.25 36.164062 " fill-opacity="1" fill-rule="nonzero"/><g clip-path="url(#c293219e25)"><path fill="#4adf9f" d="M 72.882812 3.75 L 65.085938 32.414062 L 93.75 24.617188 C 93.378906 23.390625 92.929688 22.191406 92.410156 21.019531 C 91.890625 19.847656 91.300781 18.710938 90.644531 17.613281 C 89.984375 16.511719 89.261719 15.457031 88.472656 14.445312 C 87.683594 13.4375 86.835938 12.476562 85.929688 11.570312 C 85.023438 10.664062 84.0625 9.816406 83.054688 9.027344 C 82.042969 8.238281 80.988281 7.515625 79.886719 6.855469 C 78.789062 6.199219 77.652344 5.609375 76.480469 5.089844 C 75.308594 4.570312 74.109375 4.121094 72.882812 3.75 Z M 72.882812 3.75 " fill-opacity="1" fill-rule="nonzero"/></g></svg>