<svg xmlns="http://www.w3.org/2000/svg" xmlns:xlink="http://www.w3.org/1999/xlink" width="160" zoomAndPan="magnify" viewBox="0 0 120 74.999997" height="100" preserveAspectRatio="xMidYMid meet" version="1.0"><defs><clipPath id="f2f670bce4"><path d="M 15.800781 52.4375 L 29.152344 52.4375 L 29.152344 65.789062 L 15.800781 65.789062 Z M 15.800781 52.4375 " clip-rule="nonzero"/></clipPath><clipPath id="0f19d7e44e"><path d="M 22.476562 52.4375 C 18.789062 52.4375 15.800781 55.425781 15.800781 59.113281 C 15.800781 62.800781 18.789062 65.789062 22.476562 65.789062 C 26.164062 65.789062 29.152344 62.800781 29.152344 59.113281 C 29.152344 55.425781 26.164062 52.4375 22.476562 52.4375 Z M 22.476562 52.4375 " clip-rule="nonzero"/></clipPath><clipPath id="c047625477"><path d="M 29.675781 33.6875 L 35.601562 33.6875 L 35.601562 39.613281 L 29.675781 39.613281 Z M 29.675781 33.6875 " clip-rule="nonzero"/></clipPath><clipPath id="3548927c46"><path d="M 32.640625 33.6875 C 31.003906 33.6875 29.675781 35.015625 29.675781 36.652344 C 29.675781 38.285156 31.003906 39.613281 32.640625 39.613281 C 34.277344 39.613281 35.601562 38.285156 35.601562 36.652344 C 35.601562 35.015625 34.277344 33.6875 32.640625 33.6875 Z M 32.640625 33.6875 " clip-rule="nonzero"/></clipPath><clipPath id="420106ff95"><path d="M 86.714844 9.589844 L 104.199219 9.589844 L 104.199219 27.074219 L 86.714844 27.074219 Z M 86.714844 9.589844 " clip-rule="nonzero"/></clipPath><clipPath id="fcae10983a"><path d="M 95.457031 9.589844 C 90.628906 9.589844 86.714844 13.503906 86.714844 18.332031 C 86.714844 23.160156 90.628906 27.074219 95.457031 27.074219 C 100.285156 27.074219 104.199219 23.160156 104.199219 18.332031 C 104.199219 13.503906 100.285156 9.589844 95.457031 9.589844 Z M 95.457031 9.589844 " clip-rule="nonzero"/></clipPath><clipPath id="583020289e"><path d="M 72.785156 35.277344 L 84.410156 35.277344 L 84.410156 46.902344 L 72.785156 46.902344 Z M 72.785156 35.277344 " clip-rule="nonzero"/></clipPath><clipPath id="9369b7d712"><path d="M 78.597656 35.277344 C 75.386719 35.277344 72.785156 37.878906 72.785156 41.089844 C 72.785156 44.300781 75.386719 46.902344 78.597656 46.902344 C 81.804688 46.902344 84.410156 44.300781 84.410156 41.089844 C 84.410156 37.878906 81.804688 35.277344 78.597656 35.277344 Z M 78.597656 35.277344 " clip-rule="nonzero"/></clipPath><clipPath id="b02c2bdf6e"><path d="M 55.851562 22.476562 L 70.023438 22.476562 L 70.023438 36.652344 L 55.851562 36.652344 Z M 55.851562 22.476562 " clip-rule="nonzero"/></clipPath><clipPath id="3e2ec20d5e"><path d="M 62.9375 22.476562 C 59.023438 22.476562 55.851562 25.648438 55.851562 29.5625 C 55.851562 33.476562 59.023438 36.652344 62.9375 36.652344 C 66.851562 36.652344 70.023438 33.476562 70.023438 29.5625 C 70.023438 25.648438 66.851562 22.476562 62.9375 22.476562 Z M 62.9375 22.476562 " clip-rule="nonzero"/></clipPath><clipPath id="f0dc870f7e"><path d="M 43.402344 43.289062 L 52.550781 43.289062 L 52.550781 52.4375 L 43.402344 52.4375 Z M 43.402344 43.289062 " clip-rule="nonzero"/></clipPath><clipPath id="c22b1c5fb2"><path d="M 47.976562 43.289062 C 45.449219 43.289062 43.402344 45.335938 43.402344 47.863281 C 43.402344 50.390625 45.449219 52.4375 47.976562 52.4375 C 50.503906 52.4375 52.550781 50.390625 52.550781 47.863281 C 52.550781 45.335938 50.503906 43.289062 47.976562 43.289062 Z M 47.976562 43.289062 " clip-rule="nonzero"/></clipPath><clipPath id="18f5b93769"><path d="M 29.152344 45.578125 L 35.078125 45.578125 L 35.078125 51.503906 L 29.152344 51.503906 Z M 29.152344 45.578125 " clip-rule="nonzero"/></clipPath><clipPath id="5e3c7c3221"><path d="M 32.113281 45.578125 C 30.476562 45.578125 29.152344 46.90625 29.152344 48.542969 C 29.152344 50.179688 30.476562 51.503906 32.113281 51.503906 C 33.75 51.503906 35.078125 50.179688 35.078125 48.542969 C 35.078125 46.90625 33.75 45.578125 32.113281 45.578125 Z M 32.113281 45.578125 " clip-rule="nonzero"/></clipPath><clipPath id="8db628f29e"><path d="M 43.402344 18.332031 L 54.953125 18.332031 L 54.953125 29.882812 L 43.402344 29.882812 Z M 43.402344 18.332031 " clip-rule="nonzero"/></clipPath><clipPath id="a430e5aaf1"><path d="M 49.175781 18.332031 C 45.988281 18.332031 43.402344 20.917969 43.402344 24.109375 C 43.402344 27.296875 45.988281 29.882812 49.175781 29.882812 C 52.367188 29.882812 54.953125 27.296875 54.953125 24.109375 C 54.953125 20.917969 52.367188 18.332031 49.175781 18.332031 Z M 49.175781 18.332031 " clip-rule="nonzero"/></clipPath><clipPath id="0ee6bba990"><path d="M 40.851562 31.664062 L 50.828125 31.664062 L 50.828125 41.636719 L 40.851562 41.636719 Z M 40.851562 31.664062 " clip-rule="nonzero"/></clipPath><clipPath id="1af0df19a7"><path d="M 45.839844 31.664062 C 43.085938 31.664062 40.851562 33.894531 40.851562 36.652344 C 40.851562 39.40625 43.085938 41.636719 45.839844 41.636719 C 48.59375 41.636719 50.828125 39.40625 50.828125 36.652344 C 50.828125 33.894531 48.59375 31.664062 45.839844 31.664062 Z M 45.839844 31.664062 " clip-rule="nonzero"/></clipPath><clipPath id="8ce72c02ba"><path d="M 56.902344 39.84375 L 69.5 39.84375 L 69.5 52.4375 L 56.902344 52.4375 Z M 56.902344 39.84375 " clip-rule="nonzero"/></clipPath><clipPath id="196e2988dd"><path d="M 63.199219 39.84375 C 59.722656 39.84375 56.902344 42.660156 56.902344 46.140625 C 56.902344 49.617188 59.722656 52.4375 63.199219 52.4375 C 66.679688 52.4375 69.5 49.617188 69.5 46.140625 C 69.5 42.660156 66.679688 39.84375 63.199219 39.84375 Z M 63.199219 39.84375 " clip-rule="nonzero"/></clipPath><clipPath id="e369d8bf7d"><path d="M 75.464844 19.8125 L 85.214844 19.8125 L 85.214844 29.5625 L 75.464844 29.5625 Z M 75.464844 19.8125 " clip-rule="nonzero"/></clipPath><clipPath id="aed1f64700"><path d="M 80.339844 19.8125 C 77.648438 19.8125 75.464844 21.996094 75.464844 24.6875 C 75.464844 27.378906 77.648438 29.5625 80.339844 29.5625 C 83.03125 29.5625 85.214844 27.378906 85.214844 24.6875 C 85.214844 21.996094 83.03125 19.8125 80.339844 19.8125 Z M 80.339844 19.8125 " clip-rule="nonzero"/></clipPath><clipPath id="f8c99bbd66"><path d="M 71.226562 15.628906 L 75.136719 15.628906 L 75.136719 19.539062 L 71.226562 19.539062 Z M 71.226562 15.628906 " clip-rule="nonzero"/></clipPath><clipPath id="6378544c53"><path d="M 73.183594 15.628906 C 72.101562 15.628906 71.226562 16.503906 71.226562 17.585938 C 71.226562 18.664062 72.101562 19.539062 73.183594 19.539062 C 74.261719 19.539062 75.136719 18.664062 75.136719 17.585938 C 75.136719 16.503906 74.261719 15.628906 73.183594 15.628906 Z M 73.183594 15.628906 " clip-rule="nonzero"/></clipPath><clipPath id="fb27f29126"><path d="M 18.519531 41.621094 L 26.433594 41.621094 L 26.433594 49.539062 L 18.519531 49.539062 Z M 18.519531 41.621094 " clip-rule="nonzero"/></clipPath><clipPath id="84b0996231"><path d="M 22.476562 41.621094 C 20.292969 41.621094 18.519531 43.394531 18.519531 45.578125 C 18.519531 47.765625 20.292969 49.539062 22.476562 49.539062 C 24.664062 49.539062 26.433594 47.765625 26.433594 45.578125 C 26.433594 43.394531 24.664062 41.621094 22.476562 41.621094 Z M 22.476562 41.621094 " clip-rule="nonzero"/></clipPath><clipPath id="bb22818e69"><path d="M 35.484375 52.4375 L 40.554688 52.4375 L 40.554688 57.507812 L 35.484375 57.507812 Z M 35.484375 52.4375 " clip-rule="nonzero"/></clipPath><clipPath id="19bfa98a6d"><path d="M 38.019531 52.4375 C 36.621094 52.4375 35.484375 53.574219 35.484375 54.972656 C 35.484375 56.375 36.621094 57.507812 38.019531 57.507812 C 39.421875 57.507812 40.554688 56.375 40.554688 54.972656 C 40.554688 53.574219 39.421875 52.4375 38.019531 52.4375 Z M 38.019531 52.4375 " clip-rule="nonzero"/></clipPath><clipPath id="9f82c68b73"><path d="M 52.550781 36.652344 L 58.277344 36.652344 L 58.277344 42.378906 L 52.550781 42.378906 Z M 52.550781 36.652344 " clip-rule="nonzero"/></clipPath><clipPath id="cc2f73ac3d"><path d="M 55.414062 36.652344 C 53.835938 36.652344 52.550781 37.933594 52.550781 39.515625 C 52.550781 41.09375 53.835938 42.378906 55.414062 42.378906 C 56.996094 42.378906 58.277344 41.09375 58.277344 39.515625 C 58.277344 37.933594 56.996094 36.652344 55.414062 36.652344 Z M 55.414062 36.652344 " clip-rule="nonzero"/></clipPath><clipPath id="bd6a75fc73"><path d="M 36.589844 41.636719 L 42.398438 41.636719 L 42.398438 47.449219 L 36.589844 47.449219 Z M 36.589844 41.636719 " clip-rule="nonzero"/></clipPath><clipPath id="f95a4fcdd2"><path d="M 39.492188 41.636719 C 37.886719 41.636719 36.589844 42.9375 36.589844 44.542969 C 36.589844 46.148438 37.886719 47.449219 39.492188 47.449219 C 41.097656 47.449219 42.398438 46.148438 42.398438 44.542969 C 42.398438 42.9375 41.097656 41.636719 39.492188 41.636719 Z M 39.492188 41.636719 " clip-rule="nonzero"/></clipPath><clipPath id="4722ed2dfc"><path d="M 71.226562 28.800781 L 76.953125 28.800781 L 76.953125 34.527344 L 71.226562 34.527344 Z M 71.226562 28.800781 " clip-rule="nonzero"/></clipPath><clipPath id="62f55e796b"><path d="M 74.089844 28.800781 C 72.507812 28.800781 71.226562 30.082031 71.226562 31.664062 C 71.226562 33.246094 72.507812 34.527344 74.089844 34.527344 C 75.671875 34.527344 76.953125 33.246094 76.953125 31.664062 C 76.953125 30.082031 75.671875 28.800781 74.089844 28.800781 Z M 74.089844 28.800781 " clip-rule="nonzero"/></clipPath><clipPath id="12aeb824b5"><path d="M 55.414062 9.210938 L 67.367188 9.210938 L 67.367188 21.164062 L 55.414062 21.164062 Z M 55.414062 9.210938 " clip-rule="nonzero"/></clipPath><clipPath id="789ab6ac74"><path d="M 61.390625 9.210938 C 58.089844 9.210938 55.414062 11.886719 55.414062 15.1875 C 55.414062 18.488281 58.089844 21.164062 61.390625 21.164062 C 64.691406 21.164062 67.367188 18.488281 67.367188 15.1875 C 67.367188 11.886719 64.691406 9.210938 61.390625 9.210938 Z M 61.390625 9.210938 " clip-rule="nonzero"/></clipPath><clipPath id="02a1352fd5"><path d="M 78.886719 12.464844 L 85.214844 12.464844 L 85.214844 18.792969 L 78.886719 18.792969 Z M 78.886719 12.464844 " clip-rule="nonzero"/></clipPath><clipPath id="357f911b48"><path d="M 82.050781 12.464844 C 80.304688 12.464844 78.886719 13.882812 78.886719 15.628906 C 78.886719 17.375 80.304688 18.792969 82.050781 18.792969 C 83.796875 18.792969 85.214844 17.375 85.214844 15.628906 C 85.214844 13.882812 83.796875 12.464844 82.050781 12.464844 Z M 82.050781 12.464844 " clip-rule="nonzero"/></clipPath><clipPath id="7b05ff82c5"><path d="M 85.214844 26.398438 L 91.542969 26.398438 L 91.542969 32.726562 L 85.214844 32.726562 Z M 85.214844 26.398438 " clip-rule="nonzero"/></clipPath><clipPath id="7c9bbd6841"><path d="M 88.378906 26.398438 C 86.632812 26.398438 85.214844 27.816406 85.214844 29.5625 C 85.214844 31.308594 86.632812 32.726562 88.378906 32.726562 C 90.125 32.726562 91.542969 31.308594 91.542969 29.5625 C 91.542969 27.816406 90.125 26.398438 88.378906 26.398438 Z M 88.378906 26.398438 " clip-rule="nonzero"/></clipPath></defs><g clip-path="url(#f2f670bce4)"><g clip-path="url(#0f19d7e44e)"><path fill="#3b9f74" d="M 15.800781 52.4375 L 29.152344 52.4375 L 29.152344 65.789062 L 15.800781 65.789062 Z M 15.800781 52.4375 " fill-opacity="1" fill-rule="nonzero"/></g></g><g clip-path="url(#c047625477)"><g clip-path="url(#3548927c46)"><path fill="#3b9f74" d="M 29.675781 33.6875 L 35.601562 33.6875 L 35.601562 39.613281 L 29.675781 39.613281 Z M 29.675781 33.6875 " fill-opacity="1" fill-rule="nonzero"/></g></g><g clip-path="url(#420106ff95)"><g clip-path="url(#fcae10983a)"><path fill="#3b9f74" d="M 86.714844 9.589844 L 104.199219 9.589844 L 104.199219 27.074219 L 86.714844 27.074219 Z M 86.714844 9.589844 " fill-opacity="1" fill-rule="nonzero"/></g></g><g clip-path="url(#583020289e)"><g clip-path="url(#9369b7d712)"><path fill="#3b9f74" d="M 72.785156 35.277344 L 84.410156 35.277344 L 84.410156 46.902344 L 72.785156 46.902344 Z M 72.785156 35.277344 " fill-opacity="1" fill-rule="nonzero"/></g></g><g clip-path="url(#b02c2bdf6e)"><g clip-path="url(#3e2ec20d5e)"><path fill="#3b9f74" d="M 55.851562 22.476562 L 70.023438 22.476562 L 70.023438 36.652344 L 55.851562 36.652344 Z M 55.851562 22.476562 " fill-opacity="1" fill-rule="nonzero"/></g></g><g clip-path="url(#f0dc870f7e)"><g clip-path="url(#c22b1c5fb2)"><path fill="#3b9f74" d="M 43.402344 43.289062 L 52.550781 43.289062 L 52.550781 52.4375 L 43.402344 52.4375 Z M 43.402344 43.289062 " fill-opacity="1" fill-rule="nonzero"/></g></g><g clip-path="url(#18f5b93769)"><g clip-path="url(#5e3c7c3221)"><path fill="#4adf9f" d="M 29.152344 45.578125 L 35.078125 45.578125 L 35.078125 51.503906 L 29.152344 51.503906 Z M 29.152344 45.578125 " fill-opacity="1" fill-rule="nonzero"/></g></g><g clip-path="url(#8db628f29e)"><g clip-path="url(#a430e5aaf1)"><path fill="#4adf9f" d="M 43.402344 18.332031 L 54.953125 18.332031 L 54.953125 29.882812 L 43.402344 29.882812 Z M 43.402344 18.332031 " fill-opacity="1" fill-rule="nonzero"/></g></g><g clip-path="url(#0ee6bba990)"><g clip-path="url(#1af0df19a7)"><path fill="#4adf9f" d="M 40.851562 31.664062 L 50.828125 31.664062 L 50.828125 41.636719 L 40.851562 41.636719 Z M 40.851562 31.664062 " fill-opacity="1" fill-rule="nonzero"/></g></g><g clip-path="url(#8ce72c02ba)"><g clip-path="url(#196e2988dd)"><path fill="#4adf9f" d="M 56.902344 39.84375 L 69.5 39.84375 L 69.5 52.4375 L 56.902344 52.4375 Z M 56.902344 39.84375 " fill-opacity="1" fill-rule="nonzero"/></g></g><g clip-path="url(#e369d8bf7d)"><g clip-path="url(#aed1f64700)"><path fill="#4adf9f" d="M 75.464844 19.8125 L 85.214844 19.8125 L 85.214844 29.5625 L 75.464844 29.5625 Z M 75.464844 19.8125 " fill-opacity="1" fill-rule="nonzero"/></g></g><g clip-path="url(#f8c99bbd66)"><g clip-path="url(#6378544c53)"><path fill="#4adf9f" d="M 71.226562 15.628906 L 75.136719 15.628906 L 75.136719 19.539062 L 71.226562 19.539062 Z M 71.226562 15.628906 " fill-opacity="1" fill-rule="nonzero"/></g></g><g clip-path="url(#fb27f29126)"><g clip-path="url(#84b0996231)"><path fill="#deff80" d="M 18.519531 41.621094 L 26.433594 41.621094 L 26.433594 49.539062 L 18.519531 49.539062 Z M 18.519531 41.621094 " fill-opacity="1" fill-rule="nonzero"/></g></g><g clip-path="url(#bb22818e69)"><g clip-path="url(#19bfa98a6d)"><path fill="#deff80" d="M 35.484375 52.4375 L 40.554688 52.4375 L 40.554688 57.507812 L 35.484375 57.507812 Z M 35.484375 52.4375 " fill-opacity="1" fill-rule="nonzero"/></g></g><g clip-path="url(#9f82c68b73)"><g clip-path="url(#cc2f73ac3d)"><path fill="#deff80" d="M 52.550781 36.652344 L 58.277344 36.652344 L 58.277344 42.378906 L 52.550781 42.378906 Z M 52.550781 36.652344 " fill-opacity="1" fill-rule="nonzero"/></g></g><g clip-path="url(#bd6a75fc73)"><g clip-path="url(#f95a4fcdd2)"><path fill="#deff80" d="M 36.589844 41.636719 L 42.398438 41.636719 L 42.398438 47.449219 L 36.589844 47.449219 Z M 36.589844 41.636719 " fill-opacity="1" fill-rule="nonzero"/></g></g><g clip-path="url(#4722ed2dfc)"><g clip-path="url(#62f55e796b)"><path fill="#deff80" d="M 71.226562 28.800781 L 76.953125 28.800781 L 76.953125 34.527344 L 71.226562 34.527344 Z M 71.226562 28.800781 " fill-opacity="1" fill-rule="nonzero"/></g></g><g clip-path="url(#12aeb824b5)"><g clip-path="url(#789ab6ac74)"><path fill="#deff80" d="M 55.414062 9.210938 L 67.367188 9.210938 L 67.367188 21.164062 L 55.414062 21.164062 Z M 55.414062 9.210938 " fill-opacity="1" fill-rule="nonzero"/></g></g><g clip-path="url(#02a1352fd5)"><g clip-path="url(#357f911b48)"><path fill="#deff80" d="M 78.886719 12.464844 L 85.214844 12.464844 L 85.214844 18.792969 L 78.886719 18.792969 Z M 78.886719 12.464844 " fill-opacity="1" fill-rule="nonzero"/></g></g><g clip-path="url(#7b05ff82c5)"><g clip-path="url(#7c9bbd6841)"><path fill="#deff80" d="M 85.214844 26.398438 L 91.542969 26.398438 L 91.542969 32.726562 L 85.214844 32.726562 Z M 85.214844 26.398438 " fill-opacity="1" fill-rule="nonzero"/></g></g></svg>