<svg xmlns="http://www.w3.org/2000/svg" xmlns:xlink="http://www.w3.org/1999/xlink" width="160" zoomAndPan="magnify" viewBox="0 0 120 74.999997" height="100" preserveAspectRatio="xMidYMid meet" version="1.0"><defs><clipPath id="212aef807e"><path d="M 53.078125 44.042969 L 66.746094 44.042969 L 66.746094 61.1875 L 53.078125 61.1875 Z M 53.078125 44.042969 " clip-rule="nonzero"/></clipPath><clipPath id="5cbd0be009"><path d="M 53.078125 48.503906 L 66.746094 48.503906 L 66.746094 65.644531 L 53.078125 65.644531 Z M 53.078125 48.503906 " clip-rule="nonzero"/></clipPath><clipPath id="a96f68b261"><path d="M 53.078125 54.527344 L 66.746094 54.527344 L 66.746094 65.644531 L 53.078125 65.644531 Z M 53.078125 54.527344 " clip-rule="nonzero"/></clipPath><clipPath id="d7c95469f6"><path d="M 6.417969 39.585938 L 20.085938 39.585938 L 20.085938 65.644531 L 6.417969 65.644531 Z M 6.417969 39.585938 " clip-rule="nonzero"/></clipPath><clipPath id="8d60ba72ad"><path d="M 6.417969 32.289062 L 20.085938 32.289062 L 20.085938 48.851562 L 6.417969 48.851562 Z M 6.417969 32.289062 " clip-rule="nonzero"/></clipPath><clipPath id="3575490e80"><path d="M 6.417969 25.105469 L 20.085938 25.105469 L 20.085938 34.140625 L 6.417969 34.140625 Z M 6.417969 25.105469 " clip-rule="nonzero"/></clipPath><clipPath id="f047605557"><path d="M 29.660156 19.777344 L 43.328125 19.777344 L 43.328125 65.644531 L 29.660156 65.644531 Z M 29.660156 19.777344 " clip-rule="nonzero"/></clipPath><clipPath id="f8a3f9b97b"><path d="M 29.660156 32.289062 L 43.328125 32.289062 L 43.328125 65.644531 L 29.660156 65.644531 Z M 29.660156 32.289062 " clip-rule="nonzero"/></clipPath><clipPath id="96c59cbff5"><path d="M 29.660156 9.355469 L 43.328125 9.355469 L 43.328125 21.632812 L 29.660156 21.632812 Z M 29.660156 9.355469 " clip-rule="nonzero"/></clipPath><clipPath id="bfc8761b32"><path d="M 76.496094 17.171875 L 90.164062 17.171875 L 90.164062 61.1875 L 76.496094 61.1875 Z M 76.496094 17.171875 " clip-rule="nonzero"/></clipPath><clipPath id="7889ac87f0"><path d="M 76.496094 21.632812 L 90.164062 21.632812 L 90.164062 65.644531 L 76.496094 65.644531 Z M 76.496094 21.632812 " clip-rule="nonzero"/></clipPath><clipPath id="e94f1a770d"><path d="M 76.496094 32.054688 L 90.164062 32.054688 L 90.164062 65.644531 L 76.496094 65.644531 Z M 76.496094 32.054688 " clip-rule="nonzero"/></clipPath><clipPath id="abcba82fce"><path d="M 99.914062 11.003906 L 113.582031 11.003906 L 113.582031 61.1875 L 99.914062 61.1875 Z M 99.914062 11.003906 " clip-rule="nonzero"/></clipPath><clipPath id="768a592f61"><path d="M 99.914062 23.730469 L 113.582031 23.730469 L 113.582031 65.644531 L 99.914062 65.644531 Z M 99.914062 23.730469 " clip-rule="nonzero"/></clipPath><clipPath id="1a7b6fd9e0"><path d="M 99.914062 36.09375 L 113.582031 36.09375 L 113.582031 65.644531 L 99.914062 65.644531 Z M 99.914062 36.09375 " clip-rule="nonzero"/></clipPath></defs><g clip-path="url(#212aef807e)"><path fill="#deff80" d="M 53.078125 44.042969 L 66.746094 44.042969 L 66.746094 61.183594 L 53.078125 61.183594 Z M 53.078125 44.042969 " fill-opacity="1" fill-rule="nonzero"/></g><g clip-path="url(#5cbd0be009)"><path fill="#4adf9f" d="M 53.078125 48.503906 L 66.746094 48.503906 L 66.746094 65.640625 L 53.078125 65.640625 Z M 53.078125 48.503906 " fill-opacity="1" fill-rule="nonzero"/></g><g clip-path="url(#a96f68b261)"><path fill="#3b9f74" d="M 53.078125 54.527344 L 66.761719 54.527344 L 66.761719 65.644531 L 53.078125 65.644531 Z M 53.078125 54.527344 " fill-opacity="1" fill-rule="nonzero"/></g><g clip-path="url(#d7c95469f6)"><path fill="#3b9f74" d="M 6.417969 39.585938 L 20.085938 39.585938 L 20.085938 65.640625 L 6.417969 65.640625 Z M 6.417969 39.585938 " fill-opacity="1" fill-rule="nonzero"/></g><g clip-path="url(#8d60ba72ad)"><path fill="#4adf9f" d="M 6.417969 32.289062 L 20.085938 32.289062 L 20.085938 48.839844 L 6.417969 48.839844 Z M 6.417969 32.289062 " fill-opacity="1" fill-rule="nonzero"/></g><g clip-path="url(#3575490e80)"><path fill="#deff80" d="M 6.417969 25.105469 L 20.078125 25.105469 L 20.078125 34.140625 L 6.417969 34.140625 Z M 6.417969 25.105469 " fill-opacity="1" fill-rule="nonzero"/></g><g clip-path="url(#f047605557)"><path fill="#4adf9f" d="M 29.660156 19.777344 L 43.328125 19.777344 L 43.328125 65.640625 L 29.660156 65.640625 Z M 29.660156 19.777344 " fill-opacity="1" fill-rule="nonzero"/></g><g clip-path="url(#f8a3f9b97b)"><path fill="#3b9f74" d="M 29.660156 32.289062 L 43.328125 32.289062 L 43.328125 65.65625 L 29.660156 65.65625 Z M 29.660156 32.289062 " fill-opacity="1" fill-rule="nonzero"/></g><g clip-path="url(#96c59cbff5)"><path fill="#deff80" d="M 29.660156 9.355469 L 43.328125 9.355469 L 43.328125 21.632812 L 29.660156 21.632812 Z M 29.660156 9.355469 " fill-opacity="1" fill-rule="nonzero"/></g><g clip-path="url(#bfc8761b32)"><path fill="#deff80" d="M 76.496094 17.171875 L 90.164062 17.171875 L 90.164062 61.164062 L 76.496094 61.164062 Z M 76.496094 17.171875 " fill-opacity="1" fill-rule="nonzero"/></g><g clip-path="url(#7889ac87f0)"><path fill="#4adf9f" d="M 76.496094 21.632812 L 90.164062 21.632812 L 90.164062 65.625 L 76.496094 65.625 Z M 76.496094 21.632812 " fill-opacity="1" fill-rule="nonzero"/></g><g clip-path="url(#e94f1a770d)"><path fill="#3b9f74" d="M 76.496094 32.054688 L 90.164062 32.054688 L 90.164062 65.636719 L 76.496094 65.636719 Z M 76.496094 32.054688 " fill-opacity="1" fill-rule="nonzero"/></g><g clip-path="url(#abcba82fce)"><path fill="#deff80" d="M 99.914062 11.003906 L 113.582031 11.003906 L 113.582031 61.191406 L 99.914062 61.191406 Z M 99.914062 11.003906 " fill-opacity="1" fill-rule="nonzero"/></g><g clip-path="url(#768a592f61)"><path fill="#4adf9f" d="M 99.914062 23.730469 L 113.582031 23.730469 L 113.582031 65.640625 L 99.914062 65.640625 Z M 99.914062 23.730469 " fill-opacity="1" fill-rule="nonzero"/></g><g clip-path="url(#1a7b6fd9e0)"><path fill="#3b9f74" d="M 99.914062 36.09375 L 113.582031 36.09375 L 113.582031 65.621094 L 99.914062 65.621094 Z M 99.914062 36.09375 " fill-opacity="1" fill-rule="nonzero"/></g></svg>