<svg xmlns="http://www.w3.org/2000/svg" xmlns:xlink="http://www.w3.org/1999/xlink" width="160" zoomAndPan="magnify" viewBox="0 0 120 74.999997" height="100" preserveAspectRatio="xMidYMid meet" version="1.0"><defs><g/><clipPath id="3562e8403a"><path d="M 8.761719 49.269531 L 12.511719 49.269531 L 12.511719 60.519531 L 8.761719 60.519531 Z M 8.761719 49.269531 " clip-rule="nonzero"/></clipPath></defs><g clip-path="url(#3562e8403a)"><path fill="#4cc28f" d="M 10.585938 49.359375 L 8.761719 51.910156 L 10.128906 51.910156 L 10.128906 60.109375 L 11.039062 60.109375 L 11.039062 51.910156 L 12.40625 51.910156 Z M 10.585938 49.359375 " fill-opacity="1" fill-rule="nonzero"/></g><g fill="#3b9f74" fill-opacity="1"><g transform="translate(22.818322, 35.327717)"><g><path d="M 1.09375 0 L 1.09375 -3.390625 L 6.109375 -3.390625 L 6.109375 -16.328125 L 5.78125 -16.40625 C 5.070312 -16.0625 4.375 -15.789062 3.6875 -15.59375 C 3 -15.394531 2.210938 -15.238281 1.328125 -15.125 L 1.328125 -18.640625 C 3.628906 -19.117188 5.492188 -19.828125 6.921875 -20.765625 L 10.171875 -20.765625 L 10.171875 -3.390625 L 14.640625 -3.390625 L 14.640625 0 Z M 1.09375 0 "/></g></g><g transform="translate(38.142627, 35.327717)"><g><path d="M 1.09375 0 L 1.09375 -3.390625 L 6.109375 -3.390625 L 6.109375 -16.328125 L 5.78125 -16.40625 C 5.070312 -16.0625 4.375 -15.789062 3.6875 -15.59375 C 3 -15.394531 2.210938 -15.238281 1.328125 -15.125 L 1.328125 -18.640625 C 3.628906 -19.117188 5.492188 -19.828125 6.921875 -20.765625 L 10.171875 -20.765625 L 10.171875 -3.390625 L 14.640625 -3.390625 L 14.640625 0 Z M 1.09375 0 "/></g></g><g transform="translate(53.466931, 35.327717)"><g><path d="M 0.5625 4.171875 C 1.394531 3.660156 2.140625 3.039062 2.796875 2.3125 C 3.460938 1.59375 3.816406 0.859375 3.859375 0.109375 C 3.117188 0.109375 2.535156 -0.109375 2.109375 -0.546875 C 1.691406 -0.984375 1.484375 -1.554688 1.484375 -2.265625 C 1.484375 -2.703125 1.585938 -3.101562 1.796875 -3.46875 C 2.003906 -3.832031 2.296875 -4.117188 2.671875 -4.328125 C 3.046875 -4.535156 3.484375 -4.640625 3.984375 -4.640625 C 4.773438 -4.640625 5.40625 -4.378906 5.875 -3.859375 C 6.351562 -3.335938 6.59375 -2.59375 6.59375 -1.625 C 6.59375 0.0703125 6.160156 1.546875 5.296875 2.796875 C 4.441406 4.046875 3.300781 5.101562 1.875 5.96875 Z M 0.5625 4.171875 "/></g></g><g transform="translate(61.548052, 35.327717)"><g><path d="M 10.140625 0.296875 C 8.441406 0.296875 6.960938 -0.078125 5.703125 -0.828125 C 4.453125 -1.578125 3.476562 -2.75 2.78125 -4.34375 C 2.09375 -5.9375 1.75 -7.953125 1.75 -10.390625 C 1.75 -12.816406 2.09375 -14.828125 2.78125 -16.421875 C 3.476562 -18.015625 4.453125 -19.1875 5.703125 -19.9375 C 6.960938 -20.6875 8.441406 -21.0625 10.140625 -21.0625 C 11.847656 -21.0625 13.328125 -20.6875 14.578125 -19.9375 C 15.835938 -19.1875 16.8125 -18.015625 17.5 -16.421875 C 18.195312 -14.828125 18.546875 -12.816406 18.546875 -10.390625 C 18.546875 -7.953125 18.195312 -5.9375 17.5 -4.34375 C 16.8125 -2.75 15.835938 -1.578125 14.578125 -0.828125 C 13.328125 -0.078125 11.847656 0.296875 10.140625 0.296875 Z M 10.140625 -3.1875 C 11.066406 -3.1875 11.84375 -3.410156 12.46875 -3.859375 C 13.09375 -4.304688 13.570312 -5.0625 13.90625 -6.125 C 14.25 -7.1875 14.421875 -8.609375 14.421875 -10.390625 C 14.421875 -12.171875 14.25 -13.585938 13.90625 -14.640625 C 13.570312 -15.703125 13.09375 -16.457031 12.46875 -16.90625 C 11.84375 -17.363281 11.066406 -17.59375 10.140625 -17.59375 C 9.210938 -17.59375 8.4375 -17.363281 7.8125 -16.90625 C 7.1875 -16.457031 6.703125 -15.703125 6.359375 -14.640625 C 6.023438 -13.585938 5.859375 -12.171875 5.859375 -10.390625 C 5.859375 -8.609375 6.023438 -7.1875 6.359375 -6.125 C 6.703125 -5.0625 7.1875 -4.304688 7.8125 -3.859375 C 8.4375 -3.410156 9.210938 -3.1875 10.140625 -3.1875 Z M 10.140625 -3.1875 "/></g></g><g transform="translate(81.843168, 35.327717)"><g><path d="M 1.09375 0 L 1.09375 -3.390625 L 6.109375 -3.390625 L 6.109375 -16.328125 L 5.78125 -16.40625 C 5.070312 -16.0625 4.375 -15.789062 3.6875 -15.59375 C 3 -15.394531 2.210938 -15.238281 1.328125 -15.125 L 1.328125 -18.640625 C 3.628906 -19.117188 5.492188 -19.828125 6.921875 -20.765625 L 10.171875 -20.765625 L 10.171875 -3.390625 L 14.640625 -3.390625 L 14.640625 0 Z M 1.09375 0 "/></g></g></g><g fill="#4cc28f" fill-opacity="1"><g transform="translate(16.913704, 58.604059)"><g><path d="M 0.40625 -0.65625 C 0.40625 -1.113281 0.453125 -1.5 0.546875 -1.8125 C 0.648438 -2.125 0.8125 -2.410156 1.03125 -2.671875 C 1.257812 -2.929688 1.582031 -3.207031 2 -3.5 L 3.109375 -4.296875 C 3.410156 -4.515625 3.644531 -4.703125 3.8125 -4.859375 C 3.976562 -5.015625 4.101562 -5.179688 4.1875 -5.359375 C 4.269531 -5.535156 4.3125 -5.734375 4.3125 -5.953125 C 4.3125 -6.285156 4.207031 -6.546875 4 -6.734375 C 3.800781 -6.921875 3.5 -7.015625 3.09375 -7.015625 C 2.707031 -7.015625 2.359375 -6.921875 2.046875 -6.734375 C 1.742188 -6.546875 1.492188 -6.289062 1.296875 -5.96875 L 1.1875 -5.9375 L 0.28125 -6.9375 C 0.570312 -7.375 0.953125 -7.722656 1.421875 -7.984375 C 1.898438 -8.253906 2.476562 -8.390625 3.15625 -8.390625 C 3.78125 -8.390625 4.300781 -8.285156 4.71875 -8.078125 C 5.132812 -7.878906 5.441406 -7.601562 5.640625 -7.25 C 5.835938 -6.894531 5.9375 -6.492188 5.9375 -6.046875 C 5.9375 -5.648438 5.851562 -5.289062 5.6875 -4.96875 C 5.53125 -4.644531 5.304688 -4.34375 5.015625 -4.0625 C 4.722656 -3.789062 4.351562 -3.492188 3.90625 -3.171875 L 2.921875 -2.484375 C 2.628906 -2.273438 2.421875 -2.085938 2.296875 -1.921875 C 2.179688 -1.765625 2.125 -1.582031 2.125 -1.375 L 5.859375 -1.375 L 5.859375 0 L 0.40625 0 Z M 0.40625 -0.65625 "/></g></g><g transform="translate(23.374074, 58.604059)"><g><path d="M 4.046875 0.125 C 3.367188 0.125 2.78125 -0.0234375 2.28125 -0.328125 C 1.78125 -0.628906 1.390625 -1.097656 1.109375 -1.734375 C 0.835938 -2.367188 0.703125 -3.171875 0.703125 -4.140625 C 0.703125 -5.109375 0.835938 -5.910156 1.109375 -6.546875 C 1.390625 -7.179688 1.78125 -7.644531 2.28125 -7.9375 C 2.78125 -8.238281 3.367188 -8.390625 4.046875 -8.390625 C 4.722656 -8.390625 5.3125 -8.238281 5.8125 -7.9375 C 6.3125 -7.644531 6.695312 -7.179688 6.96875 -6.546875 C 7.25 -5.910156 7.390625 -5.109375 7.390625 -4.140625 C 7.390625 -3.171875 7.25 -2.367188 6.96875 -1.734375 C 6.695312 -1.097656 6.3125 -0.628906 5.8125 -0.328125 C 5.3125 -0.0234375 4.722656 0.125 4.046875 0.125 Z M 4.046875 -1.265625 C 4.410156 -1.265625 4.71875 -1.351562 4.96875 -1.53125 C 5.21875 -1.71875 5.410156 -2.019531 5.546875 -2.4375 C 5.679688 -2.863281 5.75 -3.429688 5.75 -4.140625 C 5.75 -4.847656 5.679688 -5.410156 5.546875 -5.828125 C 5.410156 -6.253906 5.21875 -6.554688 4.96875 -6.734375 C 4.71875 -6.921875 4.410156 -7.015625 4.046875 -7.015625 C 3.671875 -7.015625 3.359375 -6.921875 3.109375 -6.734375 C 2.859375 -6.554688 2.664062 -6.253906 2.53125 -5.828125 C 2.40625 -5.410156 2.34375 -4.847656 2.34375 -4.140625 C 2.34375 -3.429688 2.40625 -2.863281 2.53125 -2.4375 C 2.664062 -2.019531 2.859375 -1.71875 3.109375 -1.53125 C 3.359375 -1.351562 3.671875 -1.265625 4.046875 -1.265625 Z M 4.046875 -1.265625 "/></g></g><g transform="translate(31.465106, 58.604059)"><g><path d="M 2.375 -3.78125 C 1.757812 -3.78125 1.273438 -3.96875 0.921875 -4.34375 C 0.578125 -4.726562 0.40625 -5.3125 0.40625 -6.09375 C 0.40625 -6.863281 0.578125 -7.4375 0.921875 -7.8125 C 1.273438 -8.195312 1.757812 -8.390625 2.375 -8.390625 C 2.976562 -8.390625 3.453125 -8.195312 3.796875 -7.8125 C 4.140625 -7.4375 4.3125 -6.863281 4.3125 -6.09375 C 4.3125 -5.3125 4.140625 -4.726562 3.796875 -4.34375 C 3.453125 -3.96875 2.976562 -3.78125 2.375 -3.78125 Z M 2.9375 0 L 1.5625 0 L 1.546875 -0.125 L 7.078125 -8.28125 L 8.453125 -8.28125 L 8.484375 -8.15625 Z M 2.375 -4.859375 C 2.601562 -4.859375 2.773438 -4.945312 2.890625 -5.125 C 3.003906 -5.3125 3.0625 -5.632812 3.0625 -6.09375 C 3.0625 -6.550781 3.003906 -6.867188 2.890625 -7.046875 C 2.773438 -7.234375 2.601562 -7.328125 2.375 -7.328125 C 2.21875 -7.328125 2.085938 -7.289062 1.984375 -7.21875 C 1.878906 -7.144531 1.800781 -7.015625 1.75 -6.828125 C 1.695312 -6.648438 1.671875 -6.40625 1.671875 -6.09375 C 1.671875 -5.769531 1.695312 -5.519531 1.75 -5.34375 C 1.800781 -5.164062 1.875 -5.039062 1.96875 -4.96875 C 2.070312 -4.894531 2.207031 -4.859375 2.375 -4.859375 Z M 7.671875 0.125 C 7.066406 0.125 6.585938 -0.0625 6.234375 -0.4375 C 5.890625 -0.820312 5.71875 -1.40625 5.71875 -2.1875 C 5.71875 -2.957031 5.890625 -3.535156 6.234375 -3.921875 C 6.585938 -4.304688 7.066406 -4.5 7.671875 -4.5 C 8.273438 -4.5 8.75 -4.304688 9.09375 -3.921875 C 9.445312 -3.535156 9.625 -2.957031 9.625 -2.1875 C 9.625 -1.414062 9.445312 -0.835938 9.09375 -0.453125 C 8.75 -0.0664062 8.273438 0.125 7.671875 0.125 Z M 7.671875 -0.953125 C 7.828125 -0.953125 7.953125 -0.988281 8.046875 -1.0625 C 8.148438 -1.132812 8.226562 -1.257812 8.28125 -1.4375 C 8.332031 -1.625 8.359375 -1.875 8.359375 -2.1875 C 8.359375 -2.5 8.332031 -2.742188 8.28125 -2.921875 C 8.226562 -3.109375 8.148438 -3.238281 8.046875 -3.3125 C 7.953125 -3.382812 7.828125 -3.421875 7.671875 -3.421875 C 7.515625 -3.421875 7.382812 -3.382812 7.28125 -3.3125 C 7.1875 -3.238281 7.113281 -3.109375 7.0625 -2.921875 C 7.007812 -2.742188 6.984375 -2.5 6.984375 -2.1875 C 6.984375 -1.875 7.007812 -1.625 7.0625 -1.4375 C 7.113281 -1.257812 7.1875 -1.132812 7.28125 -1.0625 C 7.382812 -0.988281 7.515625 -0.953125 7.671875 -0.953125 Z M 7.671875 -0.953125 "/></g></g></g><g fill="#4cc28f" fill-opacity="1"><g transform="translate(46.36587, 58.604059)"><g><path d="M 4.296875 0 L 2.421875 0 L 0.125 -6.25 L 1.765625 -6.25 L 3.3125 -1.796875 L 3.4375 -1.796875 L 5 -6.25 L 6.59375 -6.25 Z M 4.296875 0 "/></g></g><g transform="translate(53.08103, 58.604059)"><g><path d="M 2.921875 0.125 C 2.492188 0.125 2.101562 0.0703125 1.75 -0.03125 C 1.394531 -0.132812 1.09375 -0.269531 0.84375 -0.4375 C 0.59375 -0.613281 0.40625 -0.816406 0.28125 -1.046875 L 1.15625 -1.984375 L 1.28125 -1.984375 C 1.476562 -1.703125 1.71875 -1.492188 2 -1.359375 C 2.289062 -1.222656 2.601562 -1.15625 2.9375 -1.15625 C 3.238281 -1.15625 3.46875 -1.207031 3.625 -1.3125 C 3.78125 -1.425781 3.859375 -1.582031 3.859375 -1.78125 C 3.859375 -1.9375 3.800781 -2.066406 3.6875 -2.171875 C 3.570312 -2.285156 3.390625 -2.375 3.140625 -2.4375 L 2.328125 -2.625 C 1.703125 -2.78125 1.242188 -3.007812 0.953125 -3.3125 C 0.671875 -3.613281 0.53125 -4 0.53125 -4.46875 C 0.53125 -4.851562 0.628906 -5.1875 0.828125 -5.46875 C 1.023438 -5.757812 1.304688 -5.976562 1.671875 -6.125 C 2.035156 -6.28125 2.457031 -6.359375 2.9375 -6.359375 C 3.5 -6.359375 3.960938 -6.273438 4.328125 -6.109375 C 4.703125 -5.953125 4.992188 -5.738281 5.203125 -5.46875 L 4.359375 -4.5625 L 4.25 -4.5625 C 4.070312 -4.757812 3.875 -4.898438 3.65625 -4.984375 C 3.4375 -5.078125 3.195312 -5.125 2.9375 -5.125 C 2.3125 -5.125 2 -4.929688 2 -4.546875 C 2 -4.390625 2.054688 -4.257812 2.171875 -4.15625 C 2.285156 -4.050781 2.488281 -3.96875 2.78125 -3.90625 L 3.5625 -3.734375 C 4.1875 -3.597656 4.644531 -3.378906 4.9375 -3.078125 C 5.238281 -2.773438 5.390625 -2.375 5.390625 -1.875 C 5.390625 -1.476562 5.289062 -1.128906 5.09375 -0.828125 C 4.894531 -0.523438 4.609375 -0.289062 4.234375 -0.125 C 3.867188 0.0390625 3.429688 0.125 2.921875 0.125 Z M 2.921875 0.125 "/></g></g><g transform="translate(58.839309, 58.604059)"><g><path d="M 1.59375 0.046875 C 1.394531 0.046875 1.21875 0.0078125 1.0625 -0.0625 C 0.914062 -0.144531 0.800781 -0.257812 0.71875 -0.40625 C 0.632812 -0.550781 0.59375 -0.710938 0.59375 -0.890625 C 0.59375 -1.078125 0.632812 -1.238281 0.71875 -1.375 C 0.800781 -1.519531 0.914062 -1.632812 1.0625 -1.71875 C 1.21875 -1.800781 1.394531 -1.84375 1.59375 -1.84375 C 1.800781 -1.84375 1.976562 -1.800781 2.125 -1.71875 C 2.28125 -1.644531 2.398438 -1.535156 2.484375 -1.390625 C 2.566406 -1.242188 2.609375 -1.082031 2.609375 -0.90625 C 2.609375 -0.625 2.515625 -0.394531 2.328125 -0.21875 C 2.148438 -0.0390625 1.90625 0.046875 1.59375 0.046875 Z M 1.59375 0.046875 "/></g></g><g transform="translate(62.038353, 58.604059)"><g/></g><g transform="translate(64.77311, 58.604059)"><g><path d="M 6.578125 2.0625 C 5.847656 2.0625 5.242188 1.882812 4.765625 1.53125 C 4.285156 1.175781 3.960938 0.6875 3.796875 0.0625 C 3.160156 -0.0195312 2.609375 -0.226562 2.140625 -0.5625 C 1.671875 -0.90625 1.304688 -1.375 1.046875 -1.96875 C 0.785156 -2.570312 0.65625 -3.296875 0.65625 -4.140625 C 0.65625 -5.085938 0.816406 -5.878906 1.140625 -6.515625 C 1.472656 -7.148438 1.925781 -7.617188 2.5 -7.921875 C 3.082031 -8.234375 3.753906 -8.390625 4.515625 -8.390625 C 5.273438 -8.390625 5.941406 -8.234375 6.515625 -7.921875 C 7.085938 -7.617188 7.535156 -7.148438 7.859375 -6.515625 C 8.191406 -5.878906 8.359375 -5.085938 8.359375 -4.140625 C 8.359375 -2.898438 8.09375 -1.945312 7.5625 -1.28125 C 7.03125 -0.625 6.285156 -0.210938 5.328125 -0.046875 L 5.296875 0.0625 C 5.421875 0.257812 5.597656 0.410156 5.828125 0.515625 C 6.054688 0.628906 6.328125 0.6875 6.640625 0.6875 C 6.890625 0.6875 7.113281 0.65625 7.3125 0.59375 L 7.421875 0.609375 L 7.65625 1.890625 C 7.539062 1.929688 7.378906 1.96875 7.171875 2 C 6.960938 2.039062 6.765625 2.0625 6.578125 2.0625 Z M 4.515625 -1.296875 C 5.210938 -1.296875 5.742188 -1.519531 6.109375 -1.96875 C 6.484375 -2.425781 6.671875 -3.148438 6.671875 -4.140625 C 6.671875 -5.128906 6.484375 -5.847656 6.109375 -6.296875 C 5.742188 -6.753906 5.210938 -6.984375 4.515625 -6.984375 C 3.804688 -6.984375 3.265625 -6.753906 2.890625 -6.296875 C 2.523438 -5.847656 2.34375 -5.128906 2.34375 -4.140625 C 2.34375 -3.148438 2.523438 -2.425781 2.890625 -1.96875 C 3.265625 -1.519531 3.804688 -1.296875 4.515625 -1.296875 Z M 4.515625 -1.296875 "/></g></g><g transform="translate(73.792715, 58.604059)"><g><path d="M 0.4375 0 L 0.4375 -1.359375 L 2.4375 -1.359375 L 2.4375 -6.5 L 2.296875 -6.53125 C 2.015625 -6.394531 1.738281 -6.285156 1.46875 -6.203125 C 1.195312 -6.128906 0.882812 -6.070312 0.53125 -6.03125 L 0.53125 -7.421875 C 1.445312 -7.617188 2.1875 -7.90625 2.75 -8.28125 L 4.046875 -8.28125 L 4.046875 -1.359375 L 5.84375 -1.359375 L 5.84375 0 Z M 0.4375 0 "/></g></g><g transform="translate(79.902039, 58.604059)"><g/></g><g transform="translate(82.636796, 58.604059)"><g><path d="M 0.40625 -0.65625 C 0.40625 -1.113281 0.453125 -1.5 0.546875 -1.8125 C 0.648438 -2.125 0.8125 -2.410156 1.03125 -2.671875 C 1.257812 -2.929688 1.582031 -3.207031 2 -3.5 L 3.109375 -4.296875 C 3.410156 -4.515625 3.644531 -4.703125 3.8125 -4.859375 C 3.976562 -5.015625 4.101562 -5.179688 4.1875 -5.359375 C 4.269531 -5.535156 4.3125 -5.734375 4.3125 -5.953125 C 4.3125 -6.285156 4.207031 -6.546875 4 -6.734375 C 3.800781 -6.921875 3.5 -7.015625 3.09375 -7.015625 C 2.707031 -7.015625 2.359375 -6.921875 2.046875 -6.734375 C 1.742188 -6.546875 1.492188 -6.289062 1.296875 -5.96875 L 1.1875 -5.9375 L 0.28125 -6.9375 C 0.570312 -7.375 0.953125 -7.722656 1.421875 -7.984375 C 1.898438 -8.253906 2.476562 -8.390625 3.15625 -8.390625 C 3.78125 -8.390625 4.300781 -8.285156 4.71875 -8.078125 C 5.132812 -7.878906 5.441406 -7.601562 5.640625 -7.25 C 5.835938 -6.894531 5.9375 -6.492188 5.9375 -6.046875 C 5.9375 -5.648438 5.851562 -5.289062 5.6875 -4.96875 C 5.53125 -4.644531 5.304688 -4.34375 5.015625 -4.0625 C 4.722656 -3.789062 4.351562 -3.492188 3.90625 -3.171875 L 2.921875 -2.484375 C 2.628906 -2.273438 2.421875 -2.085938 2.296875 -1.921875 C 2.179688 -1.765625 2.125 -1.582031 2.125 -1.375 L 5.859375 -1.375 L 5.859375 0 L 0.40625 0 Z M 0.40625 -0.65625 "/></g></g><g transform="translate(89.097166, 58.604059)"><g><path d="M 4.046875 0.125 C 3.367188 0.125 2.78125 -0.0234375 2.28125 -0.328125 C 1.78125 -0.628906 1.390625 -1.097656 1.109375 -1.734375 C 0.835938 -2.367188 0.703125 -3.171875 0.703125 -4.140625 C 0.703125 -5.109375 0.835938 -5.910156 1.109375 -6.546875 C 1.390625 -7.179688 1.78125 -7.644531 2.28125 -7.9375 C 2.78125 -8.238281 3.367188 -8.390625 4.046875 -8.390625 C 4.722656 -8.390625 5.3125 -8.238281 5.8125 -7.9375 C 6.3125 -7.644531 6.695312 -7.179688 6.96875 -6.546875 C 7.25 -5.910156 7.390625 -5.109375 7.390625 -4.140625 C 7.390625 -3.171875 7.25 -2.367188 6.96875 -1.734375 C 6.695312 -1.097656 6.3125 -0.628906 5.8125 -0.328125 C 5.3125 -0.0234375 4.722656 0.125 4.046875 0.125 Z M 4.046875 -1.265625 C 4.410156 -1.265625 4.71875 -1.351562 4.96875 -1.53125 C 5.21875 -1.71875 5.410156 -2.019531 5.546875 -2.4375 C 5.679688 -2.863281 5.75 -3.429688 5.75 -4.140625 C 5.75 -4.847656 5.679688 -5.410156 5.546875 -5.828125 C 5.410156 -6.253906 5.21875 -6.554688 4.96875 -6.734375 C 4.71875 -6.921875 4.410156 -7.015625 4.046875 -7.015625 C 3.671875 -7.015625 3.359375 -6.921875 3.109375 -6.734375 C 2.859375 -6.554688 2.664062 -6.253906 2.53125 -5.828125 C 2.40625 -5.410156 2.34375 -4.847656 2.34375 -4.140625 C 2.34375 -3.429688 2.40625 -2.863281 2.53125 -2.4375 C 2.664062 -2.019531 2.859375 -1.71875 3.109375 -1.53125 C 3.359375 -1.351562 3.671875 -1.265625 4.046875 -1.265625 Z M 4.046875 -1.265625 "/></g></g><g transform="translate(97.188198, 58.604059)"><g><path d="M 0.40625 -0.65625 C 0.40625 -1.113281 0.453125 -1.5 0.546875 -1.8125 C 0.648438 -2.125 0.8125 -2.410156 1.03125 -2.671875 C 1.257812 -2.929688 1.582031 -3.207031 2 -3.5 L 3.109375 -4.296875 C 3.410156 -4.515625 3.644531 -4.703125 3.8125 -4.859375 C 3.976562 -5.015625 4.101562 -5.179688 4.1875 -5.359375 C 4.269531 -5.535156 4.3125 -5.734375 4.3125 -5.953125 C 4.3125 -6.285156 4.207031 -6.546875 4 -6.734375 C 3.800781 -6.921875 3.5 -7.015625 3.09375 -7.015625 C 2.707031 -7.015625 2.359375 -6.921875 2.046875 -6.734375 C 1.742188 -6.546875 1.492188 -6.289062 1.296875 -5.96875 L 1.1875 -5.9375 L 0.28125 -6.9375 C 0.570312 -7.375 0.953125 -7.722656 1.421875 -7.984375 C 1.898438 -8.253906 2.476562 -8.390625 3.15625 -8.390625 C 3.78125 -8.390625 4.300781 -8.285156 4.71875 -8.078125 C 5.132812 -7.878906 5.441406 -7.601562 5.640625 -7.25 C 5.835938 -6.894531 5.9375 -6.492188 5.9375 -6.046875 C 5.9375 -5.648438 5.851562 -5.289062 5.6875 -4.96875 C 5.53125 -4.644531 5.304688 -4.34375 5.015625 -4.0625 C 4.722656 -3.789062 4.351562 -3.492188 3.90625 -3.171875 L 2.921875 -2.484375 C 2.628906 -2.273438 2.421875 -2.085938 2.296875 -1.921875 C 2.179688 -1.765625 2.125 -1.582031 2.125 -1.375 L 5.859375 -1.375 L 5.859375 0 L 0.40625 0 Z M 0.40625 -0.65625 "/></g></g><g transform="translate(103.648568, 58.604059)"><g><path d="M 5.625 0 L 4.046875 0 L 4.046875 -1.796875 L 0.28125 -1.796875 L 0.28125 -3.125 L 3.53125 -8.28125 L 5.625 -8.28125 L 5.625 -3.125 L 6.890625 -3.125 L 6.890625 -1.796875 L 5.625 -1.796875 Z M 1.953125 -3.234375 L 2.015625 -3.125 L 4.046875 -3.125 L 4.046875 -6.328125 L 3.921875 -6.34375 Z M 1.953125 -3.234375 "/></g></g></g></svg>
