<svg xmlns="http://www.w3.org/2000/svg" xmlns:xlink="http://www.w3.org/1999/xlink" width="48" zoomAndPan="magnify" viewBox="0 0 36 36.000001" height="48" preserveAspectRatio="xMidYMid meet" version="1.0"><defs><g/><clipPath id="28d8a9559f"><path d="M 2.238281 1.75 L 33.761719 1.75 L 33.761719 33.277344 L 2.238281 33.277344 Z M 2.238281 1.75 " clip-rule="nonzero"/></clipPath><clipPath id="eb93482c51"><path d="M 6.617188 1.75 L 29.382812 1.75 C 30.546875 1.75 31.660156 2.210938 32.480469 3.035156 C 33.300781 3.855469 33.761719 4.96875 33.761719 6.128906 L 33.761719 28.898438 C 33.761719 30.058594 33.300781 31.171875 32.480469 31.992188 C 31.660156 32.8125 30.546875 33.277344 29.382812 33.277344 L 6.617188 33.277344 C 5.453125 33.277344 4.339844 32.8125 3.519531 31.992188 C 2.699219 31.171875 2.238281 30.058594 2.238281 28.898438 L 2.238281 6.128906 C 2.238281 4.96875 2.699219 3.855469 3.519531 3.035156 C 4.339844 2.210938 5.453125 1.75 6.617188 1.75 Z M 6.617188 1.75 " clip-rule="nonzero"/></clipPath></defs><g clip-path="url(#28d8a9559f)"><g clip-path="url(#eb93482c51)"><path fill="#deff80" d="M 2.238281 1.75 L 33.761719 1.75 L 33.761719 33.277344 L 2.238281 33.277344 Z M 2.238281 1.75 " fill-opacity="1" fill-rule="nonzero"/></g></g><g fill="#000000" fill-opacity="1"><g transform="translate(7.443148, 28.842627)"><g><path d="M 5.90625 -23.796875 L 5.90625 -15.140625 C 5.90625 -14.628906 5.800781 -14.101562 5.59375 -13.5625 C 5.382812 -13.03125 5.191406 -12.535156 5.015625 -12.078125 L 5.75 -11.8125 C 5.894531 -12.300781 6.039062 -12.828125 6.1875 -13.390625 C 6.332031 -13.960938 6.578125 -14.4375 6.921875 -14.8125 C 7.515625 -15.4375 8.234375 -15.941406 9.078125 -16.328125 C 9.921875 -16.710938 10.890625 -16.90625 11.984375 -16.90625 C 13.160156 -16.90625 14.25 -16.671875 15.25 -16.203125 C 16.25 -15.734375 17.113281 -15.101562 17.84375 -14.3125 C 18.570312 -13.519531 19.144531 -12.59375 19.5625 -11.53125 C 19.976562 -10.476562 20.195312 -9.359375 20.21875 -8.171875 C 20.238281 -6.941406 20.050781 -5.796875 19.65625 -4.734375 C 19.269531 -3.679688 18.707031 -2.765625 17.96875 -1.984375 C 17.238281 -1.210938 16.363281 -0.597656 15.34375 -0.140625 C 14.332031 0.304688 13.210938 0.53125 11.984375 0.53125 C 10.867188 0.53125 9.894531 0.347656 9.0625 -0.015625 C 8.226562 -0.378906 7.503906 -0.878906 6.890625 -1.515625 C 6.546875 -1.859375 6.304688 -2.320312 6.171875 -2.90625 C 6.035156 -3.488281 5.894531 -4.019531 5.75 -4.5 L 5.0625 -4.265625 C 5.207031 -3.785156 5.382812 -3.273438 5.59375 -2.734375 C 5.800781 -2.203125 5.90625 -1.6875 5.90625 -1.1875 L 5.90625 0 L 1.90625 -0.03125 L 1.90625 -23.828125 Z M 6.671875 -8.078125 C 6.671875 -7.398438 6.769531 -6.757812 6.96875 -6.15625 C 7.175781 -5.550781 7.484375 -5.035156 7.890625 -4.609375 C 8.296875 -4.179688 8.796875 -3.84375 9.390625 -3.59375 C 9.984375 -3.34375 10.660156 -3.21875 11.421875 -3.21875 C 12.191406 -3.21875 12.867188 -3.34375 13.453125 -3.59375 C 14.046875 -3.84375 14.546875 -4.179688 14.953125 -4.609375 C 15.359375 -5.035156 15.664062 -5.550781 15.875 -6.15625 C 16.082031 -6.757812 16.1875 -7.398438 16.1875 -8.078125 C 16.1875 -8.773438 16.082031 -9.429688 15.875 -10.046875 C 15.664062 -10.660156 15.359375 -11.195312 14.953125 -11.65625 C 14.546875 -12.113281 14.046875 -12.476562 13.453125 -12.75 C 12.867188 -13.03125 12.191406 -13.171875 11.421875 -13.171875 C 10.660156 -13.171875 9.984375 -13.03125 9.390625 -12.75 C 8.796875 -12.476562 8.296875 -12.113281 7.890625 -11.65625 C 7.484375 -11.195312 7.175781 -10.660156 6.96875 -10.046875 C 6.769531 -9.429688 6.671875 -8.773438 6.671875 -8.078125 Z M 6.671875 -8.078125 "/></g></g></g></svg>